SplineFontDB: 3.2
FontName: CommitMonoFont-BoldItalic
FullName: CommitMonoFont Bold Italic
FamilyName: CommitMonoFont
Weight: Bold
Copyright: Copyright 2023 Commit Mono authors (https://github.com/eigilnikolajsen/commit-mono)
Version: Version 1.143
ItalicAngle: -0.000137329
UnderlinePosition: -125
UnderlineWidth: 50
Ascent: 800
Descent: 200
InvalidEm: 0
sfntRevision: 0x00010000
LayerCount: 2
Layer: 0 0 "+gMxmbwAA" 1
Layer: 1 0 "+Uk1mbwAA" 0
XUID: [1021 689 -331905675 8390]
StyleMap: 0x0021
FSType: 0
OS2Version: 4
OS2_WeightWidthSlopeOnly: 0
OS2_UseTypoMetrics: 0
CreationTime: 1737275056
ModificationTime: 1737302971
PfmFamily: 81
TTFWeight: 700
TTFWidth: 5
LineGap: 0
VLineGap: 0
Panose: 0 0 0 0 0 0 0 0 0 0
OS2TypoAscent: 900
OS2TypoAOffset: 0
OS2TypoDescent: -200
OS2TypoDOffset: 0
OS2TypoLinegap: 0
OS2WinAscent: 900
OS2WinAOffset: 0
OS2WinDescent: 200
OS2WinDOffset: 0
HheadAscent: 900
HheadAOffset: 0
HheadDescent: -200
HheadDOffset: 0
OS2SubXSize: 650
OS2SubYSize: 600
OS2SubXOff: -13
OS2SubYOff: -75
OS2SupXSize: 650
OS2SupYSize: 600
OS2SupXOff: 59
OS2SupYOff: 350
OS2StrikeYSize: 50
OS2StrikeYPos: 324
OS2CapHeight: 700
OS2XHeight: 540
OS2Vendor: '    '
OS2CodePages: 4000009b.00000000
OS2UnicodeRanges: 800000a7.100039f3.00040020.00000000
Lookup: 1 0 0 "'cv01' +W1d7JlPYT1MA-01 +Z+VifgAA 0" { "'cv01' +W1d7JlPYT1MA-01 +Z+VifgAA 0+Zv9O44ho"  } ['cv01' ('DFLT' <'dflt' > ) ]
Lookup: 1 0 0 "'cv02' +W1d7JlPYT1MA-02 +Z+VifgAA 1" { "'cv02' +W1d7JlPYT1MA-02 +Z+VifgAA 1+Zv9O44ho"  } ['cv02' ('DFLT' <'dflt' > ) ]
Lookup: 1 0 0 "'cv03' +W1d7JlPYT1MA-03 +Z+VifgAA 2" { "'cv03' +W1d7JlPYT1MA-03 +Z+VifgAA 2+Zv9O44ho"  } ['cv03' ('DFLT' <'dflt' > ) ]
Lookup: 1 0 0 "'cv04' +W1d7JlPYT1MA-04 +Z+VifgAA 3" { "'cv04' +W1d7JlPYT1MA-04 +Z+VifgAA 3+Zv9O44ho"  } ['cv04' ('DFLT' <'dflt' > ) ]
Lookup: 1 0 0 "'cv05' +W1d7JlPYT1MA-05 +Z+VifgAA 4" { "'cv05' +W1d7JlPYT1MA-05 +Z+VifgAA 4+Zv9O44ho"  } ['cv05' ('DFLT' <'dflt' > ) ]

StartChar: .notdef
Encoding: 65536 -1 0
Width: 600
GlyphClass: 1
Flags: W
LayerCount: 2
Fore
SplineSet
222 38 m 1
 222 74 l 1
 296 203 l 1
 348 203 l 1
 348 71 l 1
 383 71 l 1
 383 38 l 1
 348 38 l 1
 348 -7 l 1
 312 -7 l 1
 312 38 l 1
 222 38 l 1
311 170 m 1
 255 71 l 1
 312 71 l 1
 312 170 l 1
 311 170 l 1
300 242 m 0
 253 242 225 282 225 350 c 0
 225 418 253 458 300 458 c 0
 347 458 375 418 375 350 c 0
 375 282 347 242 300 242 c 0
262 327 m 1
 330 402 l 1
 323 417 314 425 300 425 c 0
 275 425 261 398 261 350 c 0
 261 342 261 334 262 327 c 1
300 275 m 0
 325 275 339 302 339 350 c 0
 339 358 339 366 338 373 c 1
 270 298 l 1
 277 283 287 275 300 275 c 0
222 543 m 1
 222 579 l 1
 296 708 l 1
 348 708 l 1
 348 576 l 1
 383 576 l 1
 383 543 l 1
 348 543 l 1
 348 498 l 1
 312 498 l 1
 312 543 l 1
 222 543 l 1
311 675 m 1
 255 576 l 1
 312 576 l 1
 312 675 l 1
 311 675 l 1
67 -45 m 1
 533 -45 l 1
 533 745 l 1
 67 745 l 1
 67 -45 l 1
30 -80 m 1
 30 780 l 1
 570 780 l 1
 570 -80 l 1
 30 -80 l 1
EndSplineSet
Validated: 1
EndChar

StartChar: A
Encoding: 65 65 4
Width: 600
GlyphClass: 1
Flags: W
LayerCount: 2
Fore
SplineSet
94 0 m 1
 -27 0 l 1
 280 700 l 1
 454 700 l 1
 527 0 l 1
 404 0 l 1
 387 174 l 1
 169 174 l 1
 94 0 l 1
218 284 m 1
 376 284 l 1
 347 575 l 1
 343 575 l 1
 218 284 l 1
EndSplineSet
Validated: 1
Substitution2: "+U1VOAGb/Y2IA +Z+VifgAA 72+Zv9O44ho" A.rightS
Substitution2: "+U1VOAGb/Y2IA +Z+VifgAA 71+Zv9O44ho" A.rightM
Substitution2: "+U1VOAGb/Y2IA +Z+VifgAA 70+Zv9O44ho" A.rightL
Substitution2: "+U1VOAGb/Y2IA +Z+VifgAA 69+Zv9O44ho" A.leftS
Substitution2: "+U1VOAGb/Y2IA +Z+VifgAA 68+Zv9O44ho" A.leftM
Substitution2: "+U1VOAGb/Y2IA +Z+VifgAA 67+Zv9O44ho" A.leftL
Substitution2: "+U1VOAGb/Y2IA +Z+VifgAA 66+Zv9O44ho" A.rightS
Substitution2: "+U1VOAGb/Y2IA +Z+VifgAA 65+Zv9O44ho" A.rightM
Substitution2: "+U1VOAGb/Y2IA +Z+VifgAA 64+Zv9O44ho" A.rightS
Substitution2: "+U1VOAGb/Y2IA +Z+VifgAA 63+Zv9O44ho" A.rightM
Substitution2: "+U1VOAGb/Y2IA +Z+VifgAA 62+Zv9O44ho" A.rightL
Substitution2: "+U1VOAGb/Y2IA +Z+VifgAA 61+Zv9O44ho" A.leftS
Substitution2: "+U1VOAGb/Y2IA +Z+VifgAA 60+Zv9O44ho" A.leftM
Substitution2: "+U1VOAGb/Y2IA +Z+VifgAA 59+Zv9O44ho" A.leftL
EndChar

StartChar: A.leftL
Encoding: 65537 -1 5
Width: 600
GlyphClass: 1
Flags: W
LayerCount: 2
Fore
SplineSet
52 0 m 1
 -69 0 l 1
 238 700 l 1
 412 700 l 1
 485 0 l 1
 362 0 l 1
 345 174 l 1
 127 174 l 1
 52 0 l 1
176 284 m 1
 334 284 l 1
 305 575 l 1
 301 575 l 1
 176 284 l 1
EndSplineSet
Validated: 1
EndChar

StartChar: A.leftM
Encoding: 65538 -1 6
Width: 600
GlyphClass: 1
Flags: W
LayerCount: 2
Fore
SplineSet
67 0 m 1
 -54 0 l 1
 253 700 l 1
 427 700 l 1
 500 0 l 1
 377 0 l 1
 360 174 l 1
 142 174 l 1
 67 0 l 1
191 284 m 1
 349 284 l 1
 320 575 l 1
 316 575 l 1
 191 284 l 1
EndSplineSet
Validated: 1
EndChar

StartChar: A.leftS
Encoding: 65539 -1 7
Width: 600
GlyphClass: 1
Flags: W
LayerCount: 2
Fore
SplineSet
82 0 m 1
 -39 0 l 1
 268 700 l 1
 442 700 l 1
 515 0 l 1
 392 0 l 1
 375 174 l 1
 157 174 l 1
 82 0 l 1
206 284 m 1
 364 284 l 1
 335 575 l 1
 331 575 l 1
 206 284 l 1
EndSplineSet
Validated: 1
EndChar

StartChar: A.rightL
Encoding: 65540 -1 8
Width: 600
GlyphClass: 1
Flags: W
LayerCount: 2
Fore
SplineSet
136 0 m 1
 15 0 l 1
 322 700 l 1
 496 700 l 1
 569 0 l 1
 446 0 l 1
 429 174 l 1
 211 174 l 1
 136 0 l 1
260 284 m 1
 418 284 l 1
 389 575 l 1
 385 575 l 1
 260 284 l 1
EndSplineSet
Validated: 1
EndChar

StartChar: A.rightM
Encoding: 65541 -1 9
Width: 600
GlyphClass: 1
Flags: W
LayerCount: 2
Fore
SplineSet
121 0 m 1
 0 0 l 1
 307 700 l 1
 481 700 l 1
 554 0 l 1
 431 0 l 1
 414 174 l 1
 196 174 l 1
 121 0 l 1
245 284 m 1
 403 284 l 1
 374 575 l 1
 370 575 l 1
 245 284 l 1
EndSplineSet
Validated: 1
EndChar

StartChar: A.rightS
Encoding: 65542 -1 10
Width: 600
GlyphClass: 1
Flags: W
LayerCount: 2
Fore
SplineSet
106 0 m 1
 -15 0 l 1
 292 700 l 1
 466 700 l 1
 539 0 l 1
 416 0 l 1
 399 174 l 1
 181 174 l 1
 106 0 l 1
230 284 m 1
 388 284 l 1
 359 575 l 1
 355 575 l 1
 230 284 l 1
EndSplineSet
Validated: 1
EndChar

StartChar: AE
Encoding: 198 198 11
Width: 600
GlyphClass: 1
Flags: W
LayerCount: 2
Fore
SplineSet
-50 0 m 1
 247 700 l 1
 647 700 l 1
 628 590 l 1
 444 590 l 1
 416 418 l 1
 566 418 l 1
 547 308 l 1
 397 308 l 1
 364 110 l 1
 548 110 l 1
 530 0 l 1
 226 0 l 1
 258 193 l 1
 151 193 l 1
 69 0 l 1
 -50 0 l 1
197 303 m 1
 276 303 l 1
 324 590 l 1
 319 590 l 1
 197 303 l 1
EndSplineSet
Validated: 1
EndChar

StartChar: AEacute
Encoding: 508 508 12
Width: 600
GlyphClass: 1
Flags: W
LayerCount: 2
Fore
SplineSet
-50 0 m 1
 247 700 l 1
 647 700 l 1
 628 590 l 1
 444 590 l 1
 416 418 l 1
 566 418 l 1
 547 308 l 1
 397 308 l 1
 364 110 l 1
 548 110 l 1
 530 0 l 1
 226 0 l 1
 258 193 l 1
 151 193 l 1
 69 0 l 1
 -50 0 l 1
197 303 m 1
 276 303 l 1
 324 590 l 1
 319 590 l 1
 197 303 l 1
637 980 m 1
 474 780 l 1
 374 780 l 1
 487 980 l 1
 637 980 l 1
EndSplineSet
Validated: 1
EndChar

StartChar: Aacute
Encoding: 193 193 13
Width: 600
GlyphClass: 1
Flags: W
LayerCount: 2
Fore
SplineSet
94 0 m 1
 -27 0 l 1
 280 700 l 1
 454 700 l 1
 527 0 l 1
 404 0 l 1
 387 174 l 1
 169 174 l 1
 94 0 l 1
218 284 m 1
 376 284 l 1
 347 575 l 1
 343 575 l 1
 218 284 l 1
568 980 m 1
 405 780 l 1
 305 780 l 1
 418 980 l 1
 568 980 l 1
EndSplineSet
Validated: 1
EndChar

StartChar: Abreve
Encoding: 258 258 14
Width: 600
GlyphClass: 1
Flags: W
LayerCount: 2
Fore
SplineSet
94 0 m 1
 -27 0 l 1
 280 700 l 1
 454 700 l 1
 527 0 l 1
 404 0 l 1
 387 174 l 1
 169 174 l 1
 94 0 l 1
218 284 m 1
 376 284 l 1
 347 575 l 1
 343 575 l 1
 218 284 l 1
350 932 m 1
 347 892 365 866 395 866 c 0
 425 866 451 892 462 932 c 1
 557 932 l 1
 542 841 468 776 380 776 c 0
 292 776 240 841 255 932 c 1
 350 932 l 1
EndSplineSet
Validated: 33
EndChar

StartChar: Acircumflex
Encoding: 194 194 15
Width: 600
GlyphClass: 1
Flags: W
LayerCount: 2
Fore
SplineSet
94 0 m 1
 -27 0 l 1
 280 700 l 1
 454 700 l 1
 527 0 l 1
 404 0 l 1
 387 174 l 1
 169 174 l 1
 94 0 l 1
218 284 m 1
 376 284 l 1
 347 575 l 1
 343 575 l 1
 218 284 l 1
205 771 m 1
 357 971 l 1
 467 971 l 1
 553 771 l 1
 458 771 l 1
 396 873 l 1
 300 771 l 1
 205 771 l 1
EndSplineSet
Validated: 1
EndChar

StartChar: Adieresis
Encoding: 196 196 16
Width: 600
GlyphClass: 1
Flags: W
LayerCount: 2
Fore
SplineSet
94 0 m 1
 -27 0 l 1
 280 700 l 1
 454 700 l 1
 527 0 l 1
 404 0 l 1
 387 174 l 1
 169 174 l 1
 94 0 l 1
218 284 m 1
 376 284 l 1
 347 575 l 1
 343 575 l 1
 218 284 l 1
200 859 m 0
 208 906 251 943 297 943 c 0
 344 943 375 906 367 859 c 0
 359 813 317 776 270 776 c 0
 224 776 192 813 200 859 c 0
420 859 m 0
 428 906 471 943 517 943 c 0
 564 943 595 906 587 859 c 0
 579 813 537 776 490 776 c 0
 444 776 412 813 420 859 c 0
EndSplineSet
Validated: 33
Substitution2: "'cv03' +W1d7JlPYT1MA-03 +Z+VifgAA 2+Zv9O44ho" Adieresis.square
EndChar

StartChar: Adieresis.square
Encoding: 65543 -1 17
Width: 600
GlyphClass: 1
Flags: W
LayerCount: 2
Fore
SplineSet
94 0 m 1
 -27 0 l 1
 280 700 l 1
 454 700 l 1
 527 0 l 1
 404 0 l 1
 387 174 l 1
 169 174 l 1
 94 0 l 1
218 284 m 1
 376 284 l 1
 347 575 l 1
 343 575 l 1
 218 284 l 1
197 775 m 1
 221 920 l 1
 366 920 l 1
 342 775 l 1
 197 775 l 1
417 775 m 1
 441 920 l 1
 586 920 l 1
 562 775 l 1
 417 775 l 1
EndSplineSet
Validated: 1
EndChar

StartChar: Agrave
Encoding: 192 192 18
Width: 600
GlyphClass: 1
Flags: W
LayerCount: 2
Fore
SplineSet
94 0 m 1
 -27 0 l 1
 280 700 l 1
 454 700 l 1
 527 0 l 1
 404 0 l 1
 387 174 l 1
 169 174 l 1
 94 0 l 1
218 284 m 1
 376 284 l 1
 347 575 l 1
 343 575 l 1
 218 284 l 1
455 780 m 1
 355 780 l 1
 260 980 l 1
 410 980 l 1
 455 780 l 1
EndSplineSet
Validated: 1
EndChar

StartChar: Alpha
Encoding: 913 913 19
Width: 600
GlyphClass: 1
Flags: W
LayerCount: 2
Fore
SplineSet
94 0 m 1
 -27 0 l 1
 280 700 l 1
 454 700 l 1
 527 0 l 1
 404 0 l 1
 387 174 l 1
 169 174 l 1
 94 0 l 1
218 284 m 1
 376 284 l 1
 347 575 l 1
 343 575 l 1
 218 284 l 1
EndSplineSet
Validated: 1
EndChar

StartChar: Alphatonos
Encoding: 902 902 20
Width: 600
GlyphClass: 1
Flags: W
LayerCount: 2
Fore
SplineSet
94 0 m 1
 -27 0 l 1
 280 700 l 1
 454 700 l 1
 527 0 l 1
 404 0 l 1
 387 174 l 1
 169 174 l 1
 94 0 l 1
218 284 m 1
 376 284 l 1
 347 575 l 1
 343 575 l 1
 218 284 l 1
283 780 m 1
 167 560 l 1
 77 560 l 1
 143 780 l 1
 283 780 l 1
EndSplineSet
Validated: 1
EndChar

StartChar: Amacron
Encoding: 256 256 21
Width: 600
GlyphClass: 1
Flags: W
LayerCount: 2
Fore
SplineSet
94 0 m 1
 -27 0 l 1
 280 700 l 1
 454 700 l 1
 527 0 l 1
 404 0 l 1
 387 174 l 1
 169 174 l 1
 94 0 l 1
218 284 m 1
 376 284 l 1
 347 575 l 1
 343 575 l 1
 218 284 l 1
223 800 m 1
 240 900 l 1
 560 900 l 1
 543 800 l 1
 223 800 l 1
EndSplineSet
Validated: 1
EndChar

StartChar: Aogonek
Encoding: 260 260 22
Width: 600
GlyphClass: 1
Flags: W
LayerCount: 2
Fore
SplineSet
94 0 m 1
 -27 0 l 1
 280 700 l 1
 454 700 l 1
 527 0 l 1
 460 0 l 1
 402 -24 374 -48 369 -76 c 0
 365 -103 384 -120 416 -120 c 0
 424 -120 434 -119 441 -117 c 1
 427 -200 l 1
 414 -203 398 -205 381 -205 c 0
 302 -205 255 -161 266 -97 c 0
 275 -43 322 2 401 34 c 1
 387 174 l 1
 169 174 l 1
 94 0 l 1
218 284 m 1
 376 284 l 1
 347 575 l 1
 343 575 l 1
 218 284 l 1
EndSplineSet
Validated: 33
EndChar

StartChar: Aring
Encoding: 197 197 23
Width: 600
GlyphClass: 1
Flags: W
LayerCount: 2
Fore
SplineSet
94 0 m 1
 -27 0 l 1
 280 700 l 1
 454 700 l 1
 527 0 l 1
 404 0 l 1
 387 174 l 1
 169 174 l 1
 94 0 l 1
218 284 m 1
 376 284 l 1
 347 575 l 1
 343 575 l 1
 218 284 l 1
265 887 m 0
 277 960 343 1014 419 1014 c 0
 495 1014 543 960 531 888 c 0
 519 814 450 756 376 756 c 0
 302 756 253 814 265 887 c 0
389 832 m 0
 419 832 445 855 450 885 c 0
 455 915 437 938 407 938 c 0
 377 938 351 915 346 885 c 0
 341 855 359 832 389 832 c 0
EndSplineSet
Validated: 33
EndChar

StartChar: Aringacute
Encoding: 506 506 24
Width: 600
GlyphClass: 1
Flags: W
LayerCount: 2
Fore
SplineSet
94 0 m 1
 -27 0 l 1
 263 662 l 1
 242 686 232 720 238 757 c 0
 247 813 288 858 341 876 c 1
 417 1010 l 1
 567 1010 l 1
 453 870 l 1
 492 849 512 808 504 758 c 0
 499 724 481 694 457 671 c 1
 527 0 l 1
 404 0 l 1
 387 174 l 1
 169 174 l 1
 94 0 l 1
218 284 m 1
 376 284 l 1
 347 575 l 1
 343 575 l 1
 218 284 l 1
362 702 m 0
 392 702 418 725 423 755 c 0
 428 785 410 808 380 808 c 0
 350 808 324 785 319 755 c 0
 314 725 332 702 362 702 c 0
EndSplineSet
Validated: 33
EndChar

StartChar: Atilde
Encoding: 195 195 25
Width: 600
GlyphClass: 1
Flags: W
LayerCount: 2
Fore
SplineSet
94 0 m 1
 -27 0 l 1
 280 700 l 1
 454 700 l 1
 527 0 l 1
 404 0 l 1
 387 174 l 1
 169 174 l 1
 94 0 l 1
218 284 m 1
 376 284 l 1
 347 575 l 1
 343 575 l 1
 218 284 l 1
200 799 m 1
 205 832 l 2
 219 914 270 963 343 963 c 0
 438 963 440 878 465 878 c 0
 475 878 481 892 488 928 c 2
 492 949 l 1
 592 949 l 1
 587 916 l 2
 573 834 522 785 449 785 c 0
 354 785 354 870 329 870 c 0
 319 870 311 855 304 820 c 2
 300 799 l 1
 200 799 l 1
EndSplineSet
Validated: 1
EndChar

StartChar: B
Encoding: 66 66 26
Width: 600
GlyphClass: 1
Flags: W
LayerCount: 2
Fore
SplineSet
35 0 m 1
 152 700 l 1
 392 700 l 2
 507 700 578 621 560 514 c 0
 550 452 512 400 459 369 c 1
 458 365 l 1
 514 334 541 275 529 200 c 0
 510 85 407 0 285 0 c 2
 35 0 l 1
230 418 m 1
 345 418 l 2
 391 418 430 454 438 504 c 0
 446 554 419 590 373 590 c 2
 258 590 l 1
 230 418 l 1
178 110 m 1
 303 110 l 2
 354 110 396 151 406 209 c 0
 416 267 387 308 336 308 c 2
 211 308 l 1
 178 110 l 1
EndSplineSet
Validated: 33
Substitution2: "+U1VOAGb/Y2IA +Z+VifgAA 72+Zv9O44ho" B.rightS
Substitution2: "+U1VOAGb/Y2IA +Z+VifgAA 71+Zv9O44ho" B.rightM
Substitution2: "+U1VOAGb/Y2IA +Z+VifgAA 70+Zv9O44ho" B.rightL
Substitution2: "+U1VOAGb/Y2IA +Z+VifgAA 69+Zv9O44ho" B.leftS
Substitution2: "+U1VOAGb/Y2IA +Z+VifgAA 68+Zv9O44ho" B.leftM
Substitution2: "+U1VOAGb/Y2IA +Z+VifgAA 67+Zv9O44ho" B.leftL
Substitution2: "+U1VOAGb/Y2IA +Z+VifgAA 66+Zv9O44ho" B.rightS
Substitution2: "+U1VOAGb/Y2IA +Z+VifgAA 65+Zv9O44ho" B.rightM
Substitution2: "+U1VOAGb/Y2IA +Z+VifgAA 64+Zv9O44ho" B.rightS
Substitution2: "+U1VOAGb/Y2IA +Z+VifgAA 63+Zv9O44ho" B.rightM
Substitution2: "+U1VOAGb/Y2IA +Z+VifgAA 62+Zv9O44ho" B.rightL
Substitution2: "+U1VOAGb/Y2IA +Z+VifgAA 61+Zv9O44ho" B.leftS
Substitution2: "+U1VOAGb/Y2IA +Z+VifgAA 60+Zv9O44ho" B.leftM
Substitution2: "+U1VOAGb/Y2IA +Z+VifgAA 59+Zv9O44ho" B.leftL
EndChar

StartChar: B.leftL
Encoding: 65544 -1 27
Width: 600
GlyphClass: 1
Flags: W
LayerCount: 2
Fore
SplineSet
-9 0 m 1
 108 700 l 1
 348 700 l 2
 463 700 534 621 516 514 c 0
 506 452 468 400 415 369 c 1
 414 365 l 1
 470 334 497 275 485 200 c 0
 466 85 363 0 241 0 c 2
 -9 0 l 1
186 418 m 1
 301 418 l 2
 347 418 386 454 394 504 c 0
 402 554 375 590 329 590 c 2
 214 590 l 1
 186 418 l 1
134 110 m 1
 259 110 l 2
 310 110 352 151 362 209 c 0
 372 267 343 308 292 308 c 2
 167 308 l 1
 134 110 l 1
EndSplineSet
Validated: 33
EndChar

StartChar: B.leftM
Encoding: 65545 -1 28
Width: 600
GlyphClass: 1
Flags: W
LayerCount: 2
Fore
SplineSet
5 0 m 1
 122 700 l 1
 362 700 l 2
 477 700 548 621 530 514 c 0
 520 452 482 400 429 369 c 1
 428 365 l 1
 484 334 511 275 499 200 c 0
 480 85 377 0 255 0 c 2
 5 0 l 1
200 418 m 1
 315 418 l 2
 361 418 400 454 408 504 c 0
 416 554 389 590 343 590 c 2
 228 590 l 1
 200 418 l 1
148 110 m 1
 273 110 l 2
 324 110 366 151 376 209 c 0
 386 267 357 308 306 308 c 2
 181 308 l 1
 148 110 l 1
EndSplineSet
Validated: 33
EndChar

StartChar: B.leftS
Encoding: 65546 -1 29
Width: 600
GlyphClass: 1
Flags: W
LayerCount: 2
Fore
SplineSet
17 0 m 1
 134 700 l 1
 374 700 l 2
 489 700 560 621 542 514 c 0
 532 452 494 400 441 369 c 1
 440 365 l 1
 496 334 523 275 511 200 c 0
 492 85 389 0 267 0 c 2
 17 0 l 1
212 418 m 1
 327 418 l 2
 373 418 412 454 420 504 c 0
 428 554 401 590 355 590 c 2
 240 590 l 1
 212 418 l 1
160 110 m 1
 285 110 l 2
 336 110 378 151 388 209 c 0
 398 267 369 308 318 308 c 2
 193 308 l 1
 160 110 l 1
EndSplineSet
Validated: 33
EndChar

StartChar: B.rightL
Encoding: 65547 -1 30
Width: 600
GlyphClass: 1
Flags: W
LayerCount: 2
Fore
SplineSet
79 0 m 1
 196 700 l 1
 436 700 l 2
 551 700 622 621 604 514 c 0
 594 452 556 400 503 369 c 1
 502 365 l 1
 558 334 585 275 573 200 c 0
 554 85 451 0 329 0 c 2
 79 0 l 1
274 418 m 1
 389 418 l 2
 435 418 474 454 482 504 c 0
 490 554 463 590 417 590 c 2
 302 590 l 1
 274 418 l 1
222 110 m 1
 347 110 l 2
 398 110 440 151 450 209 c 0
 460 267 431 308 380 308 c 2
 255 308 l 1
 222 110 l 1
EndSplineSet
Validated: 33
EndChar

StartChar: B.rightM
Encoding: 65548 -1 31
Width: 600
GlyphClass: 1
Flags: W
LayerCount: 2
Fore
SplineSet
65 0 m 1
 182 700 l 1
 422 700 l 2
 537 700 608 621 590 514 c 0
 580 452 542 400 489 369 c 1
 488 365 l 1
 544 334 571 275 559 200 c 0
 540 85 437 0 315 0 c 2
 65 0 l 1
260 418 m 1
 375 418 l 2
 421 418 460 454 468 504 c 0
 476 554 449 590 403 590 c 2
 288 590 l 1
 260 418 l 1
208 110 m 1
 333 110 l 2
 384 110 426 151 436 209 c 0
 446 267 417 308 366 308 c 2
 241 308 l 1
 208 110 l 1
EndSplineSet
Validated: 33
EndChar

StartChar: B.rightS
Encoding: 65549 -1 32
Width: 600
GlyphClass: 1
Flags: W
LayerCount: 2
Fore
SplineSet
47 0 m 1
 164 700 l 1
 404 700 l 2
 519 700 590 621 572 514 c 0
 562 452 524 400 471 369 c 1
 470 365 l 1
 526 334 553 275 541 200 c 0
 522 85 419 0 297 0 c 2
 47 0 l 1
242 418 m 1
 357 418 l 2
 403 418 442 454 450 504 c 0
 458 554 431 590 385 590 c 2
 270 590 l 1
 242 418 l 1
190 110 m 1
 315 110 l 2
 366 110 408 151 418 209 c 0
 428 267 399 308 348 308 c 2
 223 308 l 1
 190 110 l 1
EndSplineSet
Validated: 33
EndChar

StartChar: Beta
Encoding: 914 914 33
Width: 600
GlyphClass: 1
Flags: W
LayerCount: 2
Fore
SplineSet
35 0 m 1
 152 700 l 1
 392 700 l 2
 507 700 578 621 560 514 c 0
 550 452 512 400 459 369 c 1
 458 365 l 1
 514 334 541 275 529 200 c 0
 510 85 407 0 285 0 c 2
 35 0 l 1
230 418 m 1
 345 418 l 2
 391 418 430 454 438 504 c 0
 446 554 419 590 373 590 c 2
 258 590 l 1
 230 418 l 1
178 110 m 1
 303 110 l 2
 354 110 396 151 406 209 c 0
 416 267 387 308 336 308 c 2
 211 308 l 1
 178 110 l 1
EndSplineSet
Validated: 33
EndChar

StartChar: C
Encoding: 67 67 34
Width: 600
GlyphClass: 1
Flags: W
LayerCount: 2
Fore
SplineSet
417 190 m 1
 538 190 l 1
 507 73 397 -10 275 -10 c 0
 113 -10 26 137 61 350 c 0
 97 563 234 710 394 710 c 0
 511 710 590 632 588 520 c 1
 467 520 l 1
 462 566 425 595 375 595 c 0
 285 595 211 499 186 350 c 0
 161 200 204 105 297 105 c 0
 352 105 398 138 417 190 c 1
EndSplineSet
Validated: 33
Substitution2: "+U1VOAGb/Y2IA +Z+VifgAA 72+Zv9O44ho" C.rightS
Substitution2: "+U1VOAGb/Y2IA +Z+VifgAA 71+Zv9O44ho" C.rightM
Substitution2: "+U1VOAGb/Y2IA +Z+VifgAA 70+Zv9O44ho" C.rightL
Substitution2: "+U1VOAGb/Y2IA +Z+VifgAA 69+Zv9O44ho" C.leftS
Substitution2: "+U1VOAGb/Y2IA +Z+VifgAA 68+Zv9O44ho" C.leftM
Substitution2: "+U1VOAGb/Y2IA +Z+VifgAA 67+Zv9O44ho" C.leftL
Substitution2: "+U1VOAGb/Y2IA +Z+VifgAA 66+Zv9O44ho" C.rightS
Substitution2: "+U1VOAGb/Y2IA +Z+VifgAA 65+Zv9O44ho" C.rightM
Substitution2: "+U1VOAGb/Y2IA +Z+VifgAA 64+Zv9O44ho" C.rightS
Substitution2: "+U1VOAGb/Y2IA +Z+VifgAA 63+Zv9O44ho" C.rightM
Substitution2: "+U1VOAGb/Y2IA +Z+VifgAA 62+Zv9O44ho" C.rightL
Substitution2: "+U1VOAGb/Y2IA +Z+VifgAA 61+Zv9O44ho" C.leftS
Substitution2: "+U1VOAGb/Y2IA +Z+VifgAA 60+Zv9O44ho" C.leftM
Substitution2: "+U1VOAGb/Y2IA +Z+VifgAA 59+Zv9O44ho" C.leftL
EndChar

StartChar: C.leftL
Encoding: 65550 -1 35
Width: 600
GlyphClass: 1
Flags: W
LayerCount: 2
Fore
SplineSet
373 190 m 1
 494 190 l 1
 463 73 353 -10 231 -10 c 0
 69 -10 -18 137 17 350 c 0
 53 563 190 710 350 710 c 0
 467 710 546 632 544 520 c 1
 423 520 l 1
 418 566 381 595 331 595 c 0
 241 595 167 499 142 350 c 0
 117 200 160 105 253 105 c 0
 308 105 354 138 373 190 c 1
EndSplineSet
Validated: 33
EndChar

StartChar: C.leftM
Encoding: 65551 -1 36
Width: 600
GlyphClass: 1
Flags: W
LayerCount: 2
Fore
SplineSet
387 190 m 1
 508 190 l 1
 477 73 367 -10 245 -10 c 0
 83 -10 -4 137 31 350 c 0
 67 563 204 710 364 710 c 0
 481 710 560 632 558 520 c 1
 437 520 l 1
 432 566 395 595 345 595 c 0
 255 595 181 499 156 350 c 0
 131 200 174 105 267 105 c 0
 322 105 368 138 387 190 c 1
EndSplineSet
Validated: 33
EndChar

StartChar: C.leftS
Encoding: 65552 -1 37
Width: 600
GlyphClass: 1
Flags: W
LayerCount: 2
Fore
SplineSet
405 190 m 1
 526 190 l 1
 495 73 385 -10 263 -10 c 0
 101 -10 14 137 49 350 c 0
 85 563 222 710 382 710 c 0
 499 710 578 632 576 520 c 1
 455 520 l 1
 450 566 413 595 363 595 c 0
 273 595 199 499 174 350 c 0
 149 200 192 105 285 105 c 0
 340 105 386 138 405 190 c 1
EndSplineSet
Validated: 33
EndChar

StartChar: C.rightL
Encoding: 65553 -1 38
Width: 600
GlyphClass: 1
Flags: W
LayerCount: 2
Fore
SplineSet
461 190 m 1
 582 190 l 1
 551 73 441 -10 319 -10 c 0
 157 -10 70 137 105 350 c 0
 141 563 278 710 438 710 c 0
 555 710 634 632 632 520 c 1
 511 520 l 1
 506 566 469 595 419 595 c 0
 329 595 255 499 230 350 c 0
 205 200 248 105 341 105 c 0
 396 105 442 138 461 190 c 1
EndSplineSet
Validated: 33
EndChar

StartChar: C.rightM
Encoding: 65554 -1 39
Width: 600
GlyphClass: 1
Flags: W
LayerCount: 2
Fore
SplineSet
447 190 m 1
 568 190 l 1
 537 73 427 -10 305 -10 c 0
 143 -10 56 137 91 350 c 0
 127 563 264 710 424 710 c 0
 541 710 620 632 618 520 c 1
 497 520 l 1
 492 566 455 595 405 595 c 0
 315 595 241 499 216 350 c 0
 191 200 234 105 327 105 c 0
 382 105 428 138 447 190 c 1
EndSplineSet
Validated: 33
EndChar

StartChar: C.rightS
Encoding: 65555 -1 40
Width: 600
GlyphClass: 1
Flags: W
LayerCount: 2
Fore
SplineSet
435 190 m 1
 556 190 l 1
 525 73 415 -10 293 -10 c 0
 131 -10 44 137 79 350 c 0
 115 563 252 710 412 710 c 0
 529 710 608 632 606 520 c 1
 485 520 l 1
 480 566 443 595 393 595 c 0
 303 595 229 499 204 350 c 0
 179 200 222 105 315 105 c 0
 370 105 416 138 435 190 c 1
EndSplineSet
Validated: 33
EndChar

StartChar: Cacute
Encoding: 262 262 41
Width: 600
GlyphClass: 1
Flags: W
LayerCount: 2
Fore
SplineSet
417 190 m 1
 538 190 l 1
 507 73 397 -10 275 -10 c 0
 113 -10 26 137 61 350 c 0
 97 563 234 710 394 710 c 0
 511 710 590 632 588 520 c 1
 467 520 l 1
 462 566 425 595 375 595 c 0
 285 595 211 499 186 350 c 0
 161 200 204 105 297 105 c 0
 352 105 398 138 417 190 c 1
587 980 m 1
 424 780 l 1
 324 780 l 1
 437 980 l 1
 587 980 l 1
EndSplineSet
Validated: 33
EndChar

StartChar: Ccaron
Encoding: 268 268 42
Width: 600
GlyphClass: 1
Flags: W
LayerCount: 2
Fore
SplineSet
417 190 m 1
 538 190 l 1
 507 73 397 -10 275 -10 c 0
 113 -10 26 137 61 350 c 0
 97 563 234 710 394 710 c 0
 511 710 590 632 588 520 c 1
 467 520 l 1
 462 566 425 595 375 595 c 0
 285 595 211 499 186 350 c 0
 161 200 204 105 297 105 c 0
 352 105 398 138 417 190 c 1
343 771 m 1
 257 971 l 1
 352 971 l 1
 414 869 l 1
 510 971 l 1
 605 971 l 1
 453 771 l 1
 343 771 l 1
EndSplineSet
Validated: 33
EndChar

StartChar: Ccedilla
Encoding: 199 199 43
Width: 600
GlyphClass: 1
Flags: W
LayerCount: 2
Fore
SplineSet
209 -165 m 1
 207 -191 225 -209 254 -209 c 0
 284 -209 307 -190 312 -163 c 0
 317 -135 298 -116 269 -116 c 0
 255 -116 243 -120 233 -128 c 1
 171 -113 l 1
 210 -1 l 1
 90 34 31 168 61 350 c 0
 97 563 234 710 394 710 c 0
 511 710 590 632 588 520 c 1
 467 520 l 1
 462 566 425 595 375 595 c 0
 285 595 211 499 186 350 c 0
 161 200 204 105 297 105 c 0
 352 105 398 138 417 190 c 1
 538 190 l 1
 509 82 414 3 304 -8 c 1
 289 -53 l 1
 362 -43 413 -94 402 -163 c 0
 390 -232 320 -285 240 -285 c 0
 160 -285 109 -233 119 -165 c 1
 209 -165 l 1
EndSplineSet
Validated: 33
EndChar

StartChar: Ccircumflex
Encoding: 264 264 44
Width: 600
GlyphClass: 1
Flags: W
LayerCount: 2
Fore
SplineSet
417 190 m 1
 538 190 l 1
 507 73 397 -10 275 -10 c 0
 113 -10 26 137 61 350 c 0
 97 563 234 710 394 710 c 0
 511 710 590 632 588 520 c 1
 467 520 l 1
 462 566 425 595 375 595 c 0
 285 595 211 499 186 350 c 0
 161 200 204 105 297 105 c 0
 352 105 398 138 417 190 c 1
224 771 m 1
 376 971 l 1
 486 971 l 1
 572 771 l 1
 477 771 l 1
 415 873 l 1
 319 771 l 1
 224 771 l 1
EndSplineSet
Validated: 33
EndChar

StartChar: Cdotaccent
Encoding: 266 266 45
Width: 600
GlyphClass: 1
Flags: W
LayerCount: 2
Fore
SplineSet
417 190 m 1
 538 190 l 1
 507 73 397 -10 275 -10 c 0
 113 -10 26 137 61 350 c 0
 97 563 234 710 394 710 c 0
 511 710 590 632 588 520 c 1
 467 520 l 1
 462 566 425 595 375 595 c 0
 285 595 211 499 186 350 c 0
 161 200 204 105 297 105 c 0
 352 105 398 138 417 190 c 1
322 861 m 0
 331 912 378 952 428 952 c 0
 479 952 513 912 504 861 c 0
 496 811 449 770 398 770 c 0
 348 770 314 811 322 861 c 0
EndSplineSet
Validated: 33
Substitution2: "'cv03' +W1d7JlPYT1MA-03 +Z+VifgAA 2+Zv9O44ho" Cdotaccent.square
EndChar

StartChar: Cdotaccent.square
Encoding: 65556 -1 46
Width: 600
GlyphClass: 1
Flags: W
LayerCount: 2
Fore
SplineSet
417 190 m 1
 538 190 l 1
 507 73 397 -10 275 -10 c 0
 113 -10 26 137 61 350 c 0
 97 563 234 710 394 710 c 0
 511 710 590 632 588 520 c 1
 467 520 l 1
 462 566 425 595 375 595 c 0
 285 595 211 499 186 350 c 0
 161 200 204 105 297 105 c 0
 352 105 398 138 417 190 c 1
321 782 m 1
 347 940 l 1
 505 940 l 1
 479 782 l 1
 321 782 l 1
EndSplineSet
Validated: 33
EndChar

StartChar: Chi
Encoding: 935 935 47
Width: 600
GlyphClass: 1
Flags: W
LayerCount: 2
Fore
SplineSet
-45 0 m 1
 236 365 l 1
 88 700 l 1
 227 700 l 1
 328 470 l 1
 507 700 l 1
 644 700 l 1
 385 367 l 1
 545 0 l 1
 406 0 l 1
 292 261 l 1
 92 0 l 1
 -45 0 l 1
EndSplineSet
Validated: 1
EndChar

StartChar: D
Encoding: 68 68 48
Width: 600
GlyphClass: 1
Flags: W
LayerCount: 2
Fore
SplineSet
23 0 m 1
 140 700 l 1
 345 700 l 2
 517 700 611 558 576 350 c 0
 541 142 400 0 228 0 c 2
 23 0 l 1
166 110 m 1
 246 110 l 2
 347 110 427 203 451 350 c 0
 476 497 427 590 326 590 c 2
 246 590 l 1
 166 110 l 1
EndSplineSet
Validated: 33
Substitution2: "+U1VOAGb/Y2IA +Z+VifgAA 72+Zv9O44ho" D.rightS
Substitution2: "+U1VOAGb/Y2IA +Z+VifgAA 71+Zv9O44ho" D.rightM
Substitution2: "+U1VOAGb/Y2IA +Z+VifgAA 70+Zv9O44ho" D.rightL
Substitution2: "+U1VOAGb/Y2IA +Z+VifgAA 69+Zv9O44ho" D.leftS
Substitution2: "+U1VOAGb/Y2IA +Z+VifgAA 68+Zv9O44ho" D.leftM
Substitution2: "+U1VOAGb/Y2IA +Z+VifgAA 67+Zv9O44ho" D.leftL
Substitution2: "+U1VOAGb/Y2IA +Z+VifgAA 66+Zv9O44ho" D.rightS
Substitution2: "+U1VOAGb/Y2IA +Z+VifgAA 65+Zv9O44ho" D.rightM
Substitution2: "+U1VOAGb/Y2IA +Z+VifgAA 64+Zv9O44ho" D.rightS
Substitution2: "+U1VOAGb/Y2IA +Z+VifgAA 63+Zv9O44ho" D.rightM
Substitution2: "+U1VOAGb/Y2IA +Z+VifgAA 62+Zv9O44ho" D.rightL
Substitution2: "+U1VOAGb/Y2IA +Z+VifgAA 61+Zv9O44ho" D.leftS
Substitution2: "+U1VOAGb/Y2IA +Z+VifgAA 60+Zv9O44ho" D.leftM
Substitution2: "+U1VOAGb/Y2IA +Z+VifgAA 59+Zv9O44ho" D.leftL
EndChar

StartChar: D.leftL
Encoding: 65557 -1 49
Width: 600
GlyphClass: 1
Flags: W
LayerCount: 2
Fore
SplineSet
-21 0 m 1
 96 700 l 1
 301 700 l 2
 473 700 567 558 532 350 c 0
 497 142 356 0 184 0 c 2
 -21 0 l 1
122 110 m 1
 202 110 l 2
 303 110 383 203 407 350 c 0
 432 497 383 590 282 590 c 2
 202 590 l 1
 122 110 l 1
EndSplineSet
Validated: 33
EndChar

StartChar: D.leftM
Encoding: 65558 -1 50
Width: 600
GlyphClass: 1
Flags: W
LayerCount: 2
Fore
SplineSet
-7 0 m 1
 110 700 l 1
 315 700 l 2
 487 700 581 558 546 350 c 0
 511 142 370 0 198 0 c 2
 -7 0 l 1
136 110 m 1
 216 110 l 2
 317 110 397 203 421 350 c 0
 446 497 397 590 296 590 c 2
 216 590 l 1
 136 110 l 1
EndSplineSet
Validated: 33
EndChar

StartChar: D.leftS
Encoding: 65559 -1 51
Width: 600
GlyphClass: 1
Flags: W
LayerCount: 2
Fore
SplineSet
11 0 m 1
 128 700 l 1
 333 700 l 2
 505 700 599 558 564 350 c 0
 529 142 388 0 216 0 c 2
 11 0 l 1
154 110 m 1
 234 110 l 2
 335 110 415 203 439 350 c 0
 464 497 415 590 314 590 c 2
 234 590 l 1
 154 110 l 1
EndSplineSet
Validated: 33
EndChar

StartChar: D.rightL
Encoding: 65560 -1 52
Width: 600
GlyphClass: 1
Flags: W
LayerCount: 2
Fore
SplineSet
67 0 m 1
 184 700 l 1
 389 700 l 2
 561 700 655 558 620 350 c 0
 585 142 444 0 272 0 c 2
 67 0 l 1
210 110 m 1
 290 110 l 2
 391 110 471 203 495 350 c 0
 520 497 471 590 370 590 c 2
 290 590 l 1
 210 110 l 1
EndSplineSet
Validated: 33
EndChar

StartChar: D.rightM
Encoding: 65561 -1 53
Width: 600
GlyphClass: 1
Flags: W
LayerCount: 2
Fore
SplineSet
53 0 m 1
 170 700 l 1
 375 700 l 2
 547 700 641 558 606 350 c 0
 571 142 430 0 258 0 c 2
 53 0 l 1
196 110 m 1
 276 110 l 2
 377 110 457 203 481 350 c 0
 506 497 457 590 356 590 c 2
 276 590 l 1
 196 110 l 1
EndSplineSet
Validated: 33
EndChar

StartChar: D.rightS
Encoding: 65562 -1 54
Width: 600
GlyphClass: 1
Flags: W
LayerCount: 2
Fore
SplineSet
41 0 m 1
 158 700 l 1
 363 700 l 2
 535 700 629 558 594 350 c 0
 559 142 418 0 246 0 c 2
 41 0 l 1
184 110 m 1
 264 110 l 2
 365 110 445 203 469 350 c 0
 494 497 445 590 344 590 c 2
 264 590 l 1
 184 110 l 1
EndSplineSet
Validated: 33
EndChar

StartChar: Dcaron
Encoding: 270 270 55
Width: 600
GlyphClass: 1
Flags: W
LayerCount: 2
Fore
SplineSet
23 0 m 1
 140 700 l 1
 345 700 l 2
 517 700 611 558 576 350 c 0
 541 142 400 0 228 0 c 2
 23 0 l 1
166 110 m 1
 246 110 l 2
 347 110 427 203 451 350 c 0
 476 497 427 590 326 590 c 2
 246 590 l 1
 166 110 l 1
358 771 m 1
 272 971 l 1
 367 971 l 1
 429 869 l 1
 525 971 l 1
 620 971 l 1
 468 771 l 1
 358 771 l 1
EndSplineSet
Validated: 33
EndChar

StartChar: Dcroat
Encoding: 272 272 56
Width: 600
GlyphClass: 1
Flags: W
LayerCount: 2
Fore
SplineSet
23 0 m 1
 73 300 l 1
 20 300 l 1
 37 400 l 1
 90 400 l 1
 140 700 l 1
 345 700 l 2
 517 700 611 558 576 350 c 0
 541 142 400 0 228 0 c 2
 23 0 l 1
166 110 m 1
 246 110 l 2
 347 110 427 203 451 350 c 0
 476 497 427 590 326 590 c 2
 246 590 l 1
 214 400 l 1
 337 400 l 1
 320 300 l 1
 198 300 l 1
 166 110 l 1
EndSplineSet
Validated: 33
EndChar

StartChar: uni0394
Encoding: 916 916 57
Width: 600
GlyphClass: 1
Flags: W
LayerCount: 2
Fore
SplineSet
-27 0 m 1
 280 700 l 1
 454 700 l 1
 527 0 l 1
 -27 0 l 1
142 110 m 1
 394 110 l 1
 347 575 l 1
 343 575 l 1
 142 110 l 1
EndSplineSet
Validated: 1
EndChar

StartChar: E
Encoding: 69 69 58
Width: 600
GlyphClass: 1
Flags: W
LayerCount: 2
Fore
SplineSet
55 0 m 1
 172 700 l 1
 594 700 l 1
 575 590 l 1
 278 590 l 1
 250 418 l 1
 510 418 l 1
 491 308 l 1
 231 308 l 1
 198 110 l 1
 495 110 l 1
 477 0 l 1
 55 0 l 1
EndSplineSet
Validated: 1
Substitution2: "+U1VOAGb/Y2IA +Z+VifgAA 72+Zv9O44ho" E.rightS
Substitution2: "+U1VOAGb/Y2IA +Z+VifgAA 71+Zv9O44ho" E.rightM
Substitution2: "+U1VOAGb/Y2IA +Z+VifgAA 70+Zv9O44ho" E.rightL
Substitution2: "+U1VOAGb/Y2IA +Z+VifgAA 69+Zv9O44ho" E.leftS
Substitution2: "+U1VOAGb/Y2IA +Z+VifgAA 68+Zv9O44ho" E.leftM
Substitution2: "+U1VOAGb/Y2IA +Z+VifgAA 67+Zv9O44ho" E.leftL
Substitution2: "+U1VOAGb/Y2IA +Z+VifgAA 66+Zv9O44ho" E.rightS
Substitution2: "+U1VOAGb/Y2IA +Z+VifgAA 65+Zv9O44ho" E.rightM
Substitution2: "+U1VOAGb/Y2IA +Z+VifgAA 64+Zv9O44ho" E.rightS
Substitution2: "+U1VOAGb/Y2IA +Z+VifgAA 63+Zv9O44ho" E.rightM
Substitution2: "+U1VOAGb/Y2IA +Z+VifgAA 62+Zv9O44ho" E.rightL
Substitution2: "+U1VOAGb/Y2IA +Z+VifgAA 61+Zv9O44ho" E.leftS
Substitution2: "+U1VOAGb/Y2IA +Z+VifgAA 60+Zv9O44ho" E.leftM
Substitution2: "+U1VOAGb/Y2IA +Z+VifgAA 59+Zv9O44ho" E.leftL
EndChar

StartChar: E.leftL
Encoding: 65563 -1 59
Width: 600
GlyphClass: 1
Flags: W
LayerCount: 2
Fore
SplineSet
11 0 m 1
 128 700 l 1
 550 700 l 1
 531 590 l 1
 234 590 l 1
 206 418 l 1
 466 418 l 1
 447 308 l 1
 187 308 l 1
 154 110 l 1
 451 110 l 1
 433 0 l 1
 11 0 l 1
EndSplineSet
Validated: 1
EndChar

StartChar: E.leftM
Encoding: 65564 -1 60
Width: 600
GlyphClass: 1
Flags: W
LayerCount: 2
Fore
SplineSet
25 0 m 1
 142 700 l 1
 564 700 l 1
 545 590 l 1
 248 590 l 1
 220 418 l 1
 480 418 l 1
 461 308 l 1
 201 308 l 1
 168 110 l 1
 465 110 l 1
 447 0 l 1
 25 0 l 1
EndSplineSet
Validated: 1
EndChar

StartChar: E.leftS
Encoding: 65565 -1 61
Width: 600
GlyphClass: 1
Flags: W
LayerCount: 2
Fore
SplineSet
37 0 m 1
 154 700 l 1
 576 700 l 1
 557 590 l 1
 260 590 l 1
 232 418 l 1
 492 418 l 1
 473 308 l 1
 213 308 l 1
 180 110 l 1
 477 110 l 1
 459 0 l 1
 37 0 l 1
EndSplineSet
Validated: 1
EndChar

StartChar: E.rightL
Encoding: 65566 -1 62
Width: 600
GlyphClass: 1
Flags: W
LayerCount: 2
Fore
SplineSet
99 0 m 1
 216 700 l 1
 638 700 l 1
 619 590 l 1
 322 590 l 1
 294 418 l 1
 554 418 l 1
 535 308 l 1
 275 308 l 1
 242 110 l 1
 539 110 l 1
 521 0 l 1
 99 0 l 1
EndSplineSet
Validated: 1
EndChar

StartChar: E.rightM
Encoding: 65567 -1 63
Width: 600
GlyphClass: 1
Flags: W
LayerCount: 2
Fore
SplineSet
85 0 m 1
 202 700 l 1
 624 700 l 1
 605 590 l 1
 308 590 l 1
 280 418 l 1
 540 418 l 1
 521 308 l 1
 261 308 l 1
 228 110 l 1
 525 110 l 1
 507 0 l 1
 85 0 l 1
EndSplineSet
Validated: 1
EndChar

StartChar: E.rightS
Encoding: 65568 -1 64
Width: 600
GlyphClass: 1
Flags: W
LayerCount: 2
Fore
SplineSet
73 0 m 1
 190 700 l 1
 612 700 l 1
 593 590 l 1
 296 590 l 1
 268 418 l 1
 528 418 l 1
 509 308 l 1
 249 308 l 1
 216 110 l 1
 513 110 l 1
 495 0 l 1
 73 0 l 1
EndSplineSet
Validated: 1
EndChar

StartChar: Eacute
Encoding: 201 201 65
Width: 600
GlyphClass: 1
Flags: W
LayerCount: 2
Fore
SplineSet
55 0 m 1
 172 700 l 1
 594 700 l 1
 575 590 l 1
 278 590 l 1
 250 418 l 1
 510 418 l 1
 491 308 l 1
 231 308 l 1
 198 110 l 1
 495 110 l 1
 477 0 l 1
 55 0 l 1
591 980 m 1
 428 780 l 1
 328 780 l 1
 441 980 l 1
 591 980 l 1
EndSplineSet
Validated: 1
EndChar

StartChar: Ebreve
Encoding: 276 276 66
Width: 600
GlyphClass: 1
Flags: W
LayerCount: 2
Fore
SplineSet
55 0 m 1
 172 700 l 1
 594 700 l 1
 575 590 l 1
 278 590 l 1
 250 418 l 1
 510 418 l 1
 491 308 l 1
 231 308 l 1
 198 110 l 1
 495 110 l 1
 477 0 l 1
 55 0 l 1
373 932 m 1
 370 892 388 866 418 866 c 0
 448 866 474 892 485 932 c 1
 580 932 l 1
 565 841 491 776 403 776 c 0
 315 776 263 841 278 932 c 1
 373 932 l 1
EndSplineSet
Validated: 33
EndChar

StartChar: Ecaron
Encoding: 282 282 67
Width: 600
GlyphClass: 1
Flags: W
LayerCount: 2
Fore
SplineSet
55 0 m 1
 172 700 l 1
 594 700 l 1
 575 590 l 1
 278 590 l 1
 250 418 l 1
 510 418 l 1
 491 308 l 1
 231 308 l 1
 198 110 l 1
 495 110 l 1
 477 0 l 1
 55 0 l 1
347 771 m 1
 261 971 l 1
 356 971 l 1
 418 869 l 1
 514 971 l 1
 609 971 l 1
 457 771 l 1
 347 771 l 1
EndSplineSet
Validated: 1
EndChar

StartChar: Ecircumflex
Encoding: 202 202 68
Width: 600
GlyphClass: 1
Flags: W
LayerCount: 2
Fore
SplineSet
55 0 m 1
 172 700 l 1
 594 700 l 1
 575 590 l 1
 278 590 l 1
 250 418 l 1
 510 418 l 1
 491 308 l 1
 231 308 l 1
 198 110 l 1
 495 110 l 1
 477 0 l 1
 55 0 l 1
228 771 m 1
 380 971 l 1
 490 971 l 1
 576 771 l 1
 481 771 l 1
 419 873 l 1
 323 771 l 1
 228 771 l 1
EndSplineSet
Validated: 1
EndChar

StartChar: Edieresis
Encoding: 203 203 69
Width: 600
GlyphClass: 1
Flags: W
LayerCount: 2
Fore
SplineSet
55 0 m 1
 172 700 l 1
 594 700 l 1
 575 590 l 1
 278 590 l 1
 250 418 l 1
 510 418 l 1
 491 308 l 1
 231 308 l 1
 198 110 l 1
 495 110 l 1
 477 0 l 1
 55 0 l 1
223 859 m 0
 231 906 274 943 320 943 c 0
 367 943 398 906 390 859 c 0
 382 813 340 776 293 776 c 0
 247 776 215 813 223 859 c 0
443 859 m 0
 451 906 494 943 540 943 c 0
 587 943 618 906 610 859 c 0
 602 813 560 776 513 776 c 0
 467 776 435 813 443 859 c 0
EndSplineSet
Validated: 33
Substitution2: "'cv03' +W1d7JlPYT1MA-03 +Z+VifgAA 2+Zv9O44ho" Edieresis.square
EndChar

StartChar: Edieresis.square
Encoding: 65569 -1 70
Width: 600
GlyphClass: 1
Flags: W
LayerCount: 2
Fore
SplineSet
55 0 m 1
 172 700 l 1
 594 700 l 1
 575 590 l 1
 278 590 l 1
 250 418 l 1
 510 418 l 1
 491 308 l 1
 231 308 l 1
 198 110 l 1
 495 110 l 1
 477 0 l 1
 55 0 l 1
220 775 m 1
 244 920 l 1
 389 920 l 1
 365 775 l 1
 220 775 l 1
440 775 m 1
 464 920 l 1
 609 920 l 1
 585 775 l 1
 440 775 l 1
EndSplineSet
Validated: 1
EndChar

StartChar: Edotaccent
Encoding: 278 278 71
Width: 600
GlyphClass: 1
Flags: W
LayerCount: 2
Fore
SplineSet
55 0 m 1
 172 700 l 1
 594 700 l 1
 575 590 l 1
 278 590 l 1
 250 418 l 1
 510 418 l 1
 491 308 l 1
 231 308 l 1
 198 110 l 1
 495 110 l 1
 477 0 l 1
 55 0 l 1
326 861 m 0
 335 912 382 952 432 952 c 0
 483 952 517 912 508 861 c 0
 500 811 453 770 402 770 c 0
 352 770 318 811 326 861 c 0
EndSplineSet
Validated: 33
Substitution2: "'cv03' +W1d7JlPYT1MA-03 +Z+VifgAA 2+Zv9O44ho" Edotaccent.square
EndChar

StartChar: Edotaccent.square
Encoding: 65570 -1 72
Width: 600
GlyphClass: 1
Flags: W
LayerCount: 2
Fore
SplineSet
55 0 m 1
 172 700 l 1
 594 700 l 1
 575 590 l 1
 278 590 l 1
 250 418 l 1
 510 418 l 1
 491 308 l 1
 231 308 l 1
 198 110 l 1
 495 110 l 1
 477 0 l 1
 55 0 l 1
325 782 m 1
 351 940 l 1
 509 940 l 1
 483 782 l 1
 325 782 l 1
EndSplineSet
Validated: 1
EndChar

StartChar: Egrave
Encoding: 200 200 73
Width: 600
GlyphClass: 1
Flags: W
LayerCount: 2
Fore
SplineSet
55 0 m 1
 172 700 l 1
 594 700 l 1
 575 590 l 1
 278 590 l 1
 250 418 l 1
 510 418 l 1
 491 308 l 1
 231 308 l 1
 198 110 l 1
 495 110 l 1
 477 0 l 1
 55 0 l 1
478 780 m 1
 378 780 l 1
 283 980 l 1
 433 980 l 1
 478 780 l 1
EndSplineSet
Validated: 1
EndChar

StartChar: Emacron
Encoding: 274 274 74
Width: 600
GlyphClass: 1
Flags: W
LayerCount: 2
Fore
SplineSet
55 0 m 1
 172 700 l 1
 594 700 l 1
 575 590 l 1
 278 590 l 1
 250 418 l 1
 510 418 l 1
 491 308 l 1
 231 308 l 1
 198 110 l 1
 495 110 l 1
 477 0 l 1
 55 0 l 1
246 800 m 1
 263 900 l 1
 583 900 l 1
 566 800 l 1
 246 800 l 1
EndSplineSet
Validated: 1
EndChar

StartChar: Eng
Encoding: 330 330 75
Width: 600
GlyphClass: 1
Flags: W
LayerCount: 2
Fore
SplineSet
411 185 m 1
 497 700 l 1
 612 700 l 1
 494 -7 l 2
 478 -105 427 -210 265 -210 c 0
 212 -210 179 -199 159 -189 c 1
 175 -89 l 1
 195 -98 223 -108 260 -108 c 0
 342 -108 366 -57 374 -7 c 2
 375 0 l 1
 330 0 l 1
 220 579 l 1
 216 579 l 1
 120 0 l 1
 5 0 l 1
 122 700 l 1
 310 700 l 1
 407 185 l 1
 411 185 l 1
EndSplineSet
Validated: 1
EndChar

StartChar: Eogonek
Encoding: 280 280 76
Width: 600
GlyphClass: 1
Flags: W
LayerCount: 2
Fore
SplineSet
55 0 m 1
 172 700 l 1
 594 700 l 1
 575 590 l 1
 278 590 l 1
 250 418 l 1
 510 418 l 1
 491 308 l 1
 231 308 l 1
 198 110 l 1
 495 110 l 1
 477 3 l 1
 482 0 l 1
 424 -24 396 -48 391 -76 c 0
 387 -103 406 -120 438 -120 c 0
 446 -120 456 -119 463 -117 c 1
 449 -200 l 1
 436 -203 420 -205 403 -205 c 0
 324 -205 277 -161 288 -97 c 0
 294 -60 318 -27 358 0 c 1
 55 0 l 1
EndSplineSet
Validated: 33
EndChar

StartChar: Epsilon
Encoding: 917 917 77
Width: 600
GlyphClass: 1
Flags: W
LayerCount: 2
Fore
SplineSet
55 0 m 1
 172 700 l 1
 594 700 l 1
 575 590 l 1
 278 590 l 1
 250 418 l 1
 510 418 l 1
 491 308 l 1
 231 308 l 1
 198 110 l 1
 495 110 l 1
 477 0 l 1
 55 0 l 1
EndSplineSet
Validated: 1
EndChar

StartChar: Epsilontonos
Encoding: 904 904 78
Width: 600
GlyphClass: 1
Flags: W
LayerCount: 2
Fore
SplineSet
55 0 m 1
 172 700 l 1
 594 700 l 1
 575 590 l 1
 278 590 l 1
 250 418 l 1
 510 418 l 1
 491 308 l 1
 231 308 l 1
 198 110 l 1
 495 110 l 1
 477 0 l 1
 55 0 l 1
195 780 m 1
 79 560 l 1
 -11 560 l 1
 55 780 l 1
 195 780 l 1
EndSplineSet
Validated: 1
EndChar

StartChar: Eta
Encoding: 919 919 79
Width: 600
GlyphClass: 1
Flags: W
LayerCount: 2
Fore
SplineSet
10 0 m 1
 127 700 l 1
 252 700 l 1
 205 418 l 1
 435 418 l 1
 482 700 l 1
 607 700 l 1
 490 0 l 1
 365 0 l 1
 415 303 l 1
 185 303 l 1
 135 0 l 1
 10 0 l 1
EndSplineSet
Validated: 1
EndChar

StartChar: Etatonos
Encoding: 905 905 80
Width: 600
GlyphClass: 1
Flags: W
LayerCount: 2
Fore
SplineSet
10 0 m 1
 127 700 l 1
 252 700 l 1
 205 418 l 1
 435 418 l 1
 482 700 l 1
 607 700 l 1
 490 0 l 1
 365 0 l 1
 415 303 l 1
 185 303 l 1
 135 0 l 1
 10 0 l 1
150 780 m 1
 34 560 l 1
 -56 560 l 1
 10 780 l 1
 150 780 l 1
EndSplineSet
Validated: 1
EndChar

StartChar: Eth
Encoding: 208 208 81
Width: 600
GlyphClass: 1
Flags: W
LayerCount: 2
Fore
SplineSet
23 0 m 1
 73 300 l 1
 20 300 l 1
 37 400 l 1
 90 400 l 1
 140 700 l 1
 345 700 l 2
 517 700 611 558 576 350 c 0
 541 142 400 0 228 0 c 2
 23 0 l 1
166 110 m 1
 246 110 l 2
 347 110 427 203 451 350 c 0
 476 497 427 590 326 590 c 2
 246 590 l 1
 214 400 l 1
 337 400 l 1
 320 300 l 1
 198 300 l 1
 166 110 l 1
EndSplineSet
Validated: 33
EndChar

StartChar: Euro
Encoding: 8364 8364 82
Width: 600
GlyphClass: 1
Flags: W
LayerCount: 2
Fore
SplineSet
27 380 m 1
 42 466 l 1
 93 466 l 1
 151 615 265 710 394 710 c 0
 511 710 590 632 588 520 c 1
 467 520 l 1
 462 566 425 595 375 595 c 0
 311 595 256 547 220 466 c 1
 461 466 l 1
 423 380 l 1
 192 380 l 1
 190 370 188 360 186 350 c 0
 185 343 184 337 183 330 c 1
 405 330 l 1
 368 244 l 1
 180 244 l 1
 187 157 228 105 297 105 c 0
 352 105 398 138 417 190 c 1
 538 190 l 1
 507 73 397 -10 275 -10 c 0
 142 -10 59 90 54 244 c 1
 5 244 l 1
 19 330 l 1
 58 330 l 1
 59 337 60 343 61 350 c 0
 63 360 65 370 67 380 c 1
 27 380 l 1
EndSplineSet
Validated: 33
EndChar

StartChar: F
Encoding: 70 70 83
Width: 600
GlyphClass: 1
Flags: W
LayerCount: 2
Fore
SplineSet
58 0 m 1
 175 700 l 1
 597 700 l 1
 578 590 l 1
 281 590 l 1
 250 400 l 1
 510 400 l 1
 491 290 l 1
 231 290 l 1
 183 0 l 1
 58 0 l 1
EndSplineSet
Validated: 1
Substitution2: "+U1VOAGb/Y2IA +Z+VifgAA 72+Zv9O44ho" F.rightS
Substitution2: "+U1VOAGb/Y2IA +Z+VifgAA 71+Zv9O44ho" F.rightM
Substitution2: "+U1VOAGb/Y2IA +Z+VifgAA 70+Zv9O44ho" F.rightL
Substitution2: "+U1VOAGb/Y2IA +Z+VifgAA 69+Zv9O44ho" F.leftS
Substitution2: "+U1VOAGb/Y2IA +Z+VifgAA 68+Zv9O44ho" F.leftM
Substitution2: "+U1VOAGb/Y2IA +Z+VifgAA 67+Zv9O44ho" F.leftL
Substitution2: "+U1VOAGb/Y2IA +Z+VifgAA 66+Zv9O44ho" F.rightS
Substitution2: "+U1VOAGb/Y2IA +Z+VifgAA 65+Zv9O44ho" F.rightM
Substitution2: "+U1VOAGb/Y2IA +Z+VifgAA 64+Zv9O44ho" F.rightS
Substitution2: "+U1VOAGb/Y2IA +Z+VifgAA 63+Zv9O44ho" F.rightM
Substitution2: "+U1VOAGb/Y2IA +Z+VifgAA 62+Zv9O44ho" F.rightL
Substitution2: "+U1VOAGb/Y2IA +Z+VifgAA 61+Zv9O44ho" F.leftS
Substitution2: "+U1VOAGb/Y2IA +Z+VifgAA 60+Zv9O44ho" F.leftM
Substitution2: "+U1VOAGb/Y2IA +Z+VifgAA 59+Zv9O44ho" F.leftL
EndChar

StartChar: F.leftL
Encoding: 65571 -1 84
Width: 600
GlyphClass: 1
Flags: W
LayerCount: 2
Fore
SplineSet
14 0 m 1
 131 700 l 1
 553 700 l 1
 534 590 l 1
 237 590 l 1
 206 400 l 1
 466 400 l 1
 447 290 l 1
 187 290 l 1
 139 0 l 1
 14 0 l 1
EndSplineSet
Validated: 1
EndChar

StartChar: F.leftM
Encoding: 65572 -1 85
Width: 600
GlyphClass: 1
Flags: W
LayerCount: 2
Fore
SplineSet
28 0 m 1
 145 700 l 1
 567 700 l 1
 548 590 l 1
 251 590 l 1
 220 400 l 1
 480 400 l 1
 461 290 l 1
 201 290 l 1
 153 0 l 1
 28 0 l 1
EndSplineSet
Validated: 1
EndChar

StartChar: F.leftS
Encoding: 65573 -1 86
Width: 600
GlyphClass: 1
Flags: W
LayerCount: 2
Fore
SplineSet
40 0 m 1
 157 700 l 1
 579 700 l 1
 560 590 l 1
 263 590 l 1
 232 400 l 1
 492 400 l 1
 473 290 l 1
 213 290 l 1
 165 0 l 1
 40 0 l 1
EndSplineSet
Validated: 1
EndChar

StartChar: F.rightL
Encoding: 65574 -1 87
Width: 600
GlyphClass: 1
Flags: W
LayerCount: 2
Fore
SplineSet
102 0 m 1
 219 700 l 1
 641 700 l 1
 622 590 l 1
 325 590 l 1
 294 400 l 1
 554 400 l 1
 535 290 l 1
 275 290 l 1
 227 0 l 1
 102 0 l 1
EndSplineSet
Validated: 1
EndChar

StartChar: F.rightM
Encoding: 65575 -1 88
Width: 600
GlyphClass: 1
Flags: W
LayerCount: 2
Fore
SplineSet
88 0 m 1
 205 700 l 1
 627 700 l 1
 608 590 l 1
 311 590 l 1
 280 400 l 1
 540 400 l 1
 521 290 l 1
 261 290 l 1
 213 0 l 1
 88 0 l 1
EndSplineSet
Validated: 1
EndChar

StartChar: F.rightS
Encoding: 65576 -1 89
Width: 600
GlyphClass: 1
Flags: W
LayerCount: 2
Fore
SplineSet
76 0 m 1
 193 700 l 1
 615 700 l 1
 596 590 l 1
 299 590 l 1
 268 400 l 1
 528 400 l 1
 509 290 l 1
 249 290 l 1
 201 0 l 1
 76 0 l 1
EndSplineSet
Validated: 1
EndChar

StartChar: G
Encoding: 71 71 90
Width: 600
GlyphClass: 1
Flags: W
LayerCount: 2
Fore
SplineSet
287 284 m 1
 306 394 l 1
 556 394 l 1
 490 0 l 1
 380 0 l 1
 393 80 l 1
 389 80 l 1
 345 24 286 -10 221 -10 c 0
 85 -10 10 139 44 345 c 0
 80 562 215 710 374 710 c 0
 490 710 573 631 572 520 c 1
 451 520 l 1
 446 566 409 595 359 595 c 0
 269 595 195 499 170 348 c 0
 145 200 184 100 265 100 c 0
 336 100 399 176 417 284 c 1
 287 284 l 1
EndSplineSet
Validated: 33
Substitution2: "+U1VOAGb/Y2IA +Z+VifgAA 72+Zv9O44ho" G.rightS
Substitution2: "+U1VOAGb/Y2IA +Z+VifgAA 71+Zv9O44ho" G.rightM
Substitution2: "+U1VOAGb/Y2IA +Z+VifgAA 70+Zv9O44ho" G.rightL
Substitution2: "+U1VOAGb/Y2IA +Z+VifgAA 69+Zv9O44ho" G.leftS
Substitution2: "+U1VOAGb/Y2IA +Z+VifgAA 68+Zv9O44ho" G.leftM
Substitution2: "+U1VOAGb/Y2IA +Z+VifgAA 67+Zv9O44ho" G.leftL
Substitution2: "+U1VOAGb/Y2IA +Z+VifgAA 66+Zv9O44ho" G.rightS
Substitution2: "+U1VOAGb/Y2IA +Z+VifgAA 65+Zv9O44ho" G.rightM
Substitution2: "+U1VOAGb/Y2IA +Z+VifgAA 64+Zv9O44ho" G.rightS
Substitution2: "+U1VOAGb/Y2IA +Z+VifgAA 63+Zv9O44ho" G.rightM
Substitution2: "+U1VOAGb/Y2IA +Z+VifgAA 62+Zv9O44ho" G.rightL
Substitution2: "+U1VOAGb/Y2IA +Z+VifgAA 61+Zv9O44ho" G.leftS
Substitution2: "+U1VOAGb/Y2IA +Z+VifgAA 60+Zv9O44ho" G.leftM
Substitution2: "+U1VOAGb/Y2IA +Z+VifgAA 59+Zv9O44ho" G.leftL
EndChar

StartChar: G.leftL
Encoding: 65577 -1 91
Width: 600
GlyphClass: 1
Flags: W
LayerCount: 2
Fore
SplineSet
243 284 m 1
 262 394 l 1
 512 394 l 1
 446 0 l 1
 336 0 l 1
 349 80 l 1
 345 80 l 1
 301 24 242 -10 177 -10 c 0
 41 -10 -34 139 0 345 c 0
 36 562 171 710 330 710 c 0
 446 710 529 631 528 520 c 1
 407 520 l 1
 402 566 365 595 315 595 c 0
 225 595 151 499 126 348 c 0
 101 200 140 100 221 100 c 0
 292 100 355 176 373 284 c 1
 243 284 l 1
EndSplineSet
Validated: 33
EndChar

StartChar: G.leftM
Encoding: 65578 -1 92
Width: 600
GlyphClass: 1
Flags: W
LayerCount: 2
Fore
SplineSet
257 284 m 1
 276 394 l 1
 526 394 l 1
 460 0 l 1
 350 0 l 1
 363 80 l 1
 359 80 l 1
 315 24 256 -10 191 -10 c 0
 55 -10 -20 139 14 345 c 0
 50 562 185 710 344 710 c 0
 460 710 543 631 542 520 c 1
 421 520 l 1
 416 566 379 595 329 595 c 0
 239 595 165 499 140 348 c 0
 115 200 154 100 235 100 c 0
 306 100 369 176 387 284 c 1
 257 284 l 1
EndSplineSet
Validated: 33
EndChar

StartChar: G.leftS
Encoding: 65579 -1 93
Width: 600
GlyphClass: 1
Flags: W
LayerCount: 2
Fore
SplineSet
269 284 m 1
 288 394 l 1
 538 394 l 1
 472 0 l 1
 362 0 l 1
 375 80 l 1
 371 80 l 1
 327 24 268 -10 203 -10 c 0
 67 -10 -8 139 26 345 c 0
 62 562 197 710 356 710 c 0
 472 710 555 631 554 520 c 1
 433 520 l 1
 428 566 391 595 341 595 c 0
 251 595 177 499 152 348 c 0
 127 200 166 100 247 100 c 0
 318 100 381 176 399 284 c 1
 269 284 l 1
EndSplineSet
Validated: 33
EndChar

StartChar: G.rightL
Encoding: 65580 -1 94
Width: 600
GlyphClass: 1
Flags: W
LayerCount: 2
Fore
SplineSet
331 284 m 1
 350 394 l 1
 600 394 l 1
 534 0 l 1
 424 0 l 1
 437 80 l 1
 433 80 l 1
 389 24 330 -10 265 -10 c 0
 129 -10 54 139 88 345 c 0
 124 562 259 710 418 710 c 0
 534 710 617 631 616 520 c 1
 495 520 l 1
 490 566 453 595 403 595 c 0
 313 595 239 499 214 348 c 0
 189 200 228 100 309 100 c 0
 380 100 443 176 461 284 c 1
 331 284 l 1
EndSplineSet
Validated: 33
EndChar

StartChar: G.rightM
Encoding: 65581 -1 95
Width: 600
GlyphClass: 1
Flags: W
LayerCount: 2
Fore
SplineSet
317 284 m 1
 336 394 l 1
 586 394 l 1
 520 0 l 1
 410 0 l 1
 423 80 l 1
 419 80 l 1
 375 24 316 -10 251 -10 c 0
 115 -10 40 139 74 345 c 0
 110 562 245 710 404 710 c 0
 520 710 603 631 602 520 c 1
 481 520 l 1
 476 566 439 595 389 595 c 0
 299 595 225 499 200 348 c 0
 175 200 214 100 295 100 c 0
 366 100 429 176 447 284 c 1
 317 284 l 1
EndSplineSet
Validated: 33
EndChar

StartChar: G.rightS
Encoding: 65582 -1 96
Width: 600
GlyphClass: 1
Flags: W
LayerCount: 2
Fore
SplineSet
305 284 m 1
 324 394 l 1
 574 394 l 1
 508 0 l 1
 398 0 l 1
 411 80 l 1
 407 80 l 1
 363 24 304 -10 239 -10 c 0
 103 -10 28 139 62 345 c 0
 98 562 233 710 392 710 c 0
 508 710 591 631 590 520 c 1
 469 520 l 1
 464 566 427 595 377 595 c 0
 287 595 213 499 188 348 c 0
 163 200 202 100 283 100 c 0
 354 100 417 176 435 284 c 1
 305 284 l 1
EndSplineSet
Validated: 33
EndChar

StartChar: Gamma
Encoding: 915 915 97
Width: 600
GlyphClass: 1
Flags: W
LayerCount: 2
Fore
SplineSet
62 0 m 1
 179 700 l 1
 601 700 l 1
 582 590 l 1
 285 590 l 1
 187 0 l 1
 62 0 l 1
EndSplineSet
Validated: 1
EndChar

StartChar: Gbreve
Encoding: 286 286 98
Width: 600
GlyphClass: 1
Flags: W
LayerCount: 2
Fore
SplineSet
287 284 m 1
 306 394 l 1
 556 394 l 1
 490 0 l 1
 380 0 l 1
 393 80 l 1
 389 80 l 1
 345 24 286 -10 221 -10 c 0
 85 -10 10 139 44 345 c 0
 80 562 215 710 374 710 c 0
 490 710 573 631 572 520 c 1
 451 520 l 1
 446 566 409 595 359 595 c 0
 269 595 195 499 170 348 c 0
 145 200 184 100 265 100 c 0
 336 100 399 176 417 284 c 1
 287 284 l 1
356 932 m 1
 353 892 371 866 401 866 c 0
 431 866 457 892 468 932 c 1
 563 932 l 1
 548 841 474 776 386 776 c 0
 298 776 246 841 261 932 c 1
 356 932 l 1
EndSplineSet
Validated: 33
EndChar

StartChar: Gcircumflex
Encoding: 284 284 99
Width: 600
GlyphClass: 1
Flags: W
LayerCount: 2
Fore
SplineSet
287 284 m 1
 306 394 l 1
 556 394 l 1
 490 0 l 1
 380 0 l 1
 393 80 l 1
 389 80 l 1
 345 24 286 -10 221 -10 c 0
 85 -10 10 139 44 345 c 0
 80 562 215 710 374 710 c 0
 490 710 573 631 572 520 c 1
 451 520 l 1
 446 566 409 595 359 595 c 0
 269 595 195 499 170 348 c 0
 145 200 184 100 265 100 c 0
 336 100 399 176 417 284 c 1
 287 284 l 1
211 771 m 1
 363 971 l 1
 473 971 l 1
 559 771 l 1
 464 771 l 1
 402 873 l 1
 306 771 l 1
 211 771 l 1
EndSplineSet
Validated: 33
EndChar

StartChar: uni0122
Encoding: 290 290 100
Width: 600
GlyphClass: 1
Flags: W
LayerCount: 2
Fore
SplineSet
287 284 m 1
 306 394 l 1
 556 394 l 1
 490 0 l 1
 380 0 l 1
 393 80 l 1
 389 80 l 1
 345 24 286 -10 221 -10 c 0
 85 -10 10 139 44 345 c 0
 80 562 215 710 374 710 c 0
 490 710 573 631 572 520 c 1
 451 520 l 1
 446 566 409 595 359 595 c 0
 269 595 195 499 170 348 c 0
 145 200 184 100 265 100 c 0
 336 100 399 176 417 284 c 1
 287 284 l 1
293 -70 m 1
 131 -270 l 1
 31 -270 l 1
 143 -70 l 1
 293 -70 l 1
EndSplineSet
Validated: 33
EndChar

StartChar: Gdotaccent
Encoding: 288 288 101
Width: 600
GlyphClass: 1
Flags: W
LayerCount: 2
Fore
SplineSet
287 284 m 1
 306 394 l 1
 556 394 l 1
 490 0 l 1
 380 0 l 1
 393 80 l 1
 389 80 l 1
 345 24 286 -10 221 -10 c 0
 85 -10 10 139 44 345 c 0
 80 562 215 710 374 710 c 0
 490 710 573 631 572 520 c 1
 451 520 l 1
 446 566 409 595 359 595 c 0
 269 595 195 499 170 348 c 0
 145 200 184 100 265 100 c 0
 336 100 399 176 417 284 c 1
 287 284 l 1
309 861 m 0
 318 912 365 952 415 952 c 0
 466 952 500 912 491 861 c 0
 483 811 436 770 385 770 c 0
 335 770 301 811 309 861 c 0
EndSplineSet
Validated: 33
Substitution2: "'cv03' +W1d7JlPYT1MA-03 +Z+VifgAA 2+Zv9O44ho" Gdotaccent.square
EndChar

StartChar: Gdotaccent.square
Encoding: 65583 -1 102
Width: 600
GlyphClass: 1
Flags: W
LayerCount: 2
Fore
SplineSet
287 284 m 1
 306 394 l 1
 556 394 l 1
 490 0 l 1
 380 0 l 1
 393 80 l 1
 389 80 l 1
 345 24 286 -10 221 -10 c 0
 85 -10 10 139 44 345 c 0
 80 562 215 710 374 710 c 0
 490 710 573 631 572 520 c 1
 451 520 l 1
 446 566 409 595 359 595 c 0
 269 595 195 499 170 348 c 0
 145 200 184 100 265 100 c 0
 336 100 399 176 417 284 c 1
 287 284 l 1
308 782 m 1
 334 940 l 1
 492 940 l 1
 466 782 l 1
 308 782 l 1
EndSplineSet
Validated: 33
EndChar

StartChar: H
Encoding: 72 72 103
Width: 600
GlyphClass: 1
Flags: W
LayerCount: 2
Fore
SplineSet
10 0 m 1
 127 700 l 1
 252 700 l 1
 205 418 l 1
 435 418 l 1
 482 700 l 1
 607 700 l 1
 490 0 l 1
 365 0 l 1
 415 303 l 1
 185 303 l 1
 135 0 l 1
 10 0 l 1
EndSplineSet
Validated: 1
Substitution2: "+U1VOAGb/Y2IA +Z+VifgAA 72+Zv9O44ho" H.rightS
Substitution2: "+U1VOAGb/Y2IA +Z+VifgAA 71+Zv9O44ho" H.rightM
Substitution2: "+U1VOAGb/Y2IA +Z+VifgAA 70+Zv9O44ho" H.rightL
Substitution2: "+U1VOAGb/Y2IA +Z+VifgAA 69+Zv9O44ho" H.leftS
Substitution2: "+U1VOAGb/Y2IA +Z+VifgAA 68+Zv9O44ho" H.leftM
Substitution2: "+U1VOAGb/Y2IA +Z+VifgAA 67+Zv9O44ho" H.leftL
Substitution2: "+U1VOAGb/Y2IA +Z+VifgAA 66+Zv9O44ho" H.rightS
Substitution2: "+U1VOAGb/Y2IA +Z+VifgAA 65+Zv9O44ho" H.rightM
Substitution2: "+U1VOAGb/Y2IA +Z+VifgAA 64+Zv9O44ho" H.rightS
Substitution2: "+U1VOAGb/Y2IA +Z+VifgAA 63+Zv9O44ho" H.rightM
Substitution2: "+U1VOAGb/Y2IA +Z+VifgAA 62+Zv9O44ho" H.rightL
Substitution2: "+U1VOAGb/Y2IA +Z+VifgAA 61+Zv9O44ho" H.leftS
Substitution2: "+U1VOAGb/Y2IA +Z+VifgAA 60+Zv9O44ho" H.leftM
Substitution2: "+U1VOAGb/Y2IA +Z+VifgAA 59+Zv9O44ho" H.leftL
EndChar

StartChar: H.leftL
Encoding: 65584 -1 104
Width: 600
GlyphClass: 1
Flags: W
LayerCount: 2
Fore
SplineSet
-34 0 m 1
 83 700 l 1
 208 700 l 1
 161 418 l 1
 391 418 l 1
 438 700 l 1
 563 700 l 1
 446 0 l 1
 321 0 l 1
 371 303 l 1
 141 303 l 1
 91 0 l 1
 -34 0 l 1
EndSplineSet
Validated: 1
EndChar

StartChar: H.leftM
Encoding: 65585 -1 105
Width: 600
GlyphClass: 1
Flags: W
LayerCount: 2
Fore
SplineSet
-20 0 m 1
 97 700 l 1
 222 700 l 1
 175 418 l 1
 405 418 l 1
 452 700 l 1
 577 700 l 1
 460 0 l 1
 335 0 l 1
 385 303 l 1
 155 303 l 1
 105 0 l 1
 -20 0 l 1
EndSplineSet
Validated: 1
EndChar

StartChar: H.leftS
Encoding: 65586 -1 106
Width: 600
GlyphClass: 1
Flags: W
LayerCount: 2
Fore
SplineSet
-8 0 m 1
 109 700 l 1
 234 700 l 1
 187 418 l 1
 417 418 l 1
 464 700 l 1
 589 700 l 1
 472 0 l 1
 347 0 l 1
 397 303 l 1
 167 303 l 1
 117 0 l 1
 -8 0 l 1
EndSplineSet
Validated: 1
EndChar

StartChar: H.rightL
Encoding: 65587 -1 107
Width: 600
GlyphClass: 1
Flags: W
LayerCount: 2
Fore
SplineSet
54 0 m 1
 171 700 l 1
 296 700 l 1
 249 418 l 1
 479 418 l 1
 526 700 l 1
 651 700 l 1
 534 0 l 1
 409 0 l 1
 459 303 l 1
 229 303 l 1
 179 0 l 1
 54 0 l 1
EndSplineSet
Validated: 1
EndChar

StartChar: H.rightM
Encoding: 65588 -1 108
Width: 600
GlyphClass: 1
Flags: W
LayerCount: 2
Fore
SplineSet
40 0 m 1
 157 700 l 1
 282 700 l 1
 235 418 l 1
 465 418 l 1
 512 700 l 1
 637 700 l 1
 520 0 l 1
 395 0 l 1
 445 303 l 1
 215 303 l 1
 165 0 l 1
 40 0 l 1
EndSplineSet
Validated: 1
EndChar

StartChar: H.rightS
Encoding: 65589 -1 109
Width: 600
GlyphClass: 1
Flags: W
LayerCount: 2
Fore
SplineSet
28 0 m 1
 145 700 l 1
 270 700 l 1
 223 418 l 1
 453 418 l 1
 500 700 l 1
 625 700 l 1
 508 0 l 1
 383 0 l 1
 433 303 l 1
 203 303 l 1
 153 0 l 1
 28 0 l 1
EndSplineSet
Validated: 1
EndChar

StartChar: Hbar
Encoding: 294 294 110
Width: 600
GlyphClass: 1
Flags: W
LayerCount: 2
Fore
SplineSet
10 0 m 1
 94 500 l 1
 43 500 l 1
 57 580 l 1
 107 580 l 1
 127 700 l 1
 252 700 l 1
 232 580 l 1
 462 580 l 1
 482 700 l 1
 607 700 l 1
 587 580 l 1
 637 580 l 1
 623 500 l 1
 574 500 l 1
 490 0 l 1
 365 0 l 1
 410 273 l 1
 180 273 l 1
 135 0 l 1
 10 0 l 1
430 388 m 1
 449 500 l 1
 219 500 l 1
 200 388 l 1
 430 388 l 1
EndSplineSet
Validated: 1
EndChar

StartChar: Hcircumflex
Encoding: 292 292 111
Width: 600
GlyphClass: 1
Flags: W
LayerCount: 2
Fore
SplineSet
10 0 m 1
 127 700 l 1
 252 700 l 1
 205 418 l 1
 435 418 l 1
 482 700 l 1
 607 700 l 1
 490 0 l 1
 365 0 l 1
 415 303 l 1
 185 303 l 1
 135 0 l 1
 10 0 l 1
205 771 m 1
 357 971 l 1
 467 971 l 1
 553 771 l 1
 458 771 l 1
 396 873 l 1
 300 771 l 1
 205 771 l 1
EndSplineSet
Validated: 1
EndChar

StartChar: I
Encoding: 73 73 112
Width: 600
GlyphClass: 1
Flags: W
LayerCount: 2
Fore
SplineSet
43 0 m 1
 61 110 l 1
 206 110 l 1
 286 590 l 1
 143 590 l 1
 162 700 l 1
 573 700 l 1
 554 590 l 1
 411 590 l 1
 331 110 l 1
 476 110 l 1
 458 0 l 1
 43 0 l 1
EndSplineSet
Validated: 1
Substitution2: "+U1VOAGb/Y2IA +Z+VifgAA 72+Zv9O44ho" I.rightS
Substitution2: "+U1VOAGb/Y2IA +Z+VifgAA 71+Zv9O44ho" I.rightM
Substitution2: "+U1VOAGb/Y2IA +Z+VifgAA 70+Zv9O44ho" I.rightL
Substitution2: "+U1VOAGb/Y2IA +Z+VifgAA 69+Zv9O44ho" I.leftS
Substitution2: "+U1VOAGb/Y2IA +Z+VifgAA 68+Zv9O44ho" I.leftM
Substitution2: "+U1VOAGb/Y2IA +Z+VifgAA 67+Zv9O44ho" I.leftL
Substitution2: "+U1VOAGb/Y2IA +Z+VifgAA 66+Zv9O44ho" I.rightS
Substitution2: "+U1VOAGb/Y2IA +Z+VifgAA 65+Zv9O44ho" I.rightM
Substitution2: "+U1VOAGb/Y2IA +Z+VifgAA 64+Zv9O44ho" I.rightS
Substitution2: "+U1VOAGb/Y2IA +Z+VifgAA 63+Zv9O44ho" I.rightM
Substitution2: "+U1VOAGb/Y2IA +Z+VifgAA 62+Zv9O44ho" I.rightL
Substitution2: "+U1VOAGb/Y2IA +Z+VifgAA 61+Zv9O44ho" I.leftS
Substitution2: "+U1VOAGb/Y2IA +Z+VifgAA 60+Zv9O44ho" I.leftM
Substitution2: "+U1VOAGb/Y2IA +Z+VifgAA 59+Zv9O44ho" I.leftL
EndChar

StartChar: I.leftL
Encoding: 65590 -1 113
Width: 600
GlyphClass: 1
Flags: W
LayerCount: 2
Fore
SplineSet
-1 0 m 1
 17 110 l 1
 162 110 l 1
 242 590 l 1
 99 590 l 1
 118 700 l 1
 529 700 l 1
 510 590 l 1
 367 590 l 1
 287 110 l 1
 432 110 l 1
 414 0 l 1
 -1 0 l 1
EndSplineSet
Validated: 1
EndChar

StartChar: I.leftM
Encoding: 65591 -1 114
Width: 600
GlyphClass: 1
Flags: W
LayerCount: 2
Fore
SplineSet
13 0 m 1
 31 110 l 1
 176 110 l 1
 256 590 l 1
 113 590 l 1
 132 700 l 1
 543 700 l 1
 524 590 l 1
 381 590 l 1
 301 110 l 1
 446 110 l 1
 428 0 l 1
 13 0 l 1
EndSplineSet
Validated: 1
EndChar

StartChar: I.leftS
Encoding: 65592 -1 115
Width: 600
GlyphClass: 1
Flags: W
LayerCount: 2
Fore
SplineSet
25 0 m 1
 43 110 l 1
 188 110 l 1
 268 590 l 1
 125 590 l 1
 144 700 l 1
 555 700 l 1
 536 590 l 1
 393 590 l 1
 313 110 l 1
 458 110 l 1
 440 0 l 1
 25 0 l 1
EndSplineSet
Validated: 1
EndChar

StartChar: I.rightL
Encoding: 65593 -1 116
Width: 600
GlyphClass: 1
Flags: W
LayerCount: 2
Fore
SplineSet
87 0 m 1
 105 110 l 1
 250 110 l 1
 330 590 l 1
 187 590 l 1
 206 700 l 1
 617 700 l 1
 598 590 l 1
 455 590 l 1
 375 110 l 1
 520 110 l 1
 502 0 l 1
 87 0 l 1
EndSplineSet
Validated: 1
EndChar

StartChar: I.rightM
Encoding: 65594 -1 117
Width: 600
GlyphClass: 1
Flags: W
LayerCount: 2
Fore
SplineSet
73 0 m 1
 91 110 l 1
 236 110 l 1
 316 590 l 1
 173 590 l 1
 192 700 l 1
 603 700 l 1
 584 590 l 1
 441 590 l 1
 361 110 l 1
 506 110 l 1
 488 0 l 1
 73 0 l 1
EndSplineSet
Validated: 1
EndChar

StartChar: I.rightS
Encoding: 65595 -1 118
Width: 600
GlyphClass: 1
Flags: W
LayerCount: 2
Fore
SplineSet
61 0 m 1
 79 110 l 1
 224 110 l 1
 304 590 l 1
 161 590 l 1
 180 700 l 1
 591 700 l 1
 572 590 l 1
 429 590 l 1
 349 110 l 1
 494 110 l 1
 476 0 l 1
 61 0 l 1
EndSplineSet
Validated: 1
EndChar

StartChar: IJ
Encoding: 306 306 119
Width: 600
GlyphClass: 1
Flags: W
LayerCount: 2
Fore
SplineSet
68 284 m 1
 137 700 l 1
 262 700 l 1
 193 284 l 1
 68 284 l 1
52 190 m 1
 169 190 l 1
 164 137 203 100 265 100 c 0
 329 100 378 140 388 198 c 2
 454 590 l 1
 314 590 l 1
 332 700 l 1
 597 700 l 1
 513 198 l 2
 493 77 383 -10 247 -10 c 0
 114 -10 32 74 52 190 c 1
EndSplineSet
Validated: 33
EndChar

StartChar: Iacute
Encoding: 205 205 120
Width: 600
GlyphClass: 1
Flags: W
LayerCount: 2
Fore
SplineSet
43 0 m 1
 61 110 l 1
 206 110 l 1
 286 590 l 1
 143 590 l 1
 162 700 l 1
 573 700 l 1
 554 590 l 1
 411 590 l 1
 331 110 l 1
 476 110 l 1
 458 0 l 1
 43 0 l 1
568 980 m 1
 405 780 l 1
 305 780 l 1
 418 980 l 1
 568 980 l 1
EndSplineSet
Validated: 1
EndChar

StartChar: Ibreve
Encoding: 300 300 121
Width: 600
GlyphClass: 1
Flags: W
LayerCount: 2
Fore
SplineSet
43 0 m 1
 61 110 l 1
 206 110 l 1
 286 590 l 1
 143 590 l 1
 162 700 l 1
 573 700 l 1
 554 590 l 1
 411 590 l 1
 331 110 l 1
 476 110 l 1
 458 0 l 1
 43 0 l 1
350 932 m 1
 347 892 365 866 395 866 c 0
 425 866 451 892 462 932 c 1
 557 932 l 1
 542 841 468 776 380 776 c 0
 292 776 240 841 255 932 c 1
 350 932 l 1
EndSplineSet
Validated: 33
EndChar

StartChar: Icircumflex
Encoding: 206 206 122
Width: 600
GlyphClass: 1
Flags: W
LayerCount: 2
Fore
SplineSet
43 0 m 1
 61 110 l 1
 206 110 l 1
 286 590 l 1
 143 590 l 1
 162 700 l 1
 573 700 l 1
 554 590 l 1
 411 590 l 1
 331 110 l 1
 476 110 l 1
 458 0 l 1
 43 0 l 1
205 771 m 1
 357 971 l 1
 467 971 l 1
 553 771 l 1
 458 771 l 1
 396 873 l 1
 300 771 l 1
 205 771 l 1
EndSplineSet
Validated: 1
EndChar

StartChar: Idieresis
Encoding: 207 207 123
Width: 600
GlyphClass: 1
Flags: W
LayerCount: 2
Fore
SplineSet
43 0 m 1
 61 110 l 1
 206 110 l 1
 286 590 l 1
 143 590 l 1
 162 700 l 1
 573 700 l 1
 554 590 l 1
 411 590 l 1
 331 110 l 1
 476 110 l 1
 458 0 l 1
 43 0 l 1
200 859 m 0
 208 906 251 943 297 943 c 0
 344 943 375 906 367 859 c 0
 359 813 317 776 270 776 c 0
 224 776 192 813 200 859 c 0
420 859 m 0
 428 906 471 943 517 943 c 0
 564 943 595 906 587 859 c 0
 579 813 537 776 490 776 c 0
 444 776 412 813 420 859 c 0
EndSplineSet
Validated: 33
Substitution2: "'cv03' +W1d7JlPYT1MA-03 +Z+VifgAA 2+Zv9O44ho" Idieresis.square
EndChar

StartChar: Idieresis.square
Encoding: 65596 -1 124
Width: 600
GlyphClass: 1
Flags: W
LayerCount: 2
Fore
SplineSet
43 0 m 1
 61 110 l 1
 206 110 l 1
 286 590 l 1
 143 590 l 1
 162 700 l 1
 573 700 l 1
 554 590 l 1
 411 590 l 1
 331 110 l 1
 476 110 l 1
 458 0 l 1
 43 0 l 1
197 775 m 1
 221 920 l 1
 366 920 l 1
 342 775 l 1
 197 775 l 1
417 775 m 1
 441 920 l 1
 586 920 l 1
 562 775 l 1
 417 775 l 1
EndSplineSet
Validated: 1
EndChar

StartChar: Idotaccent
Encoding: 304 304 125
Width: 600
GlyphClass: 1
Flags: W
LayerCount: 2
Fore
SplineSet
43 0 m 1
 61 110 l 1
 206 110 l 1
 286 590 l 1
 143 590 l 1
 162 700 l 1
 573 700 l 1
 554 590 l 1
 411 590 l 1
 331 110 l 1
 476 110 l 1
 458 0 l 1
 43 0 l 1
303 861 m 0
 312 912 359 952 409 952 c 0
 460 952 494 912 485 861 c 0
 477 811 430 770 379 770 c 0
 329 770 295 811 303 861 c 0
EndSplineSet
Validated: 33
Substitution2: "'cv03' +W1d7JlPYT1MA-03 +Z+VifgAA 2+Zv9O44ho" Idotaccent.square
EndChar

StartChar: Idotaccent.square
Encoding: 65597 -1 126
Width: 600
GlyphClass: 1
Flags: W
LayerCount: 2
Fore
SplineSet
43 0 m 1
 61 110 l 1
 206 110 l 1
 286 590 l 1
 143 590 l 1
 162 700 l 1
 573 700 l 1
 554 590 l 1
 411 590 l 1
 331 110 l 1
 476 110 l 1
 458 0 l 1
 43 0 l 1
302 782 m 1
 328 940 l 1
 486 940 l 1
 460 782 l 1
 302 782 l 1
EndSplineSet
Validated: 1
EndChar

StartChar: Igrave
Encoding: 204 204 127
Width: 600
GlyphClass: 1
Flags: W
LayerCount: 2
Fore
SplineSet
43 0 m 1
 61 110 l 1
 206 110 l 1
 286 590 l 1
 143 590 l 1
 162 700 l 1
 573 700 l 1
 554 590 l 1
 411 590 l 1
 331 110 l 1
 476 110 l 1
 458 0 l 1
 43 0 l 1
455 780 m 1
 355 780 l 1
 260 980 l 1
 410 980 l 1
 455 780 l 1
EndSplineSet
Validated: 1
EndChar

StartChar: Imacron
Encoding: 298 298 128
Width: 600
GlyphClass: 1
Flags: W
LayerCount: 2
Fore
SplineSet
43 0 m 1
 61 110 l 1
 206 110 l 1
 286 590 l 1
 143 590 l 1
 162 700 l 1
 573 700 l 1
 554 590 l 1
 411 590 l 1
 331 110 l 1
 476 110 l 1
 458 0 l 1
 43 0 l 1
223 800 m 1
 240 900 l 1
 560 900 l 1
 543 800 l 1
 223 800 l 1
EndSplineSet
Validated: 1
EndChar

StartChar: Iogonek
Encoding: 302 302 129
Width: 600
GlyphClass: 1
Flags: W
LayerCount: 2
Fore
SplineSet
43 0 m 1
 61 110 l 1
 206 110 l 1
 286 590 l 1
 143 590 l 1
 162 700 l 1
 573 700 l 1
 554 590 l 1
 411 590 l 1
 331 110 l 1
 476 110 l 1
 458 0 l 1
 400 -24 372 -48 367 -76 c 0
 363 -103 382 -120 414 -120 c 0
 422 -120 432 -119 439 -117 c 1
 425 -200 l 1
 412 -203 396 -205 379 -205 c 0
 300 -205 253 -161 264 -97 c 0
 270 -60 294 -27 334 0 c 1
 43 0 l 1
EndSplineSet
Validated: 33
EndChar

StartChar: Iota
Encoding: 921 921 130
Width: 600
GlyphClass: 1
Flags: W
LayerCount: 2
Fore
SplineSet
43 0 m 1
 61 110 l 1
 206 110 l 1
 286 590 l 1
 143 590 l 1
 162 700 l 1
 573 700 l 1
 554 590 l 1
 411 590 l 1
 331 110 l 1
 476 110 l 1
 458 0 l 1
 43 0 l 1
EndSplineSet
Validated: 1
EndChar

StartChar: Iotadieresis
Encoding: 938 938 131
Width: 600
GlyphClass: 1
Flags: W
LayerCount: 2
Fore
SplineSet
43 0 m 1
 61 110 l 1
 206 110 l 1
 286 590 l 1
 143 590 l 1
 162 700 l 1
 573 700 l 1
 554 590 l 1
 411 590 l 1
 331 110 l 1
 476 110 l 1
 458 0 l 1
 43 0 l 1
250 859 m 0
 258 906 301 943 347 943 c 0
 394 943 425 906 417 859 c 0
 409 813 367 776 320 776 c 0
 274 776 242 813 250 859 c 0
470 859 m 0
 478 906 521 943 567 943 c 0
 614 943 645 906 637 859 c 0
 629 813 587 776 540 776 c 0
 494 776 462 813 470 859 c 0
EndSplineSet
Validated: 33
EndChar

StartChar: Iotatonos
Encoding: 906 906 132
Width: 600
GlyphClass: 1
Flags: W
LayerCount: 2
Fore
SplineSet
43 0 m 1
 61 110 l 1
 206 110 l 1
 286 590 l 1
 143 590 l 1
 162 700 l 1
 573 700 l 1
 554 590 l 1
 411 590 l 1
 331 110 l 1
 476 110 l 1
 458 0 l 1
 43 0 l 1
185 780 m 1
 69 560 l 1
 -21 560 l 1
 45 780 l 1
 185 780 l 1
EndSplineSet
Validated: 1
EndChar

StartChar: Itilde
Encoding: 296 296 133
Width: 600
GlyphClass: 1
Flags: W
LayerCount: 2
Fore
SplineSet
43 0 m 1
 61 110 l 1
 206 110 l 1
 286 590 l 1
 143 590 l 1
 162 700 l 1
 573 700 l 1
 554 590 l 1
 411 590 l 1
 331 110 l 1
 476 110 l 1
 458 0 l 1
 43 0 l 1
200 799 m 1
 205 832 l 2
 219 914 270 963 343 963 c 0
 438 963 440 878 465 878 c 0
 475 878 481 892 488 928 c 2
 492 949 l 1
 592 949 l 1
 587 916 l 2
 573 834 522 785 449 785 c 0
 354 785 354 870 329 870 c 0
 319 870 311 855 304 820 c 2
 300 799 l 1
 200 799 l 1
EndSplineSet
Validated: 1
EndChar

StartChar: J
Encoding: 74 74 134
Width: 600
GlyphClass: 1
Flags: W
LayerCount: 2
Fore
SplineSet
32 190 m 1
 149 190 l 1
 144 137 183 100 245 100 c 0
 309 100 358 140 368 198 c 2
 434 590 l 1
 184 590 l 1
 202 700 l 1
 577 700 l 1
 493 198 l 2
 473 77 363 -10 227 -10 c 0
 94 -10 12 74 32 190 c 1
EndSplineSet
Validated: 33
Substitution2: "+U1VOAGb/Y2IA +Z+VifgAA 72+Zv9O44ho" J.rightS
Substitution2: "+U1VOAGb/Y2IA +Z+VifgAA 71+Zv9O44ho" J.rightM
Substitution2: "+U1VOAGb/Y2IA +Z+VifgAA 70+Zv9O44ho" J.rightL
Substitution2: "+U1VOAGb/Y2IA +Z+VifgAA 69+Zv9O44ho" J.leftS
Substitution2: "+U1VOAGb/Y2IA +Z+VifgAA 68+Zv9O44ho" J.leftM
Substitution2: "+U1VOAGb/Y2IA +Z+VifgAA 67+Zv9O44ho" J.leftL
Substitution2: "+U1VOAGb/Y2IA +Z+VifgAA 66+Zv9O44ho" J.rightS
Substitution2: "+U1VOAGb/Y2IA +Z+VifgAA 65+Zv9O44ho" J.rightM
Substitution2: "+U1VOAGb/Y2IA +Z+VifgAA 64+Zv9O44ho" J.rightS
Substitution2: "+U1VOAGb/Y2IA +Z+VifgAA 63+Zv9O44ho" J.rightM
Substitution2: "+U1VOAGb/Y2IA +Z+VifgAA 62+Zv9O44ho" J.rightL
Substitution2: "+U1VOAGb/Y2IA +Z+VifgAA 61+Zv9O44ho" J.leftS
Substitution2: "+U1VOAGb/Y2IA +Z+VifgAA 60+Zv9O44ho" J.leftM
Substitution2: "+U1VOAGb/Y2IA +Z+VifgAA 59+Zv9O44ho" J.leftL
EndChar

StartChar: J.leftL
Encoding: 65598 -1 135
Width: 600
GlyphClass: 1
Flags: W
LayerCount: 2
Fore
SplineSet
-12 190 m 1
 105 190 l 1
 100 137 139 100 201 100 c 0
 265 100 314 140 324 198 c 2
 390 590 l 1
 140 590 l 1
 158 700 l 1
 533 700 l 1
 449 198 l 2
 429 77 319 -10 183 -10 c 0
 50 -10 -32 74 -12 190 c 1
EndSplineSet
Validated: 33
EndChar

StartChar: J.leftM
Encoding: 65599 -1 136
Width: 600
GlyphClass: 1
Flags: W
LayerCount: 2
Fore
SplineSet
2 190 m 1
 119 190 l 1
 114 137 153 100 215 100 c 0
 279 100 328 140 338 198 c 2
 404 590 l 1
 154 590 l 1
 172 700 l 1
 547 700 l 1
 463 198 l 2
 443 77 333 -10 197 -10 c 0
 64 -10 -18 74 2 190 c 1
EndSplineSet
Validated: 33
EndChar

StartChar: J.leftS
Encoding: 65600 -1 137
Width: 600
GlyphClass: 1
Flags: W
LayerCount: 2
Fore
SplineSet
14 190 m 1
 131 190 l 1
 126 137 165 100 227 100 c 0
 291 100 340 140 350 198 c 2
 416 590 l 1
 166 590 l 1
 184 700 l 1
 559 700 l 1
 475 198 l 2
 455 77 345 -10 209 -10 c 0
 76 -10 -6 74 14 190 c 1
EndSplineSet
Validated: 33
EndChar

StartChar: J.rightL
Encoding: 65601 -1 138
Width: 600
GlyphClass: 1
Flags: W
LayerCount: 2
Fore
SplineSet
76 190 m 1
 193 190 l 1
 188 137 227 100 289 100 c 0
 353 100 402 140 412 198 c 2
 478 590 l 1
 228 590 l 1
 246 700 l 1
 621 700 l 1
 537 198 l 2
 517 77 407 -10 271 -10 c 0
 138 -10 56 74 76 190 c 1
EndSplineSet
Validated: 33
EndChar

StartChar: J.rightM
Encoding: 65602 -1 139
Width: 600
GlyphClass: 1
Flags: W
LayerCount: 2
Fore
SplineSet
62 190 m 1
 179 190 l 1
 174 137 213 100 275 100 c 0
 339 100 388 140 398 198 c 2
 464 590 l 1
 214 590 l 1
 232 700 l 1
 607 700 l 1
 523 198 l 2
 503 77 393 -10 257 -10 c 0
 124 -10 42 74 62 190 c 1
EndSplineSet
Validated: 33
EndChar

StartChar: J.rightS
Encoding: 65603 -1 140
Width: 600
GlyphClass: 1
Flags: W
LayerCount: 2
Fore
SplineSet
50 190 m 1
 167 190 l 1
 162 137 201 100 263 100 c 0
 327 100 376 140 386 198 c 2
 452 590 l 1
 202 590 l 1
 220 700 l 1
 595 700 l 1
 511 198 l 2
 491 77 381 -10 245 -10 c 0
 112 -10 30 74 50 190 c 1
EndSplineSet
Validated: 33
EndChar

StartChar: Jcircumflex
Encoding: 308 308 141
Width: 600
GlyphClass: 1
Flags: W
LayerCount: 2
Fore
SplineSet
32 190 m 1
 149 190 l 1
 144 137 183 100 245 100 c 0
 309 100 358 140 368 198 c 2
 434 590 l 1
 184 590 l 1
 202 700 l 1
 577 700 l 1
 493 198 l 2
 473 77 363 -10 227 -10 c 0
 94 -10 12 74 32 190 c 1
238 771 m 1
 390 971 l 1
 500 971 l 1
 586 771 l 1
 491 771 l 1
 429 873 l 1
 333 771 l 1
 238 771 l 1
EndSplineSet
Validated: 33
EndChar

StartChar: K
Encoding: 75 75 142
Width: 600
GlyphClass: 1
Flags: W
LayerCount: 2
Fore
SplineSet
252 700 m 1
 200 392 l 1
 507 700 l 1
 657 700 l 1
 369 411 l 1
 550 0 l 1
 408 0 l 1
 271 312 l 1
 170 211 l 1
 135 0 l 1
 10 0 l 1
 127 700 l 1
 252 700 l 1
EndSplineSet
Validated: 1
Substitution2: "+U1VOAGb/Y2IA +Z+VifgAA 72+Zv9O44ho" K.rightS
Substitution2: "+U1VOAGb/Y2IA +Z+VifgAA 71+Zv9O44ho" K.rightM
Substitution2: "+U1VOAGb/Y2IA +Z+VifgAA 70+Zv9O44ho" K.rightL
Substitution2: "+U1VOAGb/Y2IA +Z+VifgAA 69+Zv9O44ho" K.leftS
Substitution2: "+U1VOAGb/Y2IA +Z+VifgAA 68+Zv9O44ho" K.leftM
Substitution2: "+U1VOAGb/Y2IA +Z+VifgAA 67+Zv9O44ho" K.leftL
Substitution2: "+U1VOAGb/Y2IA +Z+VifgAA 66+Zv9O44ho" K.rightS
Substitution2: "+U1VOAGb/Y2IA +Z+VifgAA 65+Zv9O44ho" K.rightM
Substitution2: "+U1VOAGb/Y2IA +Z+VifgAA 64+Zv9O44ho" K.rightS
Substitution2: "+U1VOAGb/Y2IA +Z+VifgAA 63+Zv9O44ho" K.rightM
Substitution2: "+U1VOAGb/Y2IA +Z+VifgAA 62+Zv9O44ho" K.rightL
Substitution2: "+U1VOAGb/Y2IA +Z+VifgAA 61+Zv9O44ho" K.leftS
Substitution2: "+U1VOAGb/Y2IA +Z+VifgAA 60+Zv9O44ho" K.leftM
Substitution2: "+U1VOAGb/Y2IA +Z+VifgAA 59+Zv9O44ho" K.leftL
EndChar

StartChar: K.leftL
Encoding: 65604 -1 143
Width: 600
GlyphClass: 1
Flags: W
LayerCount: 2
Fore
SplineSet
208 700 m 1
 156 392 l 1
 463 700 l 1
 613 700 l 1
 325 411 l 1
 506 0 l 1
 364 0 l 1
 227 312 l 1
 126 211 l 1
 91 0 l 1
 -34 0 l 1
 83 700 l 1
 208 700 l 1
EndSplineSet
Validated: 1
EndChar

StartChar: K.leftM
Encoding: 65605 -1 144
Width: 600
GlyphClass: 1
Flags: W
LayerCount: 2
Fore
SplineSet
222 700 m 1
 170 392 l 1
 477 700 l 1
 627 700 l 1
 339 411 l 1
 520 0 l 1
 378 0 l 1
 241 312 l 1
 140 211 l 1
 105 0 l 1
 -20 0 l 1
 97 700 l 1
 222 700 l 1
EndSplineSet
Validated: 1
EndChar

StartChar: K.leftS
Encoding: 65606 -1 145
Width: 600
GlyphClass: 1
Flags: W
LayerCount: 2
Fore
SplineSet
234 700 m 1
 182 392 l 1
 489 700 l 1
 639 700 l 1
 351 411 l 1
 532 0 l 1
 390 0 l 1
 253 312 l 1
 152 211 l 1
 117 0 l 1
 -8 0 l 1
 109 700 l 1
 234 700 l 1
EndSplineSet
Validated: 1
EndChar

StartChar: K.rightL
Encoding: 65607 -1 146
Width: 600
GlyphClass: 1
Flags: W
LayerCount: 2
Fore
SplineSet
296 700 m 1
 244 392 l 1
 551 700 l 1
 701 700 l 1
 413 411 l 1
 594 0 l 1
 452 0 l 1
 315 312 l 1
 214 211 l 1
 179 0 l 1
 54 0 l 1
 171 700 l 1
 296 700 l 1
EndSplineSet
Validated: 1
EndChar

StartChar: K.rightM
Encoding: 65608 -1 147
Width: 600
GlyphClass: 1
Flags: W
LayerCount: 2
Fore
SplineSet
282 700 m 1
 230 392 l 1
 537 700 l 1
 687 700 l 1
 399 411 l 1
 580 0 l 1
 438 0 l 1
 301 312 l 1
 200 211 l 1
 165 0 l 1
 40 0 l 1
 157 700 l 1
 282 700 l 1
EndSplineSet
Validated: 1
EndChar

StartChar: K.rightS
Encoding: 65609 -1 148
Width: 600
GlyphClass: 1
Flags: W
LayerCount: 2
Fore
SplineSet
270 700 m 1
 218 392 l 1
 525 700 l 1
 675 700 l 1
 387 411 l 1
 568 0 l 1
 426 0 l 1
 289 312 l 1
 188 211 l 1
 153 0 l 1
 28 0 l 1
 145 700 l 1
 270 700 l 1
EndSplineSet
Validated: 1
EndChar

StartChar: Kappa
Encoding: 922 922 149
Width: 600
GlyphClass: 1
Flags: W
LayerCount: 2
Fore
SplineSet
252 700 m 1
 200 392 l 1
 507 700 l 1
 657 700 l 1
 369 411 l 1
 550 0 l 1
 408 0 l 1
 271 312 l 1
 170 211 l 1
 135 0 l 1
 10 0 l 1
 127 700 l 1
 252 700 l 1
EndSplineSet
Validated: 1
EndChar

StartChar: uni0136
Encoding: 310 310 150
Width: 600
GlyphClass: 1
Flags: W
LayerCount: 2
Fore
SplineSet
252 700 m 1
 200 392 l 1
 507 700 l 1
 657 700 l 1
 369 411 l 1
 550 0 l 1
 408 0 l 1
 271 312 l 1
 170 211 l 1
 135 0 l 1
 10 0 l 1
 127 700 l 1
 252 700 l 1
335 -70 m 1
 173 -270 l 1
 73 -270 l 1
 185 -70 l 1
 335 -70 l 1
EndSplineSet
Validated: 1
EndChar

StartChar: L
Encoding: 76 76 151
Width: 600
GlyphClass: 1
Flags: W
LayerCount: 2
Fore
SplineSet
65 0 m 1
 182 700 l 1
 307 700 l 1
 208 110 l 1
 495 110 l 1
 477 0 l 1
 65 0 l 1
EndSplineSet
Validated: 1
Substitution2: "+U1VOAGb/Y2IA +Z+VifgAA 72+Zv9O44ho" L.rightS
Substitution2: "+U1VOAGb/Y2IA +Z+VifgAA 71+Zv9O44ho" L.rightM
Substitution2: "+U1VOAGb/Y2IA +Z+VifgAA 70+Zv9O44ho" L.rightL
Substitution2: "+U1VOAGb/Y2IA +Z+VifgAA 69+Zv9O44ho" L.leftS
Substitution2: "+U1VOAGb/Y2IA +Z+VifgAA 68+Zv9O44ho" L.leftM
Substitution2: "+U1VOAGb/Y2IA +Z+VifgAA 67+Zv9O44ho" L.leftL
Substitution2: "+U1VOAGb/Y2IA +Z+VifgAA 66+Zv9O44ho" L.rightS
Substitution2: "+U1VOAGb/Y2IA +Z+VifgAA 65+Zv9O44ho" L.rightM
Substitution2: "+U1VOAGb/Y2IA +Z+VifgAA 64+Zv9O44ho" L.rightS
Substitution2: "+U1VOAGb/Y2IA +Z+VifgAA 63+Zv9O44ho" L.rightM
Substitution2: "+U1VOAGb/Y2IA +Z+VifgAA 62+Zv9O44ho" L.rightL
Substitution2: "+U1VOAGb/Y2IA +Z+VifgAA 61+Zv9O44ho" L.leftS
Substitution2: "+U1VOAGb/Y2IA +Z+VifgAA 60+Zv9O44ho" L.leftM
Substitution2: "+U1VOAGb/Y2IA +Z+VifgAA 59+Zv9O44ho" L.leftL
EndChar

StartChar: L.leftL
Encoding: 65610 -1 152
Width: 600
GlyphClass: 1
Flags: W
LayerCount: 2
Fore
SplineSet
21 0 m 1
 138 700 l 1
 263 700 l 1
 164 110 l 1
 451 110 l 1
 433 0 l 1
 21 0 l 1
EndSplineSet
Validated: 1
EndChar

StartChar: L.leftM
Encoding: 65611 -1 153
Width: 600
GlyphClass: 1
Flags: W
LayerCount: 2
Fore
SplineSet
35 0 m 1
 152 700 l 1
 277 700 l 1
 178 110 l 1
 465 110 l 1
 447 0 l 1
 35 0 l 1
EndSplineSet
Validated: 1
EndChar

StartChar: L.leftS
Encoding: 65612 -1 154
Width: 600
GlyphClass: 1
Flags: W
LayerCount: 2
Fore
SplineSet
47 0 m 1
 164 700 l 1
 289 700 l 1
 190 110 l 1
 477 110 l 1
 459 0 l 1
 47 0 l 1
EndSplineSet
Validated: 1
EndChar

StartChar: L.rightL
Encoding: 65613 -1 155
Width: 600
GlyphClass: 1
Flags: W
LayerCount: 2
Fore
SplineSet
109 0 m 1
 226 700 l 1
 351 700 l 1
 252 110 l 1
 539 110 l 1
 521 0 l 1
 109 0 l 1
EndSplineSet
Validated: 1
EndChar

StartChar: L.rightM
Encoding: 65614 -1 156
Width: 600
GlyphClass: 1
Flags: W
LayerCount: 2
Fore
SplineSet
95 0 m 1
 212 700 l 1
 337 700 l 1
 238 110 l 1
 525 110 l 1
 507 0 l 1
 95 0 l 1
EndSplineSet
Validated: 1
EndChar

StartChar: L.rightS
Encoding: 65615 -1 157
Width: 600
GlyphClass: 1
Flags: W
LayerCount: 2
Fore
SplineSet
77 0 m 1
 194 700 l 1
 319 700 l 1
 220 110 l 1
 507 110 l 1
 489 0 l 1
 77 0 l 1
EndSplineSet
Validated: 1
EndChar

StartChar: Lacute
Encoding: 313 313 158
Width: 600
GlyphClass: 1
Flags: W
LayerCount: 2
Fore
SplineSet
65 0 m 1
 182 700 l 1
 307 700 l 1
 208 110 l 1
 495 110 l 1
 477 0 l 1
 65 0 l 1
448 980 m 1
 285 780 l 1
 185 780 l 1
 298 980 l 1
 448 980 l 1
EndSplineSet
Validated: 1
EndChar

StartChar: Lambda
Encoding: 923 923 159
Width: 600
GlyphClass: 1
Flags: W
LayerCount: 2
Fore
SplineSet
451 700 m 1
 530 0 l 1
 404 0 l 1
 346 566 l 1
 342 566 l 1
 94 0 l 1
 -30 0 l 1
 283 700 l 1
 451 700 l 1
EndSplineSet
Validated: 1
EndChar

StartChar: Lcaron
Encoding: 317 317 160
Width: 600
GlyphClass: 1
Flags: W
LayerCount: 2
Fore
SplineSet
65 0 m 1
 182 700 l 1
 307 700 l 1
 208 110 l 1
 495 110 l 1
 477 0 l 1
 65 0 l 1
308 500 m 1
 389 500 457 550 468 618 c 0
 468 620 469 622 469 624 c 1
 457 617 444 613 431 613 c 0
 390 613 365 650 373 696 c 0
 382 747 427 785 478 785 c 0
 544 785 580 722 565 634 c 0
 543 505 426 410 294 414 c 1
 308 500 l 1
EndSplineSet
Validated: 33
EndChar

StartChar: uni013B
Encoding: 315 315 161
Width: 600
GlyphClass: 1
Flags: W
LayerCount: 2
Fore
SplineSet
65 0 m 1
 182 700 l 1
 307 700 l 1
 208 110 l 1
 495 110 l 1
 477 0 l 1
 65 0 l 1
336 -70 m 1
 174 -270 l 1
 74 -270 l 1
 186 -70 l 1
 336 -70 l 1
EndSplineSet
Validated: 1
EndChar

StartChar: Ldot
Encoding: 319 319 162
Width: 600
GlyphClass: 1
Flags: W
LayerCount: 2
Fore
SplineSet
65 0 m 1
 182 700 l 1
 307 700 l 1
 208 110 l 1
 495 110 l 1
 477 0 l 1
 65 0 l 1
394 390 m 0
 403 443 453 485 505 485 c 0
 558 485 593 443 584 390 c 0
 575 338 526 295 473 295 c 0
 421 295 385 338 394 390 c 0
EndSplineSet
Validated: 33
Substitution2: "'cv03' +W1d7JlPYT1MA-03 +Z+VifgAA 2+Zv9O44ho" Ldot.square
EndChar

StartChar: Ldot.square
Encoding: 65616 -1 163
Width: 600
GlyphClass: 1
Flags: W
LayerCount: 2
Fore
SplineSet
65 0 m 1
 182 700 l 1
 307 700 l 1
 208 110 l 1
 495 110 l 1
 477 0 l 1
 65 0 l 1
388 282 m 1
 416 448 l 1
 582 448 l 1
 554 282 l 1
 388 282 l 1
EndSplineSet
Validated: 1
EndChar

StartChar: Lslash
Encoding: 321 321 164
Width: 600
GlyphClass: 1
Flags: W
LayerCount: 2
Fore
SplineSet
65 0 m 1
 112 279 l 1
 8 229 l 1
 27 341 l 1
 130 391 l 1
 182 700 l 1
 307 700 l 1
 266 457 l 1
 470 555 l 1
 452 443 l 1
 247 344 l 1
 208 110 l 1
 495 110 l 1
 477 0 l 1
 65 0 l 1
EndSplineSet
Validated: 1
EndChar

StartChar: M
Encoding: 77 77 165
Width: 600
GlyphClass: 1
Flags: W
LayerCount: 2
Fore
SplineSet
188 556 m 1
 95 0 l 1
 -20 0 l 1
 97 700 l 1
 269 700 l 1
 295 283 l 1
 299 283 l 1
 465 700 l 1
 637 700 l 1
 520 0 l 1
 405 0 l 1
 498 556 l 1
 494 556 l 1
 328 140 l 1
 218 140 l 1
 192 556 l 1
 188 556 l 1
EndSplineSet
Validated: 1
Substitution2: "+U1VOAGb/Y2IA +Z+VifgAA 72+Zv9O44ho" M.rightS
Substitution2: "+U1VOAGb/Y2IA +Z+VifgAA 71+Zv9O44ho" M.rightM
Substitution2: "+U1VOAGb/Y2IA +Z+VifgAA 70+Zv9O44ho" M.rightL
Substitution2: "+U1VOAGb/Y2IA +Z+VifgAA 69+Zv9O44ho" M.leftS
Substitution2: "+U1VOAGb/Y2IA +Z+VifgAA 68+Zv9O44ho" M.leftM
Substitution2: "+U1VOAGb/Y2IA +Z+VifgAA 67+Zv9O44ho" M.leftL
Substitution2: "+U1VOAGb/Y2IA +Z+VifgAA 66+Zv9O44ho" M.rightS
Substitution2: "+U1VOAGb/Y2IA +Z+VifgAA 65+Zv9O44ho" M.rightM
Substitution2: "+U1VOAGb/Y2IA +Z+VifgAA 64+Zv9O44ho" M.rightS
Substitution2: "+U1VOAGb/Y2IA +Z+VifgAA 63+Zv9O44ho" M.rightM
Substitution2: "+U1VOAGb/Y2IA +Z+VifgAA 62+Zv9O44ho" M.rightL
Substitution2: "+U1VOAGb/Y2IA +Z+VifgAA 61+Zv9O44ho" M.leftS
Substitution2: "+U1VOAGb/Y2IA +Z+VifgAA 60+Zv9O44ho" M.leftM
Substitution2: "+U1VOAGb/Y2IA +Z+VifgAA 59+Zv9O44ho" M.leftL
EndChar

StartChar: M.leftL
Encoding: 65617 -1 166
Width: 600
GlyphClass: 1
Flags: W
LayerCount: 2
Fore
SplineSet
144 556 m 1
 51 0 l 1
 -64 0 l 1
 53 700 l 1
 225 700 l 1
 251 283 l 1
 255 283 l 1
 421 700 l 1
 593 700 l 1
 476 0 l 1
 361 0 l 1
 454 556 l 1
 450 556 l 1
 284 140 l 1
 174 140 l 1
 148 556 l 1
 144 556 l 1
EndSplineSet
Validated: 1
EndChar

StartChar: M.leftM
Encoding: 65618 -1 167
Width: 600
GlyphClass: 1
Flags: W
LayerCount: 2
Fore
SplineSet
158 556 m 1
 65 0 l 1
 -50 0 l 1
 67 700 l 1
 239 700 l 1
 265 283 l 1
 269 283 l 1
 435 700 l 1
 607 700 l 1
 490 0 l 1
 375 0 l 1
 468 556 l 1
 464 556 l 1
 298 140 l 1
 188 140 l 1
 162 556 l 1
 158 556 l 1
EndSplineSet
Validated: 1
EndChar

StartChar: M.leftS
Encoding: 65619 -1 168
Width: 600
GlyphClass: 1
Flags: W
LayerCount: 2
Fore
SplineSet
170 556 m 1
 77 0 l 1
 -38 0 l 1
 79 700 l 1
 251 700 l 1
 277 283 l 1
 281 283 l 1
 447 700 l 1
 619 700 l 1
 502 0 l 1
 387 0 l 1
 480 556 l 1
 476 556 l 1
 310 140 l 1
 200 140 l 1
 174 556 l 1
 170 556 l 1
EndSplineSet
Validated: 1
EndChar

StartChar: M.rightL
Encoding: 65620 -1 169
Width: 600
GlyphClass: 1
Flags: W
LayerCount: 2
Fore
SplineSet
232 556 m 1
 139 0 l 1
 24 0 l 1
 141 700 l 1
 313 700 l 1
 339 283 l 1
 343 283 l 1
 509 700 l 1
 681 700 l 1
 564 0 l 1
 449 0 l 1
 542 556 l 1
 538 556 l 1
 372 140 l 1
 262 140 l 1
 236 556 l 1
 232 556 l 1
EndSplineSet
Validated: 1
EndChar

StartChar: M.rightM
Encoding: 65621 -1 170
Width: 600
GlyphClass: 1
Flags: W
LayerCount: 2
Fore
SplineSet
218 556 m 1
 125 0 l 1
 10 0 l 1
 127 700 l 1
 299 700 l 1
 325 283 l 1
 329 283 l 1
 495 700 l 1
 667 700 l 1
 550 0 l 1
 435 0 l 1
 528 556 l 1
 524 556 l 1
 358 140 l 1
 248 140 l 1
 222 556 l 1
 218 556 l 1
EndSplineSet
Validated: 1
EndChar

StartChar: M.rightS
Encoding: 65622 -1 171
Width: 600
GlyphClass: 1
Flags: W
LayerCount: 2
Fore
SplineSet
206 556 m 1
 113 0 l 1
 -2 0 l 1
 115 700 l 1
 287 700 l 1
 313 283 l 1
 317 283 l 1
 483 700 l 1
 655 700 l 1
 538 0 l 1
 423 0 l 1
 516 556 l 1
 512 556 l 1
 346 140 l 1
 236 140 l 1
 210 556 l 1
 206 556 l 1
EndSplineSet
Validated: 1
EndChar

StartChar: Mu
Encoding: 924 924 172
Width: 600
GlyphClass: 1
Flags: W
LayerCount: 2
Fore
SplineSet
188 556 m 1
 95 0 l 1
 -20 0 l 1
 97 700 l 1
 269 700 l 1
 295 283 l 1
 299 283 l 1
 465 700 l 1
 637 700 l 1
 520 0 l 1
 405 0 l 1
 498 556 l 1
 494 556 l 1
 328 140 l 1
 218 140 l 1
 192 556 l 1
 188 556 l 1
EndSplineSet
Validated: 1
EndChar

StartChar: N
Encoding: 78 78 173
Width: 600
GlyphClass: 1
Flags: W
LayerCount: 2
Fore
SplineSet
411 185 m 1
 497 700 l 1
 612 700 l 1
 495 0 l 1
 330 0 l 1
 220 579 l 1
 216 579 l 1
 120 0 l 1
 5 0 l 1
 122 700 l 1
 310 700 l 1
 407 185 l 1
 411 185 l 1
EndSplineSet
Validated: 1
Substitution2: "+U1VOAGb/Y2IA +Z+VifgAA 72+Zv9O44ho" N.rightS
Substitution2: "+U1VOAGb/Y2IA +Z+VifgAA 71+Zv9O44ho" N.rightM
Substitution2: "+U1VOAGb/Y2IA +Z+VifgAA 70+Zv9O44ho" N.rightL
Substitution2: "+U1VOAGb/Y2IA +Z+VifgAA 69+Zv9O44ho" N.leftS
Substitution2: "+U1VOAGb/Y2IA +Z+VifgAA 68+Zv9O44ho" N.leftM
Substitution2: "+U1VOAGb/Y2IA +Z+VifgAA 67+Zv9O44ho" N.leftL
Substitution2: "+U1VOAGb/Y2IA +Z+VifgAA 66+Zv9O44ho" N.rightS
Substitution2: "+U1VOAGb/Y2IA +Z+VifgAA 65+Zv9O44ho" N.rightM
Substitution2: "+U1VOAGb/Y2IA +Z+VifgAA 64+Zv9O44ho" N.rightS
Substitution2: "+U1VOAGb/Y2IA +Z+VifgAA 63+Zv9O44ho" N.rightM
Substitution2: "+U1VOAGb/Y2IA +Z+VifgAA 62+Zv9O44ho" N.rightL
Substitution2: "+U1VOAGb/Y2IA +Z+VifgAA 61+Zv9O44ho" N.leftS
Substitution2: "+U1VOAGb/Y2IA +Z+VifgAA 60+Zv9O44ho" N.leftM
Substitution2: "+U1VOAGb/Y2IA +Z+VifgAA 59+Zv9O44ho" N.leftL
EndChar

StartChar: N.leftL
Encoding: 65623 -1 174
Width: 600
GlyphClass: 1
Flags: W
LayerCount: 2
Fore
SplineSet
369 185 m 1
 455 700 l 1
 570 700 l 1
 453 0 l 1
 288 0 l 1
 178 579 l 1
 174 579 l 1
 78 0 l 1
 -37 0 l 1
 80 700 l 1
 268 700 l 1
 365 185 l 1
 369 185 l 1
EndSplineSet
Validated: 1
EndChar

StartChar: N.leftM
Encoding: 65624 -1 175
Width: 600
GlyphClass: 1
Flags: W
LayerCount: 2
Fore
SplineSet
384 185 m 1
 470 700 l 1
 585 700 l 1
 468 0 l 1
 303 0 l 1
 193 579 l 1
 189 579 l 1
 93 0 l 1
 -22 0 l 1
 95 700 l 1
 283 700 l 1
 380 185 l 1
 384 185 l 1
EndSplineSet
Validated: 1
EndChar

StartChar: N.leftS
Encoding: 65625 -1 176
Width: 600
GlyphClass: 1
Flags: W
LayerCount: 2
Fore
SplineSet
399 185 m 1
 485 700 l 1
 600 700 l 1
 483 0 l 1
 318 0 l 1
 208 579 l 1
 204 579 l 1
 108 0 l 1
 -7 0 l 1
 110 700 l 1
 298 700 l 1
 395 185 l 1
 399 185 l 1
EndSplineSet
Validated: 1
EndChar

StartChar: N.rightL
Encoding: 65626 -1 177
Width: 600
GlyphClass: 1
Flags: W
LayerCount: 2
Fore
SplineSet
453 185 m 1
 539 700 l 1
 654 700 l 1
 537 0 l 1
 372 0 l 1
 262 579 l 1
 258 579 l 1
 162 0 l 1
 47 0 l 1
 164 700 l 1
 352 700 l 1
 449 185 l 1
 453 185 l 1
EndSplineSet
Validated: 1
EndChar

StartChar: N.rightM
Encoding: 65627 -1 178
Width: 600
GlyphClass: 1
Flags: W
LayerCount: 2
Fore
SplineSet
438 185 m 1
 524 700 l 1
 639 700 l 1
 522 0 l 1
 357 0 l 1
 247 579 l 1
 243 579 l 1
 147 0 l 1
 32 0 l 1
 149 700 l 1
 337 700 l 1
 434 185 l 1
 438 185 l 1
EndSplineSet
Validated: 1
EndChar

StartChar: N.rightS
Encoding: 65628 -1 179
Width: 600
GlyphClass: 1
Flags: W
LayerCount: 2
Fore
SplineSet
423 185 m 1
 509 700 l 1
 624 700 l 1
 507 0 l 1
 342 0 l 1
 232 579 l 1
 228 579 l 1
 132 0 l 1
 17 0 l 1
 134 700 l 1
 322 700 l 1
 419 185 l 1
 423 185 l 1
EndSplineSet
Validated: 1
EndChar

StartChar: Nacute
Encoding: 323 323 180
Width: 600
GlyphClass: 1
Flags: W
LayerCount: 2
Fore
SplineSet
411 185 m 1
 497 700 l 1
 612 700 l 1
 495 0 l 1
 330 0 l 1
 220 579 l 1
 216 579 l 1
 120 0 l 1
 5 0 l 1
 122 700 l 1
 310 700 l 1
 407 185 l 1
 411 185 l 1
568 980 m 1
 405 780 l 1
 305 780 l 1
 418 980 l 1
 568 980 l 1
EndSplineSet
Validated: 1
EndChar

StartChar: Ncaron
Encoding: 327 327 181
Width: 600
GlyphClass: 1
Flags: W
LayerCount: 2
Fore
SplineSet
411 185 m 1
 497 700 l 1
 612 700 l 1
 495 0 l 1
 330 0 l 1
 220 579 l 1
 216 579 l 1
 120 0 l 1
 5 0 l 1
 122 700 l 1
 310 700 l 1
 407 185 l 1
 411 185 l 1
324 771 m 1
 238 971 l 1
 333 971 l 1
 395 869 l 1
 491 971 l 1
 586 971 l 1
 434 771 l 1
 324 771 l 1
EndSplineSet
Validated: 1
EndChar

StartChar: uni0145
Encoding: 325 325 182
Width: 600
GlyphClass: 1
Flags: W
LayerCount: 2
Fore
SplineSet
411 185 m 1
 497 700 l 1
 612 700 l 1
 495 0 l 1
 330 0 l 1
 220 579 l 1
 216 579 l 1
 120 0 l 1
 5 0 l 1
 122 700 l 1
 310 700 l 1
 407 185 l 1
 411 185 l 1
310 -70 m 1
 148 -270 l 1
 48 -270 l 1
 160 -70 l 1
 310 -70 l 1
EndSplineSet
Validated: 1
EndChar

StartChar: Ntilde
Encoding: 209 209 183
Width: 600
GlyphClass: 1
Flags: W
LayerCount: 2
Fore
SplineSet
411 185 m 1
 497 700 l 1
 612 700 l 1
 495 0 l 1
 330 0 l 1
 220 579 l 1
 216 579 l 1
 120 0 l 1
 5 0 l 1
 122 700 l 1
 310 700 l 1
 407 185 l 1
 411 185 l 1
200 799 m 1
 205 832 l 2
 219 914 270 963 343 963 c 0
 438 963 440 878 465 878 c 0
 475 878 481 892 488 928 c 2
 492 949 l 1
 592 949 l 1
 587 916 l 2
 573 834 522 785 449 785 c 0
 354 785 354 870 329 870 c 0
 319 870 311 855 304 820 c 2
 300 799 l 1
 200 799 l 1
EndSplineSet
Validated: 1
EndChar

StartChar: Nu
Encoding: 925 925 184
Width: 600
GlyphClass: 1
Flags: W
LayerCount: 2
Fore
SplineSet
411 185 m 1
 497 700 l 1
 612 700 l 1
 495 0 l 1
 330 0 l 1
 220 579 l 1
 216 579 l 1
 120 0 l 1
 5 0 l 1
 122 700 l 1
 310 700 l 1
 407 185 l 1
 411 185 l 1
EndSplineSet
Validated: 1
EndChar

StartChar: O
Encoding: 79 79 185
Width: 600
GlyphClass: 1
Flags: W
LayerCount: 2
Fore
SplineSet
248 -10 m 0
 89 -10 3 138 38 350 c 0
 73 562 209 710 368 710 c 0
 527 710 613 562 578 350 c 0
 543 138 407 -10 248 -10 c 0
268 105 m 0
 356 105 428 202 453 350 c 0
 478 498 437 595 349 595 c 0
 261 595 188 498 163 350 c 0
 138 202 180 105 268 105 c 0
EndSplineSet
Validated: 33
Substitution2: "+U1VOAGb/Y2IA +Z+VifgAA 72+Zv9O44ho" O.rightS
Substitution2: "+U1VOAGb/Y2IA +Z+VifgAA 71+Zv9O44ho" O.rightM
Substitution2: "+U1VOAGb/Y2IA +Z+VifgAA 70+Zv9O44ho" O.rightL
Substitution2: "+U1VOAGb/Y2IA +Z+VifgAA 69+Zv9O44ho" O.leftS
Substitution2: "+U1VOAGb/Y2IA +Z+VifgAA 68+Zv9O44ho" O.leftM
Substitution2: "+U1VOAGb/Y2IA +Z+VifgAA 67+Zv9O44ho" O.leftL
Substitution2: "+U1VOAGb/Y2IA +Z+VifgAA 66+Zv9O44ho" O.rightS
Substitution2: "+U1VOAGb/Y2IA +Z+VifgAA 65+Zv9O44ho" O.rightM
Substitution2: "+U1VOAGb/Y2IA +Z+VifgAA 64+Zv9O44ho" O.rightS
Substitution2: "+U1VOAGb/Y2IA +Z+VifgAA 63+Zv9O44ho" O.rightM
Substitution2: "+U1VOAGb/Y2IA +Z+VifgAA 62+Zv9O44ho" O.rightL
Substitution2: "+U1VOAGb/Y2IA +Z+VifgAA 61+Zv9O44ho" O.leftS
Substitution2: "+U1VOAGb/Y2IA +Z+VifgAA 60+Zv9O44ho" O.leftM
Substitution2: "+U1VOAGb/Y2IA +Z+VifgAA 59+Zv9O44ho" O.leftL
EndChar

StartChar: O.leftL
Encoding: 65629 -1 186
Width: 600
GlyphClass: 1
Flags: W
LayerCount: 2
Fore
SplineSet
204 -10 m 0
 45 -10 -41 138 -6 350 c 0
 29 562 165 710 324 710 c 0
 483 710 569 562 534 350 c 0
 499 138 363 -10 204 -10 c 0
224 105 m 0
 312 105 384 202 409 350 c 0
 434 498 393 595 305 595 c 0
 217 595 144 498 119 350 c 0
 94 202 136 105 224 105 c 0
EndSplineSet
Validated: 33
EndChar

StartChar: O.leftM
Encoding: 65630 -1 187
Width: 600
GlyphClass: 1
Flags: W
LayerCount: 2
Fore
SplineSet
218 -10 m 0
 59 -10 -27 138 8 350 c 0
 43 562 179 710 338 710 c 0
 497 710 583 562 548 350 c 0
 513 138 377 -10 218 -10 c 0
238 105 m 0
 326 105 398 202 423 350 c 0
 448 498 407 595 319 595 c 0
 231 595 158 498 133 350 c 0
 108 202 150 105 238 105 c 0
EndSplineSet
Validated: 33
EndChar

StartChar: O.leftS
Encoding: 65631 -1 188
Width: 600
GlyphClass: 1
Flags: W
LayerCount: 2
Fore
SplineSet
230 -10 m 0
 71 -10 -15 138 20 350 c 0
 55 562 191 710 350 710 c 0
 509 710 595 562 560 350 c 0
 525 138 389 -10 230 -10 c 0
250 105 m 0
 338 105 410 202 435 350 c 0
 460 498 419 595 331 595 c 0
 243 595 170 498 145 350 c 0
 120 202 162 105 250 105 c 0
EndSplineSet
Validated: 33
EndChar

StartChar: O.rightL
Encoding: 65632 -1 189
Width: 600
GlyphClass: 1
Flags: W
LayerCount: 2
Fore
SplineSet
292 -10 m 0
 133 -10 47 138 82 350 c 0
 117 562 253 710 412 710 c 0
 571 710 657 562 622 350 c 0
 587 138 451 -10 292 -10 c 0
312 105 m 0
 400 105 472 202 497 350 c 0
 522 498 481 595 393 595 c 0
 305 595 232 498 207 350 c 0
 182 202 224 105 312 105 c 0
EndSplineSet
Validated: 33
EndChar

StartChar: O.rightM
Encoding: 65633 -1 190
Width: 600
GlyphClass: 1
Flags: W
LayerCount: 2
Fore
SplineSet
278 -10 m 0
 119 -10 33 138 68 350 c 0
 103 562 239 710 398 710 c 0
 557 710 643 562 608 350 c 0
 573 138 437 -10 278 -10 c 0
298 105 m 0
 386 105 458 202 483 350 c 0
 508 498 467 595 379 595 c 0
 291 595 218 498 193 350 c 0
 168 202 210 105 298 105 c 0
EndSplineSet
Validated: 33
EndChar

StartChar: O.rightS
Encoding: 65634 -1 191
Width: 600
GlyphClass: 1
Flags: W
LayerCount: 2
Fore
SplineSet
260 -10 m 0
 101 -10 15 138 50 350 c 0
 85 562 221 710 380 710 c 0
 539 710 625 562 590 350 c 0
 555 138 419 -10 260 -10 c 0
280 105 m 0
 368 105 440 202 465 350 c 0
 490 498 449 595 361 595 c 0
 273 595 200 498 175 350 c 0
 150 202 192 105 280 105 c 0
EndSplineSet
Validated: 33
EndChar

StartChar: OE
Encoding: 338 338 192
Width: 600
GlyphClass: 1
Flags: W
LayerCount: 2
Fore
SplineSet
201 0 m 2
 69 0 -3 147 31 350 c 0
 65 553 186 700 318 700 c 2
 647 700 l 1
 628 590 l 1
 444 590 l 1
 416 418 l 1
 566 418 l 1
 547 308 l 1
 397 308 l 1
 364 110 l 1
 548 110 l 1
 530 0 l 1
 201 0 l 2
299 590 m 2
 235 590 175 493 151 350 c 0
 127 207 155 110 219 110 c 2
 244 110 l 1
 324 590 l 1
 299 590 l 2
EndSplineSet
Validated: 33
EndChar

StartChar: Oacute
Encoding: 211 211 193
Width: 600
GlyphClass: 1
Flags: W
LayerCount: 2
Fore
SplineSet
248 -10 m 0
 89 -10 3 138 38 350 c 0
 73 562 209 710 368 710 c 0
 527 710 613 562 578 350 c 0
 543 138 407 -10 248 -10 c 0
268 105 m 0
 356 105 428 202 453 350 c 0
 478 498 437 595 349 595 c 0
 261 595 188 498 163 350 c 0
 138 202 180 105 268 105 c 0
568 980 m 1
 405 780 l 1
 305 780 l 1
 418 980 l 1
 568 980 l 1
EndSplineSet
Validated: 33
EndChar

StartChar: Obreve
Encoding: 334 334 194
Width: 600
GlyphClass: 1
Flags: W
LayerCount: 2
Fore
SplineSet
248 -10 m 0
 89 -10 3 138 38 350 c 0
 73 562 209 710 368 710 c 0
 527 710 613 562 578 350 c 0
 543 138 407 -10 248 -10 c 0
268 105 m 0
 356 105 428 202 453 350 c 0
 478 498 437 595 349 595 c 0
 261 595 188 498 163 350 c 0
 138 202 180 105 268 105 c 0
350 932 m 1
 347 892 365 866 395 866 c 0
 425 866 451 892 462 932 c 1
 557 932 l 1
 542 841 468 776 380 776 c 0
 292 776 240 841 255 932 c 1
 350 932 l 1
EndSplineSet
Validated: 33
EndChar

StartChar: Ocircumflex
Encoding: 212 212 195
Width: 600
GlyphClass: 1
Flags: W
LayerCount: 2
Fore
SplineSet
248 -10 m 0
 89 -10 3 138 38 350 c 0
 73 562 209 710 368 710 c 0
 527 710 613 562 578 350 c 0
 543 138 407 -10 248 -10 c 0
268 105 m 0
 356 105 428 202 453 350 c 0
 478 498 437 595 349 595 c 0
 261 595 188 498 163 350 c 0
 138 202 180 105 268 105 c 0
205 771 m 1
 357 971 l 1
 467 971 l 1
 553 771 l 1
 458 771 l 1
 396 873 l 1
 300 771 l 1
 205 771 l 1
EndSplineSet
Validated: 33
EndChar

StartChar: Odieresis
Encoding: 214 214 196
Width: 600
GlyphClass: 1
Flags: W
LayerCount: 2
Fore
SplineSet
248 -10 m 0
 89 -10 3 138 38 350 c 0
 73 562 209 710 368 710 c 0
 527 710 613 562 578 350 c 0
 543 138 407 -10 248 -10 c 0
268 105 m 0
 356 105 428 202 453 350 c 0
 478 498 437 595 349 595 c 0
 261 595 188 498 163 350 c 0
 138 202 180 105 268 105 c 0
200 859 m 0
 208 906 251 943 297 943 c 0
 344 943 375 906 367 859 c 0
 359 813 317 776 270 776 c 0
 224 776 192 813 200 859 c 0
420 859 m 0
 428 906 471 943 517 943 c 0
 564 943 595 906 587 859 c 0
 579 813 537 776 490 776 c 0
 444 776 412 813 420 859 c 0
EndSplineSet
Validated: 33
Substitution2: "'cv03' +W1d7JlPYT1MA-03 +Z+VifgAA 2+Zv9O44ho" Odieresis.square
EndChar

StartChar: Odieresis.square
Encoding: 65635 -1 197
Width: 600
GlyphClass: 1
Flags: W
LayerCount: 2
Fore
SplineSet
248 -10 m 0
 89 -10 3 138 38 350 c 0
 73 562 209 710 368 710 c 0
 527 710 613 562 578 350 c 0
 543 138 407 -10 248 -10 c 0
268 105 m 0
 356 105 428 202 453 350 c 0
 478 498 437 595 349 595 c 0
 261 595 188 498 163 350 c 0
 138 202 180 105 268 105 c 0
197 775 m 1
 221 920 l 1
 366 920 l 1
 342 775 l 1
 197 775 l 1
417 775 m 1
 441 920 l 1
 586 920 l 1
 562 775 l 1
 417 775 l 1
EndSplineSet
Validated: 33
EndChar

StartChar: Ograve
Encoding: 210 210 198
Width: 600
GlyphClass: 1
Flags: W
LayerCount: 2
Fore
SplineSet
248 -10 m 0
 89 -10 3 138 38 350 c 0
 73 562 209 710 368 710 c 0
 527 710 613 562 578 350 c 0
 543 138 407 -10 248 -10 c 0
268 105 m 0
 356 105 428 202 453 350 c 0
 478 498 437 595 349 595 c 0
 261 595 188 498 163 350 c 0
 138 202 180 105 268 105 c 0
455 780 m 1
 355 780 l 1
 260 980 l 1
 410 980 l 1
 455 780 l 1
EndSplineSet
Validated: 33
EndChar

StartChar: uni2126
Encoding: 8486 8486 199
Width: 600
GlyphClass: 1
Flags: W
LayerCount: 2
Fore
SplineSet
350 600 m 0
 268 600 190 505 169 382 c 0
 152 280 178 182 240 120 c 1
 220 0 l 1
 -13 0 l 1
 5 110 l 1
 130 110 l 1
 131 114 l 1
 60 172 27 278 46 394 c 0
 75 571 216 710 368 710 c 0
 520 710 615 571 586 395 c 0
 567 278 498 172 407 114 c 1
 406 110 l 1
 531 110 l 1
 513 0 l 1
 280 0 l 1
 300 120 l 1
 382 182 442 280 459 382 c 0
 480 505 432 600 350 600 c 0
EndSplineSet
Validated: 33
EndChar

StartChar: Ohungarumlaut
Encoding: 336 336 200
Width: 600
GlyphClass: 1
Flags: W
LayerCount: 2
Fore
SplineSet
248 -10 m 0
 89 -10 3 138 38 350 c 0
 73 562 209 710 368 710 c 0
 527 710 613 562 578 350 c 0
 543 138 407 -10 248 -10 c 0
268 105 m 0
 356 105 428 202 453 350 c 0
 478 498 437 595 349 595 c 0
 261 595 188 498 163 350 c 0
 138 202 180 105 268 105 c 0
490 980 m 1
 327 780 l 1
 227 780 l 1
 340 980 l 1
 490 980 l 1
670 980 m 1
 507 780 l 1
 407 780 l 1
 520 980 l 1
 670 980 l 1
EndSplineSet
Validated: 33
EndChar

StartChar: Omacron
Encoding: 332 332 201
Width: 600
GlyphClass: 1
Flags: W
LayerCount: 2
Fore
SplineSet
248 -10 m 0
 89 -10 3 138 38 350 c 0
 73 562 209 710 368 710 c 0
 527 710 613 562 578 350 c 0
 543 138 407 -10 248 -10 c 0
268 105 m 0
 356 105 428 202 453 350 c 0
 478 498 437 595 349 595 c 0
 261 595 188 498 163 350 c 0
 138 202 180 105 268 105 c 0
223 800 m 1
 240 900 l 1
 560 900 l 1
 543 800 l 1
 223 800 l 1
EndSplineSet
Validated: 33
EndChar

StartChar: uni03A9
Encoding: 937 937 202
Width: 600
GlyphClass: 1
Flags: W
LayerCount: 2
Fore
SplineSet
350 600 m 0
 268 600 190 505 169 382 c 0
 152 280 178 182 240 120 c 1
 220 0 l 1
 -13 0 l 1
 5 110 l 1
 130 110 l 1
 131 114 l 1
 60 172 27 278 46 394 c 0
 75 571 216 710 368 710 c 0
 520 710 615 571 586 395 c 0
 567 278 498 172 407 114 c 1
 406 110 l 1
 531 110 l 1
 513 0 l 1
 280 0 l 1
 300 120 l 1
 382 182 442 280 459 382 c 0
 480 505 432 600 350 600 c 0
EndSplineSet
Validated: 33
EndChar

StartChar: Omegatonos
Encoding: 911 911 203
Width: 600
GlyphClass: 1
Flags: W
LayerCount: 2
Fore
SplineSet
350 600 m 0
 268 600 190 505 169 382 c 0
 152 280 178 182 240 120 c 1
 220 0 l 1
 -13 0 l 1
 5 110 l 1
 130 110 l 1
 131 114 l 1
 60 172 27 278 46 394 c 0
 75 571 216 710 368 710 c 0
 520 710 615 571 586 395 c 0
 567 278 498 172 407 114 c 1
 406 110 l 1
 531 110 l 1
 513 0 l 1
 280 0 l 1
 300 120 l 1
 382 182 442 280 459 382 c 0
 480 505 432 600 350 600 c 0
186 780 m 1
 70 560 l 1
 -20 560 l 1
 46 780 l 1
 186 780 l 1
EndSplineSet
Validated: 33
EndChar

StartChar: Omicron
Encoding: 927 927 204
Width: 600
GlyphClass: 1
Flags: W
LayerCount: 2
Fore
SplineSet
248 -10 m 0
 89 -10 3 138 38 350 c 0
 73 562 209 710 368 710 c 0
 527 710 613 562 578 350 c 0
 543 138 407 -10 248 -10 c 0
268 105 m 0
 356 105 428 202 453 350 c 0
 478 498 437 595 349 595 c 0
 261 595 188 498 163 350 c 0
 138 202 180 105 268 105 c 0
EndSplineSet
Validated: 33
EndChar

StartChar: Omicrontonos
Encoding: 908 908 205
Width: 600
GlyphClass: 1
Flags: W
LayerCount: 2
Fore
SplineSet
248 -10 m 0
 89 -10 3 138 38 350 c 0
 73 562 209 710 368 710 c 0
 527 710 613 562 578 350 c 0
 543 138 407 -10 248 -10 c 0
268 105 m 0
 356 105 428 202 453 350 c 0
 478 498 437 595 349 595 c 0
 261 595 188 498 163 350 c 0
 138 202 180 105 268 105 c 0
186 780 m 1
 70 560 l 1
 -20 560 l 1
 46 780 l 1
 186 780 l 1
EndSplineSet
Validated: 33
EndChar

StartChar: Oslash
Encoding: 216 216 206
Width: 600
GlyphClass: 1
Flags: W
LayerCount: 2
Fore
SplineSet
-14 -34 m 1
 72 88 l 1
 34 151 20 242 38 350 c 0
 73 562 209 710 368 710 c 0
 414 710 454 698 487 675 c 1
 558 776 l 1
 631 734 l 1
 545 612 l 1
 582 548 596 457 578 350 c 0
 543 138 407 -10 248 -10 c 0
 202 -10 163 2 130 25 c 1
 59 -76 l 1
 -14 -34 l 1
163 350 m 0
 154 297 154 251 161 214 c 1
 414 571 l 1
 396 587 375 595 349 595 c 0
 261 595 188 498 163 350 c 0
268 105 m 0
 356 105 428 202 453 350 c 0
 462 402 462 448 456 486 c 1
 203 129 l 1
 221 113 242 105 268 105 c 0
EndSplineSet
Validated: 33
EndChar

StartChar: Oslashacute
Encoding: 510 510 207
Width: 600
GlyphClass: 1
Flags: W
LayerCount: 2
Fore
SplineSet
-14 -34 m 1
 72 88 l 1
 34 151 20 242 38 350 c 0
 73 562 209 710 368 710 c 0
 414 710 454 698 487 675 c 1
 558 776 l 1
 631 734 l 1
 545 612 l 1
 582 548 596 457 578 350 c 0
 543 138 407 -10 248 -10 c 0
 202 -10 163 2 130 25 c 1
 59 -76 l 1
 -14 -34 l 1
163 350 m 0
 154 297 154 251 161 214 c 1
 414 571 l 1
 396 587 375 595 349 595 c 0
 261 595 188 498 163 350 c 0
268 105 m 0
 356 105 428 202 453 350 c 0
 462 402 462 448 456 486 c 1
 203 129 l 1
 221 113 242 105 268 105 c 0
566 980 m 1
 403 780 l 1
 303 780 l 1
 416 980 l 1
 566 980 l 1
EndSplineSet
Validated: 33
EndChar

StartChar: Otilde
Encoding: 213 213 208
Width: 600
GlyphClass: 1
Flags: W
LayerCount: 2
Fore
SplineSet
248 -10 m 0
 89 -10 3 138 38 350 c 0
 73 562 209 710 368 710 c 0
 527 710 613 562 578 350 c 0
 543 138 407 -10 248 -10 c 0
268 105 m 0
 356 105 428 202 453 350 c 0
 478 498 437 595 349 595 c 0
 261 595 188 498 163 350 c 0
 138 202 180 105 268 105 c 0
200 799 m 1
 205 832 l 2
 219 914 270 963 343 963 c 0
 438 963 440 878 465 878 c 0
 475 878 481 892 488 928 c 2
 492 949 l 1
 592 949 l 1
 587 916 l 2
 573 834 522 785 449 785 c 0
 354 785 354 870 329 870 c 0
 319 870 311 855 304 820 c 2
 300 799 l 1
 200 799 l 1
EndSplineSet
Validated: 33
EndChar

StartChar: P
Encoding: 80 80 209
Width: 600
GlyphClass: 1
Flags: W
LayerCount: 2
Fore
SplineSet
38 0 m 1
 155 700 l 1
 406 700 l 2
 538 700 615 611 594 485 c 0
 573 359 466 270 334 270 c 2
 208 270 l 1
 163 0 l 1
 38 0 l 1
226 380 m 1
 357 380 l 2
 416 380 464 422 474 485 c 0
 485 548 451 590 392 590 c 2
 261 590 l 1
 226 380 l 1
EndSplineSet
Validated: 33
Substitution2: "+U1VOAGb/Y2IA +Z+VifgAA 72+Zv9O44ho" P.rightS
Substitution2: "+U1VOAGb/Y2IA +Z+VifgAA 71+Zv9O44ho" P.rightM
Substitution2: "+U1VOAGb/Y2IA +Z+VifgAA 70+Zv9O44ho" P.rightL
Substitution2: "+U1VOAGb/Y2IA +Z+VifgAA 69+Zv9O44ho" P.leftS
Substitution2: "+U1VOAGb/Y2IA +Z+VifgAA 68+Zv9O44ho" P.leftM
Substitution2: "+U1VOAGb/Y2IA +Z+VifgAA 67+Zv9O44ho" P.leftL
Substitution2: "+U1VOAGb/Y2IA +Z+VifgAA 66+Zv9O44ho" P.rightS
Substitution2: "+U1VOAGb/Y2IA +Z+VifgAA 65+Zv9O44ho" P.rightM
Substitution2: "+U1VOAGb/Y2IA +Z+VifgAA 64+Zv9O44ho" P.rightS
Substitution2: "+U1VOAGb/Y2IA +Z+VifgAA 63+Zv9O44ho" P.rightM
Substitution2: "+U1VOAGb/Y2IA +Z+VifgAA 62+Zv9O44ho" P.rightL
Substitution2: "+U1VOAGb/Y2IA +Z+VifgAA 61+Zv9O44ho" P.leftS
Substitution2: "+U1VOAGb/Y2IA +Z+VifgAA 60+Zv9O44ho" P.leftM
Substitution2: "+U1VOAGb/Y2IA +Z+VifgAA 59+Zv9O44ho" P.leftL
EndChar

StartChar: P.leftL
Encoding: 65636 -1 210
Width: 600
GlyphClass: 1
Flags: W
LayerCount: 2
Fore
SplineSet
-6 0 m 1
 111 700 l 1
 362 700 l 2
 494 700 571 611 550 485 c 0
 529 359 422 270 290 270 c 2
 164 270 l 1
 119 0 l 1
 -6 0 l 1
182 380 m 1
 313 380 l 2
 372 380 420 422 430 485 c 0
 441 548 407 590 348 590 c 2
 217 590 l 1
 182 380 l 1
EndSplineSet
Validated: 33
EndChar

StartChar: P.leftM
Encoding: 65637 -1 211
Width: 600
GlyphClass: 1
Flags: W
LayerCount: 2
Fore
SplineSet
8 0 m 1
 125 700 l 1
 376 700 l 2
 508 700 585 611 564 485 c 0
 543 359 436 270 304 270 c 2
 178 270 l 1
 133 0 l 1
 8 0 l 1
196 380 m 1
 327 380 l 2
 386 380 434 422 444 485 c 0
 455 548 421 590 362 590 c 2
 231 590 l 1
 196 380 l 1
EndSplineSet
Validated: 33
EndChar

StartChar: P.leftS
Encoding: 65638 -1 212
Width: 600
GlyphClass: 1
Flags: W
LayerCount: 2
Fore
SplineSet
20 0 m 1
 137 700 l 1
 388 700 l 2
 520 700 597 611 576 485 c 0
 555 359 448 270 316 270 c 2
 190 270 l 1
 145 0 l 1
 20 0 l 1
208 380 m 1
 339 380 l 2
 398 380 446 422 456 485 c 0
 467 548 433 590 374 590 c 2
 243 590 l 1
 208 380 l 1
EndSplineSet
Validated: 33
EndChar

StartChar: P.rightL
Encoding: 65639 -1 213
Width: 600
GlyphClass: 1
Flags: W
LayerCount: 2
Fore
SplineSet
82 0 m 1
 199 700 l 1
 450 700 l 2
 582 700 659 611 638 485 c 0
 617 359 510 270 378 270 c 2
 252 270 l 1
 207 0 l 1
 82 0 l 1
270 380 m 1
 401 380 l 2
 460 380 508 422 518 485 c 0
 529 548 495 590 436 590 c 2
 305 590 l 1
 270 380 l 1
EndSplineSet
Validated: 33
EndChar

StartChar: P.rightM
Encoding: 65640 -1 214
Width: 600
GlyphClass: 1
Flags: W
LayerCount: 2
Fore
SplineSet
68 0 m 1
 185 700 l 1
 436 700 l 2
 568 700 645 611 624 485 c 0
 603 359 496 270 364 270 c 2
 238 270 l 1
 193 0 l 1
 68 0 l 1
256 380 m 1
 387 380 l 2
 446 380 494 422 504 485 c 0
 515 548 481 590 422 590 c 2
 291 590 l 1
 256 380 l 1
EndSplineSet
Validated: 33
EndChar

StartChar: P.rightS
Encoding: 65641 -1 215
Width: 600
GlyphClass: 1
Flags: W
LayerCount: 2
Fore
SplineSet
56 0 m 1
 173 700 l 1
 424 700 l 2
 556 700 633 611 612 485 c 0
 591 359 484 270 352 270 c 2
 226 270 l 1
 181 0 l 1
 56 0 l 1
244 380 m 1
 375 380 l 2
 434 380 482 422 492 485 c 0
 503 548 469 590 410 590 c 2
 279 590 l 1
 244 380 l 1
EndSplineSet
Validated: 33
EndChar

StartChar: Phi
Encoding: 934 934 216
Width: 600
GlyphClass: 1
Flags: W
LayerCount: 2
Fore
SplineSet
310 0 m 1
 190 0 l 1
 203 76 l 1
 81 101 15 207 39 350 c 0
 62 493 164 599 294 624 c 1
 307 700 l 1
 427 700 l 1
 414 624 l 1
 536 599 602 493 578 350 c 0
 555 207 453 101 323 76 c 1
 310 0 l 1
158 350 m 0
 146 274 171 219 223 196 c 1
 274 504 l 1
 214 482 171 426 158 350 c 0
459 350 m 0
 471 426 446 481 394 504 c 1
 343 196 l 1
 403 218 446 274 459 350 c 0
EndSplineSet
Validated: 33
EndChar

StartChar: Pi
Encoding: 928 928 217
Width: 600
GlyphClass: 1
Flags: W
LayerCount: 2
Fore
SplineSet
10 0 m 1
 127 700 l 1
 607 700 l 1
 490 0 l 1
 365 0 l 1
 462 585 l 1
 232 585 l 1
 135 0 l 1
 10 0 l 1
EndSplineSet
Validated: 1
EndChar

StartChar: Psi
Encoding: 936 936 218
Width: 600
GlyphClass: 1
Flags: W
LayerCount: 2
Fore
SplineSet
632 700 m 1
 590 450 l 2
 567 313 473 217 343 195 c 1
 310 0 l 1
 190 0 l 1
 223 195 l 1
 100 218 37 313 60 450 c 2
 102 700 l 1
 222 700 l 1
 180 450 l 2
 169 383 192 335 243 315 c 1
 307 700 l 1
 427 700 l 1
 363 315 l 1
 420 334 459 382 470 450 c 2
 512 700 l 1
 632 700 l 1
EndSplineSet
Validated: 33
EndChar

StartChar: Q
Encoding: 81 81 219
Width: 600
GlyphClass: 1
Flags: W
LayerCount: 2
Fore
SplineSet
487 -71 m 1
 397 37 l 1
 352 7 301 -10 248 -10 c 0
 89 -10 3 138 38 350 c 0
 73 562 209 710 368 710 c 0
 527 710 613 562 578 350 c 0
 561 249 521 162 467 99 c 1
 558 -10 l 1
 487 -71 l 1
268 105 m 0
 289 105 309 110 327 121 c 1
 228 240 l 1
 299 301 l 1
 394 187 l 1
 421 228 442 284 453 350 c 0
 478 498 437 595 349 595 c 0
 261 595 188 498 163 350 c 0
 138 202 180 105 268 105 c 0
EndSplineSet
Validated: 33
Substitution2: "+U1VOAGb/Y2IA +Z+VifgAA 72+Zv9O44ho" Q.rightS
Substitution2: "+U1VOAGb/Y2IA +Z+VifgAA 71+Zv9O44ho" Q.rightM
Substitution2: "+U1VOAGb/Y2IA +Z+VifgAA 70+Zv9O44ho" Q.rightL
Substitution2: "+U1VOAGb/Y2IA +Z+VifgAA 69+Zv9O44ho" Q.leftS
Substitution2: "+U1VOAGb/Y2IA +Z+VifgAA 68+Zv9O44ho" Q.leftM
Substitution2: "+U1VOAGb/Y2IA +Z+VifgAA 67+Zv9O44ho" Q.leftL
Substitution2: "+U1VOAGb/Y2IA +Z+VifgAA 66+Zv9O44ho" Q.rightS
Substitution2: "+U1VOAGb/Y2IA +Z+VifgAA 65+Zv9O44ho" Q.rightM
Substitution2: "+U1VOAGb/Y2IA +Z+VifgAA 64+Zv9O44ho" Q.rightS
Substitution2: "+U1VOAGb/Y2IA +Z+VifgAA 63+Zv9O44ho" Q.rightM
Substitution2: "+U1VOAGb/Y2IA +Z+VifgAA 62+Zv9O44ho" Q.rightL
Substitution2: "+U1VOAGb/Y2IA +Z+VifgAA 61+Zv9O44ho" Q.leftS
Substitution2: "+U1VOAGb/Y2IA +Z+VifgAA 60+Zv9O44ho" Q.leftM
Substitution2: "+U1VOAGb/Y2IA +Z+VifgAA 59+Zv9O44ho" Q.leftL
EndChar

StartChar: Q.leftL
Encoding: 65642 -1 220
Width: 600
GlyphClass: 1
Flags: W
LayerCount: 2
Fore
SplineSet
443 -71 m 1
 353 37 l 1
 308 7 257 -10 204 -10 c 0
 45 -10 -41 138 -6 350 c 0
 29 562 165 710 324 710 c 0
 483 710 569 562 534 350 c 0
 517 249 477 162 423 99 c 1
 514 -10 l 1
 443 -71 l 1
224 105 m 0
 245 105 265 110 283 121 c 1
 184 240 l 1
 255 301 l 1
 350 187 l 1
 377 228 398 284 409 350 c 0
 434 498 393 595 305 595 c 0
 217 595 144 498 119 350 c 0
 94 202 136 105 224 105 c 0
EndSplineSet
Validated: 33
EndChar

StartChar: Q.leftM
Encoding: 65643 -1 221
Width: 600
GlyphClass: 1
Flags: W
LayerCount: 2
Fore
SplineSet
457 -71 m 1
 367 37 l 1
 322 7 271 -10 218 -10 c 0
 59 -10 -27 138 8 350 c 0
 43 562 179 710 338 710 c 0
 497 710 583 562 548 350 c 0
 531 249 491 162 437 99 c 1
 528 -10 l 1
 457 -71 l 1
238 105 m 0
 259 105 279 110 297 121 c 1
 198 240 l 1
 269 301 l 1
 364 187 l 1
 391 228 412 284 423 350 c 0
 448 498 407 595 319 595 c 0
 231 595 158 498 133 350 c 0
 108 202 150 105 238 105 c 0
EndSplineSet
Validated: 33
EndChar

StartChar: Q.leftS
Encoding: 65644 -1 222
Width: 600
GlyphClass: 1
Flags: W
LayerCount: 2
Fore
SplineSet
469 -71 m 1
 379 37 l 1
 334 7 283 -10 230 -10 c 0
 71 -10 -15 138 20 350 c 0
 55 562 191 710 350 710 c 0
 509 710 595 562 560 350 c 0
 543 249 503 162 449 99 c 1
 540 -10 l 1
 469 -71 l 1
250 105 m 0
 271 105 291 110 309 121 c 1
 210 240 l 1
 281 301 l 1
 376 187 l 1
 403 228 424 284 435 350 c 0
 460 498 419 595 331 595 c 0
 243 595 170 498 145 350 c 0
 120 202 162 105 250 105 c 0
EndSplineSet
Validated: 33
EndChar

StartChar: Q.rightL
Encoding: 65645 -1 223
Width: 600
GlyphClass: 1
Flags: W
LayerCount: 2
Fore
SplineSet
531 -71 m 1
 441 37 l 1
 396 7 345 -10 292 -10 c 0
 133 -10 47 138 82 350 c 0
 117 562 253 710 412 710 c 0
 571 710 657 562 622 350 c 0
 605 249 565 162 511 99 c 1
 602 -10 l 1
 531 -71 l 1
312 105 m 0
 333 105 353 110 371 121 c 1
 272 240 l 1
 343 301 l 1
 438 187 l 1
 465 228 486 284 497 350 c 0
 522 498 481 595 393 595 c 0
 305 595 232 498 207 350 c 0
 182 202 224 105 312 105 c 0
EndSplineSet
Validated: 33
EndChar

StartChar: Q.rightM
Encoding: 65646 -1 224
Width: 600
GlyphClass: 1
Flags: W
LayerCount: 2
Fore
SplineSet
517 -71 m 1
 427 37 l 1
 382 7 331 -10 278 -10 c 0
 119 -10 33 138 68 350 c 0
 103 562 239 710 398 710 c 0
 557 710 643 562 608 350 c 0
 591 249 551 162 497 99 c 1
 588 -10 l 1
 517 -71 l 1
298 105 m 0
 319 105 339 110 357 121 c 1
 258 240 l 1
 329 301 l 1
 424 187 l 1
 451 228 472 284 483 350 c 0
 508 498 467 595 379 595 c 0
 291 595 218 498 193 350 c 0
 168 202 210 105 298 105 c 0
EndSplineSet
Validated: 33
EndChar

StartChar: Q.rightS
Encoding: 65647 -1 225
Width: 600
GlyphClass: 1
Flags: W
LayerCount: 2
Fore
SplineSet
505 -71 m 1
 415 37 l 1
 370 7 319 -10 266 -10 c 0
 107 -10 21 138 56 350 c 0
 91 562 227 710 386 710 c 0
 545 710 631 562 596 350 c 0
 579 249 539 162 485 99 c 1
 576 -10 l 1
 505 -71 l 1
286 105 m 0
 307 105 327 110 345 121 c 1
 246 240 l 1
 317 301 l 1
 412 187 l 1
 439 228 460 284 471 350 c 0
 496 498 455 595 367 595 c 0
 279 595 206 498 181 350 c 0
 156 202 198 105 286 105 c 0
EndSplineSet
Validated: 33
EndChar

StartChar: R
Encoding: 82 82 226
Width: 600
GlyphClass: 1
Flags: W
LayerCount: 2
Fore
SplineSet
224 400 m 1
 354 400 l 2
 411 400 457 438 466 495 c 0
 476 552 442 590 385 590 c 2
 255 590 l 1
 224 400 l 1
32 0 m 1
 149 700 l 1
 399 700 l 2
 529 700 605 616 585 495 c 0
 570 406 509 336 425 306 c 1
 525 0 l 1
 388 0 l 1
 294 290 l 1
 205 290 l 1
 157 0 l 1
 32 0 l 1
EndSplineSet
Validated: 33
Substitution2: "+U1VOAGb/Y2IA +Z+VifgAA 72+Zv9O44ho" R.rightS
Substitution2: "+U1VOAGb/Y2IA +Z+VifgAA 71+Zv9O44ho" R.rightM
Substitution2: "+U1VOAGb/Y2IA +Z+VifgAA 70+Zv9O44ho" R.rightL
Substitution2: "+U1VOAGb/Y2IA +Z+VifgAA 69+Zv9O44ho" R.leftS
Substitution2: "+U1VOAGb/Y2IA +Z+VifgAA 68+Zv9O44ho" R.leftM
Substitution2: "+U1VOAGb/Y2IA +Z+VifgAA 67+Zv9O44ho" R.leftL
Substitution2: "+U1VOAGb/Y2IA +Z+VifgAA 66+Zv9O44ho" R.rightS
Substitution2: "+U1VOAGb/Y2IA +Z+VifgAA 65+Zv9O44ho" R.rightM
Substitution2: "+U1VOAGb/Y2IA +Z+VifgAA 64+Zv9O44ho" R.rightS
Substitution2: "+U1VOAGb/Y2IA +Z+VifgAA 63+Zv9O44ho" R.rightM
Substitution2: "+U1VOAGb/Y2IA +Z+VifgAA 62+Zv9O44ho" R.rightL
Substitution2: "+U1VOAGb/Y2IA +Z+VifgAA 61+Zv9O44ho" R.leftS
Substitution2: "+U1VOAGb/Y2IA +Z+VifgAA 60+Zv9O44ho" R.leftM
Substitution2: "+U1VOAGb/Y2IA +Z+VifgAA 59+Zv9O44ho" R.leftL
EndChar

StartChar: R.leftL
Encoding: 65648 -1 227
Width: 600
GlyphClass: 1
Flags: W
LayerCount: 2
Fore
SplineSet
180 400 m 1
 310 400 l 2
 367 400 413 438 422 495 c 0
 432 552 398 590 341 590 c 2
 211 590 l 1
 180 400 l 1
-12 0 m 1
 105 700 l 1
 355 700 l 2
 485 700 561 616 541 495 c 0
 526 406 465 336 381 306 c 1
 481 0 l 1
 344 0 l 1
 250 290 l 1
 161 290 l 1
 113 0 l 1
 -12 0 l 1
EndSplineSet
Validated: 33
EndChar

StartChar: R.leftM
Encoding: 65649 -1 228
Width: 600
GlyphClass: 1
Flags: W
LayerCount: 2
Fore
SplineSet
194 400 m 1
 324 400 l 2
 381 400 427 438 436 495 c 0
 446 552 412 590 355 590 c 2
 225 590 l 1
 194 400 l 1
2 0 m 1
 119 700 l 1
 369 700 l 2
 499 700 575 616 555 495 c 0
 540 406 479 336 395 306 c 1
 495 0 l 1
 358 0 l 1
 264 290 l 1
 175 290 l 1
 127 0 l 1
 2 0 l 1
EndSplineSet
Validated: 33
EndChar

StartChar: R.leftS
Encoding: 65650 -1 229
Width: 600
GlyphClass: 1
Flags: W
LayerCount: 2
Fore
SplineSet
206 400 m 1
 336 400 l 2
 393 400 439 438 448 495 c 0
 458 552 424 590 367 590 c 2
 237 590 l 1
 206 400 l 1
14 0 m 1
 131 700 l 1
 381 700 l 2
 511 700 587 616 567 495 c 0
 552 406 491 336 407 306 c 1
 507 0 l 1
 370 0 l 1
 276 290 l 1
 187 290 l 1
 139 0 l 1
 14 0 l 1
EndSplineSet
Validated: 33
EndChar

StartChar: R.rightL
Encoding: 65651 -1 230
Width: 600
GlyphClass: 1
Flags: W
LayerCount: 2
Fore
SplineSet
268 400 m 1
 398 400 l 2
 455 400 501 438 510 495 c 0
 520 552 486 590 429 590 c 2
 299 590 l 1
 268 400 l 1
76 0 m 1
 193 700 l 1
 443 700 l 2
 573 700 649 616 629 495 c 0
 614 406 553 336 469 306 c 1
 569 0 l 1
 432 0 l 1
 338 290 l 1
 249 290 l 1
 201 0 l 1
 76 0 l 1
EndSplineSet
Validated: 33
EndChar

StartChar: R.rightM
Encoding: 65652 -1 231
Width: 600
GlyphClass: 1
Flags: W
LayerCount: 2
Fore
SplineSet
254 400 m 1
 384 400 l 2
 441 400 487 438 496 495 c 0
 506 552 472 590 415 590 c 2
 285 590 l 1
 254 400 l 1
62 0 m 1
 179 700 l 1
 429 700 l 2
 559 700 635 616 615 495 c 0
 600 406 539 336 455 306 c 1
 555 0 l 1
 418 0 l 1
 324 290 l 1
 235 290 l 1
 187 0 l 1
 62 0 l 1
EndSplineSet
Validated: 33
EndChar

StartChar: R.rightS
Encoding: 65653 -1 232
Width: 600
GlyphClass: 1
Flags: W
LayerCount: 2
Fore
SplineSet
242 400 m 1
 372 400 l 2
 429 400 475 438 484 495 c 0
 494 552 460 590 403 590 c 2
 273 590 l 1
 242 400 l 1
50 0 m 1
 167 700 l 1
 417 700 l 2
 547 700 623 616 603 495 c 0
 588 406 527 336 443 306 c 1
 543 0 l 1
 406 0 l 1
 312 290 l 1
 223 290 l 1
 175 0 l 1
 50 0 l 1
EndSplineSet
Validated: 33
EndChar

StartChar: Racute
Encoding: 340 340 233
Width: 600
GlyphClass: 1
Flags: W
LayerCount: 2
Fore
SplineSet
224 400 m 1
 354 400 l 2
 411 400 457 438 466 495 c 0
 476 552 442 590 385 590 c 2
 255 590 l 1
 224 400 l 1
32 0 m 1
 149 700 l 1
 399 700 l 2
 529 700 605 616 585 495 c 0
 570 406 509 336 425 306 c 1
 525 0 l 1
 388 0 l 1
 294 290 l 1
 205 290 l 1
 157 0 l 1
 32 0 l 1
574 980 m 1
 411 780 l 1
 311 780 l 1
 424 980 l 1
 574 980 l 1
EndSplineSet
Validated: 33
EndChar

StartChar: Rcaron
Encoding: 344 344 234
Width: 600
GlyphClass: 1
Flags: W
LayerCount: 2
Fore
SplineSet
224 400 m 1
 354 400 l 2
 411 400 457 438 466 495 c 0
 476 552 442 590 385 590 c 2
 255 590 l 1
 224 400 l 1
32 0 m 1
 149 700 l 1
 399 700 l 2
 529 700 605 616 585 495 c 0
 570 406 509 336 425 306 c 1
 525 0 l 1
 388 0 l 1
 294 290 l 1
 205 290 l 1
 157 0 l 1
 32 0 l 1
330 771 m 1
 244 971 l 1
 339 971 l 1
 401 869 l 1
 497 971 l 1
 592 971 l 1
 440 771 l 1
 330 771 l 1
EndSplineSet
Validated: 33
EndChar

StartChar: uni0156
Encoding: 342 342 235
Width: 600
GlyphClass: 1
Flags: W
LayerCount: 2
Fore
SplineSet
224 400 m 1
 354 400 l 2
 411 400 457 438 466 495 c 0
 476 552 442 590 385 590 c 2
 255 590 l 1
 224 400 l 1
32 0 m 1
 149 700 l 1
 399 700 l 2
 529 700 605 616 585 495 c 0
 570 406 509 336 425 306 c 1
 525 0 l 1
 388 0 l 1
 294 290 l 1
 205 290 l 1
 157 0 l 1
 32 0 l 1
334 -70 m 1
 172 -270 l 1
 72 -270 l 1
 184 -70 l 1
 334 -70 l 1
EndSplineSet
Validated: 33
EndChar

StartChar: Rho
Encoding: 929 929 236
Width: 600
GlyphClass: 1
Flags: W
LayerCount: 2
Fore
SplineSet
38 0 m 1
 155 700 l 1
 406 700 l 2
 538 700 615 611 594 485 c 0
 573 359 466 270 334 270 c 2
 208 270 l 1
 163 0 l 1
 38 0 l 1
226 380 m 1
 357 380 l 2
 416 380 464 422 474 485 c 0
 485 548 451 590 392 590 c 2
 261 590 l 1
 226 380 l 1
EndSplineSet
Validated: 33
EndChar

StartChar: S
Encoding: 83 83 237
Width: 600
GlyphClass: 1
Flags: W
LayerCount: 2
Fore
SplineSet
38 190 m 1
 154 190 l 1
 152 135 199 96 268 96 c 0
 339 96 394 137 404 197 c 0
 413 249 383 280 312 293 c 2
 273 300 l 2
 140 324 84 389 102 498 c 0
 123 625 229 710 366 710 c 0
 499 710 587 630 574 520 c 1
 458 520 l 1
 460 567 416 600 353 600 c 0
 286 600 234 562 225 505 c 0
 217 458 244 429 308 417 c 2
 347 410 l 2
 486 385 546 317 527 203 c 0
 505 73 396 -14 254 -14 c 0
 113 -14 22 72 38 190 c 1
EndSplineSet
Validated: 33
Substitution2: "+U1VOAGb/Y2IA +Z+VifgAA 72+Zv9O44ho" S.rightS
Substitution2: "+U1VOAGb/Y2IA +Z+VifgAA 71+Zv9O44ho" S.rightM
Substitution2: "+U1VOAGb/Y2IA +Z+VifgAA 70+Zv9O44ho" S.rightL
Substitution2: "+U1VOAGb/Y2IA +Z+VifgAA 69+Zv9O44ho" S.leftS
Substitution2: "+U1VOAGb/Y2IA +Z+VifgAA 68+Zv9O44ho" S.leftM
Substitution2: "+U1VOAGb/Y2IA +Z+VifgAA 67+Zv9O44ho" S.leftL
Substitution2: "+U1VOAGb/Y2IA +Z+VifgAA 66+Zv9O44ho" S.rightS
Substitution2: "+U1VOAGb/Y2IA +Z+VifgAA 65+Zv9O44ho" S.rightM
Substitution2: "+U1VOAGb/Y2IA +Z+VifgAA 64+Zv9O44ho" S.rightS
Substitution2: "+U1VOAGb/Y2IA +Z+VifgAA 63+Zv9O44ho" S.rightM
Substitution2: "+U1VOAGb/Y2IA +Z+VifgAA 62+Zv9O44ho" S.rightL
Substitution2: "+U1VOAGb/Y2IA +Z+VifgAA 61+Zv9O44ho" S.leftS
Substitution2: "+U1VOAGb/Y2IA +Z+VifgAA 60+Zv9O44ho" S.leftM
Substitution2: "+U1VOAGb/Y2IA +Z+VifgAA 59+Zv9O44ho" S.leftL
EndChar

StartChar: S.leftL
Encoding: 65654 -1 238
Width: 600
GlyphClass: 1
Flags: W
LayerCount: 2
Fore
SplineSet
-6 190 m 1
 110 190 l 1
 108 135 155 96 224 96 c 0
 295 96 350 137 360 197 c 0
 369 249 339 280 268 293 c 2
 229 300 l 2
 96 324 40 389 58 498 c 0
 79 625 185 710 322 710 c 0
 455 710 543 630 530 520 c 1
 414 520 l 1
 416 567 372 600 309 600 c 0
 242 600 190 562 181 505 c 0
 173 458 200 429 264 417 c 2
 303 410 l 2
 442 385 502 317 483 203 c 0
 461 73 352 -14 210 -14 c 0
 69 -14 -22 72 -6 190 c 1
EndSplineSet
Validated: 33
EndChar

StartChar: S.leftM
Encoding: 65655 -1 239
Width: 600
GlyphClass: 1
Flags: W
LayerCount: 2
Fore
SplineSet
8 190 m 1
 124 190 l 1
 122 135 169 96 238 96 c 0
 309 96 364 137 374 197 c 0
 383 249 353 280 282 293 c 2
 243 300 l 2
 110 324 54 389 72 498 c 0
 93 625 199 710 336 710 c 0
 469 710 557 630 544 520 c 1
 428 520 l 1
 430 567 386 600 323 600 c 0
 256 600 204 562 195 505 c 0
 187 458 214 429 278 417 c 2
 317 410 l 2
 456 385 516 317 497 203 c 0
 475 73 366 -14 224 -14 c 0
 83 -14 -8 72 8 190 c 1
EndSplineSet
Validated: 33
EndChar

StartChar: S.leftS
Encoding: 65656 -1 240
Width: 600
GlyphClass: 1
Flags: W
LayerCount: 2
Fore
SplineSet
26 190 m 1
 142 190 l 1
 140 135 187 96 256 96 c 0
 327 96 382 137 392 197 c 0
 401 249 371 280 300 293 c 2
 261 300 l 2
 128 324 72 389 90 498 c 0
 111 625 217 710 354 710 c 0
 487 710 575 630 562 520 c 1
 446 520 l 1
 448 567 404 600 341 600 c 0
 274 600 222 562 213 505 c 0
 205 458 232 429 296 417 c 2
 335 410 l 2
 474 385 534 317 515 203 c 0
 493 73 384 -14 242 -14 c 0
 101 -14 10 72 26 190 c 1
EndSplineSet
Validated: 33
EndChar

StartChar: S.rightL
Encoding: 65657 -1 241
Width: 600
GlyphClass: 1
Flags: W
LayerCount: 2
Fore
SplineSet
82 190 m 1
 198 190 l 1
 196 135 243 96 312 96 c 0
 383 96 438 137 448 197 c 0
 457 249 427 280 356 293 c 2
 317 300 l 2
 184 324 128 389 146 498 c 0
 167 625 273 710 410 710 c 0
 543 710 631 630 618 520 c 1
 502 520 l 1
 504 567 460 600 397 600 c 0
 330 600 278 562 269 505 c 0
 261 458 288 429 352 417 c 2
 391 410 l 2
 530 385 590 317 571 203 c 0
 549 73 440 -14 298 -14 c 0
 157 -14 66 72 82 190 c 1
EndSplineSet
Validated: 33
EndChar

StartChar: S.rightM
Encoding: 65658 -1 242
Width: 600
GlyphClass: 1
Flags: W
LayerCount: 2
Fore
SplineSet
68 190 m 1
 184 190 l 1
 182 135 229 96 298 96 c 0
 369 96 424 137 434 197 c 0
 443 249 413 280 342 293 c 2
 303 300 l 2
 170 324 114 389 132 498 c 0
 153 625 259 710 396 710 c 0
 529 710 617 630 604 520 c 1
 488 520 l 1
 490 567 446 600 383 600 c 0
 316 600 264 562 255 505 c 0
 247 458 274 429 338 417 c 2
 377 410 l 2
 516 385 576 317 557 203 c 0
 535 73 426 -14 284 -14 c 0
 143 -14 52 72 68 190 c 1
EndSplineSet
Validated: 33
EndChar

StartChar: S.rightS
Encoding: 65659 -1 243
Width: 600
GlyphClass: 1
Flags: W
LayerCount: 2
Fore
SplineSet
50 190 m 1
 166 190 l 1
 164 135 211 96 280 96 c 0
 351 96 406 137 416 197 c 0
 425 249 395 280 324 293 c 2
 285 300 l 2
 152 324 96 389 114 498 c 0
 135 625 241 710 378 710 c 0
 511 710 599 630 586 520 c 1
 470 520 l 1
 472 567 428 600 365 600 c 0
 298 600 246 562 237 505 c 0
 229 458 256 429 320 417 c 2
 359 410 l 2
 498 385 558 317 539 203 c 0
 517 73 408 -14 266 -14 c 0
 125 -14 34 72 50 190 c 1
EndSplineSet
Validated: 33
EndChar

StartChar: Sacute
Encoding: 346 346 244
Width: 600
GlyphClass: 1
Flags: W
LayerCount: 2
Fore
SplineSet
38 190 m 1
 154 190 l 1
 152 135 199 96 268 96 c 0
 339 96 394 137 404 197 c 0
 413 249 383 280 312 293 c 2
 273 300 l 2
 140 324 84 389 102 498 c 0
 123 625 229 710 366 710 c 0
 499 710 587 630 574 520 c 1
 458 520 l 1
 460 567 416 600 353 600 c 0
 286 600 234 562 225 505 c 0
 217 458 244 429 308 417 c 2
 347 410 l 2
 486 385 546 317 527 203 c 0
 505 73 396 -14 254 -14 c 0
 113 -14 22 72 38 190 c 1
563 980 m 1
 400 780 l 1
 300 780 l 1
 413 980 l 1
 563 980 l 1
EndSplineSet
Validated: 33
EndChar

StartChar: Scaron
Encoding: 352 352 245
Width: 600
GlyphClass: 1
Flags: W
LayerCount: 2
Fore
SplineSet
38 190 m 1
 154 190 l 1
 152 135 199 96 268 96 c 0
 339 96 394 137 404 197 c 0
 413 249 383 280 312 293 c 2
 273 300 l 2
 140 324 84 389 102 498 c 0
 123 625 229 710 366 710 c 0
 499 710 587 630 574 520 c 1
 458 520 l 1
 460 567 416 600 353 600 c 0
 286 600 234 562 225 505 c 0
 217 458 244 429 308 417 c 2
 347 410 l 2
 486 385 546 317 527 203 c 0
 505 73 396 -14 254 -14 c 0
 113 -14 22 72 38 190 c 1
319 771 m 1
 233 971 l 1
 328 971 l 1
 390 869 l 1
 486 971 l 1
 581 971 l 1
 429 771 l 1
 319 771 l 1
EndSplineSet
Validated: 33
EndChar

StartChar: Scedilla
Encoding: 350 350 246
Width: 600
GlyphClass: 1
Flags: W
LayerCount: 2
Fore
SplineSet
194 -165 m 1
 192 -191 210 -209 239 -209 c 0
 269 -209 292 -190 297 -163 c 0
 302 -135 283 -116 254 -116 c 0
 240 -116 228 -120 218 -128 c 1
 156 -113 l 1
 192 -8 l 1
 87 14 24 90 38 190 c 1
 154 190 l 1
 152 135 199 96 268 96 c 0
 339 96 394 137 404 197 c 0
 413 249 383 280 312 293 c 2
 273 300 l 2
 140 324 84 389 102 498 c 0
 123 625 229 710 366 710 c 0
 499 710 587 630 574 520 c 1
 458 520 l 1
 460 567 416 600 353 600 c 0
 286 600 234 562 225 505 c 0
 217 458 244 429 308 417 c 2
 347 410 l 2
 486 385 546 317 527 203 c 0
 507 83 413 0 287 -12 c 1
 274 -53 l 1
 347 -43 398 -94 387 -163 c 0
 375 -232 305 -285 225 -285 c 0
 145 -285 94 -233 104 -165 c 1
 194 -165 l 1
EndSplineSet
Validated: 33
EndChar

StartChar: Scircumflex
Encoding: 348 348 247
Width: 600
GlyphClass: 1
Flags: W
LayerCount: 2
Fore
SplineSet
38 190 m 1
 154 190 l 1
 152 135 199 96 268 96 c 0
 339 96 394 137 404 197 c 0
 413 249 383 280 312 293 c 2
 273 300 l 2
 140 324 84 389 102 498 c 0
 123 625 229 710 366 710 c 0
 499 710 587 630 574 520 c 1
 458 520 l 1
 460 567 416 600 353 600 c 0
 286 600 234 562 225 505 c 0
 217 458 244 429 308 417 c 2
 347 410 l 2
 486 385 546 317 527 203 c 0
 505 73 396 -14 254 -14 c 0
 113 -14 22 72 38 190 c 1
200 771 m 1
 352 971 l 1
 462 971 l 1
 548 771 l 1
 453 771 l 1
 391 873 l 1
 295 771 l 1
 200 771 l 1
EndSplineSet
Validated: 33
EndChar

StartChar: uni0218
Encoding: 536 536 248
Width: 600
GlyphClass: 1
Flags: W
LayerCount: 2
Fore
SplineSet
38 190 m 1
 154 190 l 1
 152 135 199 96 268 96 c 0
 339 96 394 137 404 197 c 0
 413 249 383 280 312 293 c 2
 273 300 l 2
 140 324 84 389 102 498 c 0
 123 625 229 710 366 710 c 0
 499 710 587 630 574 520 c 1
 458 520 l 1
 460 567 416 600 353 600 c 0
 286 600 234 562 225 505 c 0
 217 458 244 429 308 417 c 2
 347 410 l 2
 486 385 546 317 527 203 c 0
 505 73 396 -14 254 -14 c 0
 113 -14 22 72 38 190 c 1
314 -70 m 1
 152 -270 l 1
 52 -270 l 1
 164 -70 l 1
 314 -70 l 1
EndSplineSet
Validated: 33
EndChar

StartChar: Sigma
Encoding: 931 931 249
Width: 600
GlyphClass: 1
Flags: W
LayerCount: 2
Fore
SplineSet
0 0 m 1
 17 100 l 1
 304 352 l 1
 105 597 l 1
 122 697 l 1
 595 697 l 1
 577 587 l 1
 277 587 l 1
 466 353 l 1
 189 110 l 1
 518 110 l 1
 500 0 l 1
 0 0 l 1
EndSplineSet
Validated: 1
EndChar

StartChar: T
Encoding: 84 84 250
Width: 600
GlyphClass: 1
Flags: W
LayerCount: 2
Fore
SplineSet
188 0 m 1
 286 590 l 1
 88 590 l 1
 107 700 l 1
 627 700 l 1
 608 590 l 1
 411 590 l 1
 313 0 l 1
 188 0 l 1
EndSplineSet
Validated: 1
Substitution2: "+U1VOAGb/Y2IA +Z+VifgAA 72+Zv9O44ho" T.rightS
Substitution2: "+U1VOAGb/Y2IA +Z+VifgAA 71+Zv9O44ho" T.rightM
Substitution2: "+U1VOAGb/Y2IA +Z+VifgAA 70+Zv9O44ho" T.rightL
Substitution2: "+U1VOAGb/Y2IA +Z+VifgAA 69+Zv9O44ho" T.leftS
Substitution2: "+U1VOAGb/Y2IA +Z+VifgAA 68+Zv9O44ho" T.leftM
Substitution2: "+U1VOAGb/Y2IA +Z+VifgAA 67+Zv9O44ho" T.leftL
Substitution2: "+U1VOAGb/Y2IA +Z+VifgAA 66+Zv9O44ho" T.rightS
Substitution2: "+U1VOAGb/Y2IA +Z+VifgAA 65+Zv9O44ho" T.rightM
Substitution2: "+U1VOAGb/Y2IA +Z+VifgAA 64+Zv9O44ho" T.rightS
Substitution2: "+U1VOAGb/Y2IA +Z+VifgAA 63+Zv9O44ho" T.rightM
Substitution2: "+U1VOAGb/Y2IA +Z+VifgAA 62+Zv9O44ho" T.rightL
Substitution2: "+U1VOAGb/Y2IA +Z+VifgAA 61+Zv9O44ho" T.leftS
Substitution2: "+U1VOAGb/Y2IA +Z+VifgAA 60+Zv9O44ho" T.leftM
Substitution2: "+U1VOAGb/Y2IA +Z+VifgAA 59+Zv9O44ho" T.leftL
EndChar

StartChar: T.leftL
Encoding: 65660 -1 251
Width: 600
GlyphClass: 1
Flags: W
LayerCount: 2
Fore
SplineSet
144 0 m 1
 242 590 l 1
 44 590 l 1
 63 700 l 1
 583 700 l 1
 564 590 l 1
 367 590 l 1
 269 0 l 1
 144 0 l 1
EndSplineSet
Validated: 1
EndChar

StartChar: T.leftM
Encoding: 65661 -1 252
Width: 600
GlyphClass: 1
Flags: W
LayerCount: 2
Fore
SplineSet
158 0 m 1
 256 590 l 1
 58 590 l 1
 77 700 l 1
 597 700 l 1
 578 590 l 1
 381 590 l 1
 283 0 l 1
 158 0 l 1
EndSplineSet
Validated: 1
EndChar

StartChar: T.leftS
Encoding: 65662 -1 253
Width: 600
GlyphClass: 1
Flags: W
LayerCount: 2
Fore
SplineSet
170 0 m 1
 268 590 l 1
 70 590 l 1
 89 700 l 1
 609 700 l 1
 590 590 l 1
 393 590 l 1
 295 0 l 1
 170 0 l 1
EndSplineSet
Validated: 1
EndChar

StartChar: T.rightL
Encoding: 65663 -1 254
Width: 600
GlyphClass: 1
Flags: W
LayerCount: 2
Fore
SplineSet
232 0 m 1
 330 590 l 1
 132 590 l 1
 151 700 l 1
 671 700 l 1
 652 590 l 1
 455 590 l 1
 357 0 l 1
 232 0 l 1
EndSplineSet
Validated: 1
EndChar

StartChar: T.rightM
Encoding: 65664 -1 255
Width: 600
GlyphClass: 1
Flags: W
LayerCount: 2
Fore
SplineSet
218 0 m 1
 316 590 l 1
 118 590 l 1
 137 700 l 1
 657 700 l 1
 638 590 l 1
 441 590 l 1
 343 0 l 1
 218 0 l 1
EndSplineSet
Validated: 1
EndChar

StartChar: T.rightS
Encoding: 65665 -1 256
Width: 600
GlyphClass: 1
Flags: W
LayerCount: 2
Fore
SplineSet
206 0 m 1
 304 590 l 1
 106 590 l 1
 125 700 l 1
 645 700 l 1
 626 590 l 1
 429 590 l 1
 331 0 l 1
 206 0 l 1
EndSplineSet
Validated: 1
EndChar

StartChar: Tau
Encoding: 932 932 257
Width: 600
GlyphClass: 1
Flags: W
LayerCount: 2
Fore
SplineSet
188 0 m 1
 286 590 l 1
 88 590 l 1
 107 700 l 1
 627 700 l 1
 608 590 l 1
 411 590 l 1
 313 0 l 1
 188 0 l 1
EndSplineSet
Validated: 1
EndChar

StartChar: Tbar
Encoding: 358 358 258
Width: 600
GlyphClass: 1
Flags: W
LayerCount: 2
Fore
SplineSet
188 0 m 1
 234 275 l 1
 136 275 l 1
 153 375 l 1
 250 375 l 1
 286 590 l 1
 88 590 l 1
 107 700 l 1
 627 700 l 1
 608 590 l 1
 411 590 l 1
 375 375 l 1
 473 375 l 1
 456 275 l 1
 359 275 l 1
 313 0 l 1
 188 0 l 1
EndSplineSet
Validated: 1
EndChar

StartChar: Tcaron
Encoding: 356 356 259
Width: 600
GlyphClass: 1
Flags: W
LayerCount: 2
Fore
SplineSet
188 0 m 1
 286 590 l 1
 88 590 l 1
 107 700 l 1
 627 700 l 1
 608 590 l 1
 411 590 l 1
 313 0 l 1
 188 0 l 1
324 771 m 1
 238 971 l 1
 333 971 l 1
 395 869 l 1
 491 971 l 1
 586 971 l 1
 434 771 l 1
 324 771 l 1
EndSplineSet
Validated: 1
EndChar

StartChar: uni0162
Encoding: 354 354 260
Width: 600
GlyphClass: 1
Flags: W
LayerCount: 2
Fore
SplineSet
188 0 m 1
 286 590 l 1
 88 590 l 1
 107 700 l 1
 627 700 l 1
 608 590 l 1
 411 590 l 1
 313 0 l 1
 299 0 l 1
 282 -53 l 1
 355 -43 406 -94 395 -163 c 0
 383 -232 313 -285 233 -285 c 0
 153 -285 102 -233 112 -165 c 1
 202 -165 l 1
 200 -191 218 -209 247 -209 c 0
 277 -209 300 -190 305 -163 c 0
 310 -135 291 -116 262 -116 c 0
 248 -116 236 -120 226 -128 c 1
 164 -113 l 1
 203 0 l 1
 188 0 l 1
EndSplineSet
Validated: 33
EndChar

StartChar: uni021A
Encoding: 538 538 261
Width: 600
GlyphClass: 1
Flags: W
LayerCount: 2
Fore
SplineSet
188 0 m 1
 286 590 l 1
 88 590 l 1
 107 700 l 1
 627 700 l 1
 608 590 l 1
 411 590 l 1
 313 0 l 1
 188 0 l 1
322 -70 m 1
 160 -270 l 1
 60 -270 l 1
 172 -70 l 1
 322 -70 l 1
EndSplineSet
Validated: 1
EndChar

StartChar: Theta
Encoding: 920 920 262
Width: 600
GlyphClass: 1
Flags: W
LayerCount: 2
Fore
SplineSet
248 -10 m 0
 89 -10 3 138 38 350 c 0
 73 562 209 710 368 710 c 0
 527 710 613 562 578 350 c 0
 543 138 407 -10 248 -10 c 0
268 105 m 0
 356 105 428 202 453 350 c 0
 478 498 437 595 349 595 c 0
 261 595 188 498 163 350 c 0
 138 202 180 105 268 105 c 0
204 295 m 1
 213 405 l 1
 413 405 l 1
 404 295 l 1
 204 295 l 1
EndSplineSet
Validated: 33
EndChar

StartChar: Thorn
Encoding: 222 222 263
Width: 600
GlyphClass: 1
Flags: W
LayerCount: 2
Fore
SplineSet
35 0 m 1
 152 700 l 1
 277 700 l 1
 255 570 l 1
 376 570 l 2
 504 570 580 481 559 355 c 0
 538 229 432 140 304 140 c 2
 183 140 l 1
 160 0 l 1
 35 0 l 1
202 250 m 1
 323 250 l 2
 379 250 424 293 434 355 c 0
 444 417 414 460 358 460 c 2
 237 460 l 1
 202 250 l 1
EndSplineSet
Validated: 33
EndChar

StartChar: U
Encoding: 85 85 264
Width: 600
GlyphClass: 1
Flags: W
LayerCount: 2
Fore
SplineSet
607 700 m 1
 527 220 l 2
 505 87 386 -10 248 -10 c 0
 110 -10 25 87 47 220 c 2
 127 700 l 1
 252 700 l 1
 172 220 l 2
 161 153 200 105 267 105 c 0
 335 105 391 153 402 220 c 2
 482 700 l 1
 607 700 l 1
EndSplineSet
Validated: 33
Substitution2: "+U1VOAGb/Y2IA +Z+VifgAA 72+Zv9O44ho" U.rightS
Substitution2: "+U1VOAGb/Y2IA +Z+VifgAA 71+Zv9O44ho" U.rightM
Substitution2: "+U1VOAGb/Y2IA +Z+VifgAA 70+Zv9O44ho" U.rightL
Substitution2: "+U1VOAGb/Y2IA +Z+VifgAA 69+Zv9O44ho" U.leftS
Substitution2: "+U1VOAGb/Y2IA +Z+VifgAA 68+Zv9O44ho" U.leftM
Substitution2: "+U1VOAGb/Y2IA +Z+VifgAA 67+Zv9O44ho" U.leftL
Substitution2: "+U1VOAGb/Y2IA +Z+VifgAA 66+Zv9O44ho" U.rightS
Substitution2: "+U1VOAGb/Y2IA +Z+VifgAA 65+Zv9O44ho" U.rightM
Substitution2: "+U1VOAGb/Y2IA +Z+VifgAA 64+Zv9O44ho" U.rightS
Substitution2: "+U1VOAGb/Y2IA +Z+VifgAA 63+Zv9O44ho" U.rightM
Substitution2: "+U1VOAGb/Y2IA +Z+VifgAA 62+Zv9O44ho" U.rightL
Substitution2: "+U1VOAGb/Y2IA +Z+VifgAA 61+Zv9O44ho" U.leftS
Substitution2: "+U1VOAGb/Y2IA +Z+VifgAA 60+Zv9O44ho" U.leftM
Substitution2: "+U1VOAGb/Y2IA +Z+VifgAA 59+Zv9O44ho" U.leftL
EndChar

StartChar: U.leftL
Encoding: 65666 -1 265
Width: 600
GlyphClass: 1
Flags: W
LayerCount: 2
Fore
SplineSet
563 700 m 1
 483 220 l 2
 461 87 342 -10 204 -10 c 0
 66 -10 -19 87 3 220 c 2
 83 700 l 1
 208 700 l 1
 128 220 l 2
 117 153 156 105 223 105 c 0
 291 105 347 153 358 220 c 2
 438 700 l 1
 563 700 l 1
EndSplineSet
Validated: 33
EndChar

StartChar: U.leftM
Encoding: 65667 -1 266
Width: 600
GlyphClass: 1
Flags: W
LayerCount: 2
Fore
SplineSet
577 700 m 1
 497 220 l 2
 475 87 356 -10 218 -10 c 0
 80 -10 -5 87 17 220 c 2
 97 700 l 1
 222 700 l 1
 142 220 l 2
 131 153 170 105 237 105 c 0
 305 105 361 153 372 220 c 2
 452 700 l 1
 577 700 l 1
EndSplineSet
Validated: 33
EndChar

StartChar: U.leftS
Encoding: 65668 -1 267
Width: 600
GlyphClass: 1
Flags: W
LayerCount: 2
Fore
SplineSet
589 700 m 1
 509 220 l 2
 487 87 368 -10 230 -10 c 0
 92 -10 7 87 29 220 c 2
 109 700 l 1
 234 700 l 1
 154 220 l 2
 143 153 182 105 249 105 c 0
 317 105 373 153 384 220 c 2
 464 700 l 1
 589 700 l 1
EndSplineSet
Validated: 33
EndChar

StartChar: U.rightL
Encoding: 65669 -1 268
Width: 600
GlyphClass: 1
Flags: W
LayerCount: 2
Fore
SplineSet
651 700 m 1
 571 220 l 2
 549 87 430 -10 292 -10 c 0
 154 -10 69 87 91 220 c 2
 171 700 l 1
 296 700 l 1
 216 220 l 2
 205 153 244 105 311 105 c 0
 379 105 435 153 446 220 c 2
 526 700 l 1
 651 700 l 1
EndSplineSet
Validated: 33
EndChar

StartChar: U.rightM
Encoding: 65670 -1 269
Width: 600
GlyphClass: 1
Flags: W
LayerCount: 2
Fore
SplineSet
637 700 m 1
 557 220 l 2
 535 87 416 -10 278 -10 c 0
 140 -10 55 87 77 220 c 2
 157 700 l 1
 282 700 l 1
 202 220 l 2
 191 153 230 105 297 105 c 0
 365 105 421 153 432 220 c 2
 512 700 l 1
 637 700 l 1
EndSplineSet
Validated: 33
EndChar

StartChar: U.rightS
Encoding: 65671 -1 270
Width: 600
GlyphClass: 1
Flags: W
LayerCount: 2
Fore
SplineSet
625 700 m 1
 545 220 l 2
 523 87 404 -10 266 -10 c 0
 128 -10 43 87 65 220 c 2
 145 700 l 1
 270 700 l 1
 190 220 l 2
 179 153 218 105 285 105 c 0
 353 105 409 153 420 220 c 2
 500 700 l 1
 625 700 l 1
EndSplineSet
Validated: 33
EndChar

StartChar: Uacute
Encoding: 218 218 271
Width: 600
GlyphClass: 1
Flags: W
LayerCount: 2
Fore
SplineSet
607 700 m 1
 527 220 l 2
 505 87 386 -10 248 -10 c 0
 110 -10 25 87 47 220 c 2
 127 700 l 1
 252 700 l 1
 172 220 l 2
 161 153 200 105 267 105 c 0
 335 105 391 153 402 220 c 2
 482 700 l 1
 607 700 l 1
568 980 m 1
 405 780 l 1
 305 780 l 1
 418 980 l 1
 568 980 l 1
EndSplineSet
Validated: 33
EndChar

StartChar: Ubreve
Encoding: 364 364 272
Width: 600
GlyphClass: 1
Flags: W
LayerCount: 2
Fore
SplineSet
607 700 m 1
 527 220 l 2
 505 87 386 -10 248 -10 c 0
 110 -10 25 87 47 220 c 2
 127 700 l 1
 252 700 l 1
 172 220 l 2
 161 153 200 105 267 105 c 0
 335 105 391 153 402 220 c 2
 482 700 l 1
 607 700 l 1
350 932 m 1
 347 892 365 866 395 866 c 0
 425 866 451 892 462 932 c 1
 557 932 l 1
 542 841 468 776 380 776 c 0
 292 776 240 841 255 932 c 1
 350 932 l 1
EndSplineSet
Validated: 33
EndChar

StartChar: Ucircumflex
Encoding: 219 219 273
Width: 600
GlyphClass: 1
Flags: W
LayerCount: 2
Fore
SplineSet
607 700 m 1
 527 220 l 2
 505 87 386 -10 248 -10 c 0
 110 -10 25 87 47 220 c 2
 127 700 l 1
 252 700 l 1
 172 220 l 2
 161 153 200 105 267 105 c 0
 335 105 391 153 402 220 c 2
 482 700 l 1
 607 700 l 1
205 771 m 1
 357 971 l 1
 467 971 l 1
 553 771 l 1
 458 771 l 1
 396 873 l 1
 300 771 l 1
 205 771 l 1
EndSplineSet
Validated: 33
EndChar

StartChar: Udieresis
Encoding: 220 220 274
Width: 600
GlyphClass: 1
Flags: W
LayerCount: 2
Fore
SplineSet
607 700 m 1
 527 220 l 2
 505 87 386 -10 248 -10 c 0
 110 -10 25 87 47 220 c 2
 127 700 l 1
 252 700 l 1
 172 220 l 2
 161 153 200 105 267 105 c 0
 335 105 391 153 402 220 c 2
 482 700 l 1
 607 700 l 1
200 859 m 0
 208 906 251 943 297 943 c 0
 344 943 375 906 367 859 c 0
 359 813 317 776 270 776 c 0
 224 776 192 813 200 859 c 0
420 859 m 0
 428 906 471 943 517 943 c 0
 564 943 595 906 587 859 c 0
 579 813 537 776 490 776 c 0
 444 776 412 813 420 859 c 0
EndSplineSet
Validated: 33
Substitution2: "'cv03' +W1d7JlPYT1MA-03 +Z+VifgAA 2+Zv9O44ho" Udieresis.square
EndChar

StartChar: Udieresis.square
Encoding: 65672 -1 275
Width: 600
GlyphClass: 1
Flags: W
LayerCount: 2
Fore
SplineSet
607 700 m 1
 527 220 l 2
 505 87 386 -10 248 -10 c 0
 110 -10 25 87 47 220 c 2
 127 700 l 1
 252 700 l 1
 172 220 l 2
 161 153 200 105 267 105 c 0
 335 105 391 153 402 220 c 2
 482 700 l 1
 607 700 l 1
197 775 m 1
 221 920 l 1
 366 920 l 1
 342 775 l 1
 197 775 l 1
417 775 m 1
 441 920 l 1
 586 920 l 1
 562 775 l 1
 417 775 l 1
EndSplineSet
Validated: 33
EndChar

StartChar: Ugrave
Encoding: 217 217 276
Width: 600
GlyphClass: 1
Flags: W
LayerCount: 2
Fore
SplineSet
607 700 m 1
 527 220 l 2
 505 87 386 -10 248 -10 c 0
 110 -10 25 87 47 220 c 2
 127 700 l 1
 252 700 l 1
 172 220 l 2
 161 153 200 105 267 105 c 0
 335 105 391 153 402 220 c 2
 482 700 l 1
 607 700 l 1
455 780 m 1
 355 780 l 1
 260 980 l 1
 410 980 l 1
 455 780 l 1
EndSplineSet
Validated: 33
EndChar

StartChar: Uhungarumlaut
Encoding: 368 368 277
Width: 600
GlyphClass: 1
Flags: W
LayerCount: 2
Fore
SplineSet
607 700 m 1
 527 220 l 2
 505 87 386 -10 248 -10 c 0
 110 -10 25 87 47 220 c 2
 127 700 l 1
 252 700 l 1
 172 220 l 2
 161 153 200 105 267 105 c 0
 335 105 391 153 402 220 c 2
 482 700 l 1
 607 700 l 1
490 980 m 1
 327 780 l 1
 227 780 l 1
 340 980 l 1
 490 980 l 1
670 980 m 1
 507 780 l 1
 407 780 l 1
 520 980 l 1
 670 980 l 1
EndSplineSet
Validated: 33
EndChar

StartChar: Umacron
Encoding: 362 362 278
Width: 600
GlyphClass: 1
Flags: W
LayerCount: 2
Fore
SplineSet
607 700 m 1
 527 220 l 2
 505 87 386 -10 248 -10 c 0
 110 -10 25 87 47 220 c 2
 127 700 l 1
 252 700 l 1
 172 220 l 2
 161 153 200 105 267 105 c 0
 335 105 391 153 402 220 c 2
 482 700 l 1
 607 700 l 1
223 800 m 1
 240 900 l 1
 560 900 l 1
 543 800 l 1
 223 800 l 1
EndSplineSet
Validated: 33
EndChar

StartChar: Uogonek
Encoding: 370 370 279
Width: 600
GlyphClass: 1
Flags: W
LayerCount: 2
Fore
SplineSet
607 700 m 1
 527 220 l 2
 511 122 441 43 350 9 c 1
 329 -6 317 -22 314 -39 c 0
 310 -66 329 -83 361 -83 c 0
 369 -83 379 -82 386 -80 c 1
 372 -163 l 1
 359 -166 343 -168 326 -168 c 0
 247 -168 200 -124 211 -60 c 0
 214 -42 221 -25 232 -10 c 1
 104 -2 26 92 47 220 c 2
 127 700 l 1
 252 700 l 1
 172 220 l 2
 161 153 200 105 267 105 c 0
 335 105 391 153 402 220 c 2
 482 700 l 1
 607 700 l 1
EndSplineSet
Validated: 33
EndChar

StartChar: Upsilon
Encoding: 933 933 280
Width: 600
GlyphClass: 1
Flags: W
LayerCount: 2
Fore
SplineSet
188 0 m 1
 237 294 l 1
 82 700 l 1
 217 700 l 1
 321 414 l 1
 521 700 l 1
 652 700 l 1
 361 294 l 1
 312 0 l 1
 188 0 l 1
EndSplineSet
Validated: 1
EndChar

StartChar: Upsilondieresis
Encoding: 939 939 281
Width: 600
GlyphClass: 1
Flags: W
LayerCount: 2
Fore
SplineSet
188 0 m 1
 237 294 l 1
 82 700 l 1
 217 700 l 1
 321 414 l 1
 521 700 l 1
 652 700 l 1
 361 294 l 1
 312 0 l 1
 188 0 l 1
250 859 m 0
 258 906 301 943 347 943 c 0
 394 943 425 906 417 859 c 0
 409 813 367 776 320 776 c 0
 274 776 242 813 250 859 c 0
470 859 m 0
 478 906 521 943 567 943 c 0
 614 943 645 906 637 859 c 0
 629 813 587 776 540 776 c 0
 494 776 462 813 470 859 c 0
EndSplineSet
Validated: 33
EndChar

StartChar: Upsilontonos
Encoding: 910 910 282
Width: 600
GlyphClass: 1
Flags: W
LayerCount: 2
Fore
SplineSet
188 0 m 1
 237 294 l 1
 82 699 l 1
 9 560 l 1
 -81 560 l 1
 -15 780 l 1
 125 780 l 1
 83 700 l 1
 217 700 l 1
 321 414 l 1
 521 700 l 1
 652 700 l 1
 361 294 l 1
 312 0 l 1
 188 0 l 1
EndSplineSet
Validated: 1
EndChar

StartChar: Uring
Encoding: 366 366 283
Width: 600
GlyphClass: 1
Flags: W
LayerCount: 2
Fore
SplineSet
607 700 m 1
 527 220 l 2
 505 87 386 -10 248 -10 c 0
 110 -10 25 87 47 220 c 2
 127 700 l 1
 252 700 l 1
 172 220 l 2
 161 153 200 105 267 105 c 0
 335 105 391 153 402 220 c 2
 482 700 l 1
 607 700 l 1
265 887 m 0
 277 960 343 1014 419 1014 c 0
 495 1014 543 960 531 888 c 0
 519 814 450 756 376 756 c 0
 302 756 253 814 265 887 c 0
389 832 m 0
 419 832 445 855 450 885 c 0
 455 915 437 938 407 938 c 0
 377 938 351 915 346 885 c 0
 341 855 359 832 389 832 c 0
EndSplineSet
Validated: 33
EndChar

StartChar: Utilde
Encoding: 360 360 284
Width: 600
GlyphClass: 1
Flags: W
LayerCount: 2
Fore
SplineSet
607 700 m 1
 527 220 l 2
 505 87 386 -10 248 -10 c 0
 110 -10 25 87 47 220 c 2
 127 700 l 1
 252 700 l 1
 172 220 l 2
 161 153 200 105 267 105 c 0
 335 105 391 153 402 220 c 2
 482 700 l 1
 607 700 l 1
200 799 m 1
 205 832 l 2
 219 914 270 963 343 963 c 0
 438 963 440 878 465 878 c 0
 475 878 481 892 488 928 c 2
 492 949 l 1
 592 949 l 1
 587 916 l 2
 573 834 522 785 449 785 c 0
 354 785 354 870 329 870 c 0
 319 870 311 855 304 820 c 2
 300 799 l 1
 200 799 l 1
EndSplineSet
Validated: 33
EndChar

StartChar: V
Encoding: 86 86 285
Width: 600
GlyphClass: 1
Flags: W
LayerCount: 2
Fore
SplineSet
166 0 m 1
 87 700 l 1
 213 700 l 1
 271 134 l 1
 275 134 l 1
 523 700 l 1
 647 700 l 1
 334 0 l 1
 166 0 l 1
EndSplineSet
Validated: 1
Substitution2: "+U1VOAGb/Y2IA +Z+VifgAA 72+Zv9O44ho" V.rightS
Substitution2: "+U1VOAGb/Y2IA +Z+VifgAA 71+Zv9O44ho" V.rightM
Substitution2: "+U1VOAGb/Y2IA +Z+VifgAA 70+Zv9O44ho" V.rightL
Substitution2: "+U1VOAGb/Y2IA +Z+VifgAA 69+Zv9O44ho" V.leftS
Substitution2: "+U1VOAGb/Y2IA +Z+VifgAA 68+Zv9O44ho" V.leftM
Substitution2: "+U1VOAGb/Y2IA +Z+VifgAA 67+Zv9O44ho" V.leftL
Substitution2: "+U1VOAGb/Y2IA +Z+VifgAA 66+Zv9O44ho" V.rightS
Substitution2: "+U1VOAGb/Y2IA +Z+VifgAA 65+Zv9O44ho" V.rightM
Substitution2: "+U1VOAGb/Y2IA +Z+VifgAA 64+Zv9O44ho" V.rightS
Substitution2: "+U1VOAGb/Y2IA +Z+VifgAA 63+Zv9O44ho" V.rightM
Substitution2: "+U1VOAGb/Y2IA +Z+VifgAA 62+Zv9O44ho" V.rightL
Substitution2: "+U1VOAGb/Y2IA +Z+VifgAA 61+Zv9O44ho" V.leftS
Substitution2: "+U1VOAGb/Y2IA +Z+VifgAA 60+Zv9O44ho" V.leftM
Substitution2: "+U1VOAGb/Y2IA +Z+VifgAA 59+Zv9O44ho" V.leftL
EndChar

StartChar: V.leftL
Encoding: 65673 -1 286
Width: 600
GlyphClass: 1
Flags: W
LayerCount: 2
Fore
SplineSet
124 0 m 1
 45 700 l 1
 171 700 l 1
 229 134 l 1
 233 134 l 1
 481 700 l 1
 605 700 l 1
 292 0 l 1
 124 0 l 1
EndSplineSet
Validated: 1
EndChar

StartChar: V.leftM
Encoding: 65674 -1 287
Width: 600
GlyphClass: 1
Flags: W
LayerCount: 2
Fore
SplineSet
139 0 m 1
 60 700 l 1
 186 700 l 1
 244 134 l 1
 248 134 l 1
 496 700 l 1
 620 700 l 1
 307 0 l 1
 139 0 l 1
EndSplineSet
Validated: 1
EndChar

StartChar: V.leftS
Encoding: 65675 -1 288
Width: 600
GlyphClass: 1
Flags: W
LayerCount: 2
Fore
SplineSet
154 0 m 1
 75 700 l 1
 201 700 l 1
 259 134 l 1
 263 134 l 1
 511 700 l 1
 635 700 l 1
 322 0 l 1
 154 0 l 1
EndSplineSet
Validated: 1
EndChar

StartChar: V.rightL
Encoding: 65676 -1 289
Width: 600
GlyphClass: 1
Flags: W
LayerCount: 2
Fore
SplineSet
208 0 m 1
 129 700 l 1
 255 700 l 1
 313 134 l 1
 317 134 l 1
 565 700 l 1
 689 700 l 1
 376 0 l 1
 208 0 l 1
EndSplineSet
Validated: 1
EndChar

StartChar: V.rightM
Encoding: 65677 -1 290
Width: 600
GlyphClass: 1
Flags: W
LayerCount: 2
Fore
SplineSet
193 0 m 1
 114 700 l 1
 240 700 l 1
 298 134 l 1
 302 134 l 1
 550 700 l 1
 674 700 l 1
 361 0 l 1
 193 0 l 1
EndSplineSet
Validated: 1
EndChar

StartChar: V.rightS
Encoding: 65678 -1 291
Width: 600
GlyphClass: 1
Flags: W
LayerCount: 2
Fore
SplineSet
178 0 m 1
 99 700 l 1
 225 700 l 1
 283 134 l 1
 287 134 l 1
 535 700 l 1
 659 700 l 1
 346 0 l 1
 178 0 l 1
EndSplineSet
Validated: 1
EndChar

StartChar: W
Encoding: 87 87 292
Width: 600
GlyphClass: 1
Flags: W
LayerCount: 2
Fore
SplineSet
1 0 m 1
 57 700 l 1
 172 700 l 1
 124 181 l 1
 128 181 l 1
 302 600 l 1
 398 600 l 1
 432 181 l 1
 436 181 l 1
 562 700 l 1
 677 700 l 1
 499 0 l 1
 353 0 l 1
 320 409 l 1
 316 409 l 1
 147 0 l 1
 1 0 l 1
EndSplineSet
Validated: 1
Substitution2: "+U1VOAGb/Y2IA +Z+VifgAA 72+Zv9O44ho" W.rightS
Substitution2: "+U1VOAGb/Y2IA +Z+VifgAA 71+Zv9O44ho" W.rightM
Substitution2: "+U1VOAGb/Y2IA +Z+VifgAA 70+Zv9O44ho" W.rightL
Substitution2: "+U1VOAGb/Y2IA +Z+VifgAA 69+Zv9O44ho" W.leftS
Substitution2: "+U1VOAGb/Y2IA +Z+VifgAA 68+Zv9O44ho" W.leftM
Substitution2: "+U1VOAGb/Y2IA +Z+VifgAA 67+Zv9O44ho" W.leftL
Substitution2: "+U1VOAGb/Y2IA +Z+VifgAA 66+Zv9O44ho" W.rightS
Substitution2: "+U1VOAGb/Y2IA +Z+VifgAA 65+Zv9O44ho" W.rightM
Substitution2: "+U1VOAGb/Y2IA +Z+VifgAA 64+Zv9O44ho" W.rightS
Substitution2: "+U1VOAGb/Y2IA +Z+VifgAA 63+Zv9O44ho" W.rightM
Substitution2: "+U1VOAGb/Y2IA +Z+VifgAA 62+Zv9O44ho" W.rightL
Substitution2: "+U1VOAGb/Y2IA +Z+VifgAA 61+Zv9O44ho" W.leftS
Substitution2: "+U1VOAGb/Y2IA +Z+VifgAA 60+Zv9O44ho" W.leftM
Substitution2: "+U1VOAGb/Y2IA +Z+VifgAA 59+Zv9O44ho" W.leftL
EndChar

StartChar: W.leftL
Encoding: 65679 -1 293
Width: 600
GlyphClass: 1
Flags: W
LayerCount: 2
Fore
SplineSet
-43 0 m 1
 13 700 l 1
 128 700 l 1
 80 181 l 1
 84 181 l 1
 258 600 l 1
 354 600 l 1
 388 181 l 1
 392 181 l 1
 518 700 l 1
 633 700 l 1
 455 0 l 1
 309 0 l 1
 276 409 l 1
 272 409 l 1
 103 0 l 1
 -43 0 l 1
EndSplineSet
Validated: 1
EndChar

StartChar: W.leftM
Encoding: 65680 -1 294
Width: 600
GlyphClass: 1
Flags: W
LayerCount: 2
Fore
SplineSet
-29 0 m 1
 27 700 l 1
 142 700 l 1
 94 181 l 1
 98 181 l 1
 272 600 l 1
 368 600 l 1
 402 181 l 1
 406 181 l 1
 532 700 l 1
 647 700 l 1
 469 0 l 1
 323 0 l 1
 290 409 l 1
 286 409 l 1
 117 0 l 1
 -29 0 l 1
EndSplineSet
Validated: 1
EndChar

StartChar: W.leftS
Encoding: 65681 -1 295
Width: 600
GlyphClass: 1
Flags: W
LayerCount: 2
Fore
SplineSet
-17 0 m 1
 39 700 l 1
 154 700 l 1
 106 181 l 1
 110 181 l 1
 284 600 l 1
 380 600 l 1
 414 181 l 1
 418 181 l 1
 544 700 l 1
 659 700 l 1
 481 0 l 1
 335 0 l 1
 302 409 l 1
 298 409 l 1
 129 0 l 1
 -17 0 l 1
EndSplineSet
Validated: 1
EndChar

StartChar: W.rightL
Encoding: 65682 -1 296
Width: 600
GlyphClass: 1
Flags: W
LayerCount: 2
Fore
SplineSet
45 0 m 1
 101 700 l 1
 216 700 l 1
 168 181 l 1
 172 181 l 1
 346 600 l 1
 442 600 l 1
 476 181 l 1
 480 181 l 1
 606 700 l 1
 721 700 l 1
 543 0 l 1
 397 0 l 1
 364 409 l 1
 360 409 l 1
 191 0 l 1
 45 0 l 1
EndSplineSet
Validated: 1
EndChar

StartChar: W.rightM
Encoding: 65683 -1 297
Width: 600
GlyphClass: 1
Flags: W
LayerCount: 2
Fore
SplineSet
31 0 m 1
 87 700 l 1
 202 700 l 1
 154 181 l 1
 158 181 l 1
 332 600 l 1
 428 600 l 1
 462 181 l 1
 466 181 l 1
 592 700 l 1
 707 700 l 1
 529 0 l 1
 383 0 l 1
 350 409 l 1
 346 409 l 1
 177 0 l 1
 31 0 l 1
EndSplineSet
Validated: 1
EndChar

StartChar: W.rightS
Encoding: 65684 -1 298
Width: 600
GlyphClass: 1
Flags: W
LayerCount: 2
Fore
SplineSet
19 0 m 1
 75 700 l 1
 190 700 l 1
 142 181 l 1
 146 181 l 1
 320 600 l 1
 416 600 l 1
 450 181 l 1
 454 181 l 1
 580 700 l 1
 695 700 l 1
 517 0 l 1
 371 0 l 1
 338 409 l 1
 334 409 l 1
 165 0 l 1
 19 0 l 1
EndSplineSet
Validated: 1
EndChar

StartChar: Wacute
Encoding: 7810 7810 299
Width: 600
GlyphClass: 1
Flags: W
LayerCount: 2
Fore
SplineSet
1 0 m 1
 57 700 l 1
 172 700 l 1
 124 181 l 1
 128 181 l 1
 302 600 l 1
 398 600 l 1
 432 181 l 1
 436 181 l 1
 562 700 l 1
 677 700 l 1
 499 0 l 1
 353 0 l 1
 320 409 l 1
 316 409 l 1
 147 0 l 1
 1 0 l 1
568 980 m 1
 405 780 l 1
 305 780 l 1
 418 980 l 1
 568 980 l 1
EndSplineSet
Validated: 1
EndChar

StartChar: Wcircumflex
Encoding: 372 372 300
Width: 600
GlyphClass: 1
Flags: W
LayerCount: 2
Fore
SplineSet
1 0 m 1
 57 700 l 1
 172 700 l 1
 124 181 l 1
 128 181 l 1
 302 600 l 1
 398 600 l 1
 432 181 l 1
 436 181 l 1
 562 700 l 1
 677 700 l 1
 499 0 l 1
 353 0 l 1
 320 409 l 1
 316 409 l 1
 147 0 l 1
 1 0 l 1
205 771 m 1
 357 971 l 1
 467 971 l 1
 553 771 l 1
 458 771 l 1
 396 873 l 1
 300 771 l 1
 205 771 l 1
EndSplineSet
Validated: 1
EndChar

StartChar: Wdieresis
Encoding: 7812 7812 301
Width: 600
GlyphClass: 1
Flags: W
LayerCount: 2
Fore
SplineSet
1 0 m 1
 57 700 l 1
 172 700 l 1
 124 181 l 1
 128 181 l 1
 302 600 l 1
 398 600 l 1
 432 181 l 1
 436 181 l 1
 562 700 l 1
 677 700 l 1
 499 0 l 1
 353 0 l 1
 320 409 l 1
 316 409 l 1
 147 0 l 1
 1 0 l 1
200 859 m 0
 208 906 251 943 297 943 c 0
 344 943 375 906 367 859 c 0
 359 813 317 776 270 776 c 0
 224 776 192 813 200 859 c 0
420 859 m 0
 428 906 471 943 517 943 c 0
 564 943 595 906 587 859 c 0
 579 813 537 776 490 776 c 0
 444 776 412 813 420 859 c 0
EndSplineSet
Validated: 33
Substitution2: "'cv03' +W1d7JlPYT1MA-03 +Z+VifgAA 2+Zv9O44ho" Wdieresis.square
EndChar

StartChar: Wdieresis.square
Encoding: 65685 -1 302
Width: 600
GlyphClass: 1
Flags: W
LayerCount: 2
Fore
SplineSet
1 0 m 1
 57 700 l 1
 172 700 l 1
 124 181 l 1
 128 181 l 1
 302 600 l 1
 398 600 l 1
 432 181 l 1
 436 181 l 1
 562 700 l 1
 677 700 l 1
 499 0 l 1
 353 0 l 1
 320 409 l 1
 316 409 l 1
 147 0 l 1
 1 0 l 1
197 775 m 1
 221 920 l 1
 366 920 l 1
 342 775 l 1
 197 775 l 1
417 775 m 1
 441 920 l 1
 586 920 l 1
 562 775 l 1
 417 775 l 1
EndSplineSet
Validated: 1
EndChar

StartChar: Wgrave
Encoding: 7808 7808 303
Width: 600
GlyphClass: 1
Flags: W
LayerCount: 2
Fore
SplineSet
1 0 m 1
 57 700 l 1
 172 700 l 1
 124 181 l 1
 128 181 l 1
 302 600 l 1
 398 600 l 1
 432 181 l 1
 436 181 l 1
 562 700 l 1
 677 700 l 1
 499 0 l 1
 353 0 l 1
 320 409 l 1
 316 409 l 1
 147 0 l 1
 1 0 l 1
455 780 m 1
 355 780 l 1
 260 980 l 1
 410 980 l 1
 455 780 l 1
EndSplineSet
Validated: 1
EndChar

StartChar: X
Encoding: 88 88 304
Width: 600
GlyphClass: 1
Flags: W
LayerCount: 2
Fore
SplineSet
-45 0 m 1
 236 365 l 1
 88 700 l 1
 227 700 l 1
 328 470 l 1
 507 700 l 1
 644 700 l 1
 385 367 l 1
 545 0 l 1
 406 0 l 1
 292 261 l 1
 92 0 l 1
 -45 0 l 1
EndSplineSet
Validated: 1
Substitution2: "+U1VOAGb/Y2IA +Z+VifgAA 72+Zv9O44ho" X.rightS
Substitution2: "+U1VOAGb/Y2IA +Z+VifgAA 71+Zv9O44ho" X.rightM
Substitution2: "+U1VOAGb/Y2IA +Z+VifgAA 70+Zv9O44ho" X.rightL
Substitution2: "+U1VOAGb/Y2IA +Z+VifgAA 69+Zv9O44ho" X.leftS
Substitution2: "+U1VOAGb/Y2IA +Z+VifgAA 68+Zv9O44ho" X.leftM
Substitution2: "+U1VOAGb/Y2IA +Z+VifgAA 67+Zv9O44ho" X.leftL
Substitution2: "+U1VOAGb/Y2IA +Z+VifgAA 66+Zv9O44ho" X.rightS
Substitution2: "+U1VOAGb/Y2IA +Z+VifgAA 65+Zv9O44ho" X.rightM
Substitution2: "+U1VOAGb/Y2IA +Z+VifgAA 64+Zv9O44ho" X.rightS
Substitution2: "+U1VOAGb/Y2IA +Z+VifgAA 63+Zv9O44ho" X.rightM
Substitution2: "+U1VOAGb/Y2IA +Z+VifgAA 62+Zv9O44ho" X.rightL
Substitution2: "+U1VOAGb/Y2IA +Z+VifgAA 61+Zv9O44ho" X.leftS
Substitution2: "+U1VOAGb/Y2IA +Z+VifgAA 60+Zv9O44ho" X.leftM
Substitution2: "+U1VOAGb/Y2IA +Z+VifgAA 59+Zv9O44ho" X.leftL
EndChar

StartChar: X.leftL
Encoding: 65686 -1 305
Width: 600
GlyphClass: 1
Flags: W
LayerCount: 2
Fore
SplineSet
-89 0 m 1
 192 365 l 1
 44 700 l 1
 183 700 l 1
 284 470 l 1
 463 700 l 1
 600 700 l 1
 341 367 l 1
 501 0 l 1
 362 0 l 1
 248 261 l 1
 48 0 l 1
 -89 0 l 1
EndSplineSet
Validated: 1
EndChar

StartChar: X.leftM
Encoding: 65687 -1 306
Width: 600
GlyphClass: 1
Flags: W
LayerCount: 2
Fore
SplineSet
-75 0 m 1
 206 365 l 1
 58 700 l 1
 197 700 l 1
 298 470 l 1
 477 700 l 1
 614 700 l 1
 355 367 l 1
 515 0 l 1
 376 0 l 1
 262 261 l 1
 62 0 l 1
 -75 0 l 1
EndSplineSet
Validated: 1
EndChar

StartChar: X.leftS
Encoding: 65688 -1 307
Width: 600
GlyphClass: 1
Flags: W
LayerCount: 2
Fore
SplineSet
-63 0 m 1
 218 365 l 1
 70 700 l 1
 209 700 l 1
 310 470 l 1
 489 700 l 1
 626 700 l 1
 367 367 l 1
 527 0 l 1
 388 0 l 1
 274 261 l 1
 74 0 l 1
 -63 0 l 1
EndSplineSet
Validated: 1
EndChar

StartChar: X.rightL
Encoding: 65689 -1 308
Width: 600
GlyphClass: 1
Flags: W
LayerCount: 2
Fore
SplineSet
-1 0 m 1
 280 365 l 1
 132 700 l 1
 271 700 l 1
 372 470 l 1
 551 700 l 1
 688 700 l 1
 429 367 l 1
 589 0 l 1
 450 0 l 1
 336 261 l 1
 136 0 l 1
 -1 0 l 1
EndSplineSet
Validated: 1
EndChar

StartChar: X.rightM
Encoding: 65690 -1 309
Width: 600
GlyphClass: 1
Flags: W
LayerCount: 2
Fore
SplineSet
-15 0 m 1
 266 365 l 1
 118 700 l 1
 257 700 l 1
 358 470 l 1
 537 700 l 1
 674 700 l 1
 415 367 l 1
 575 0 l 1
 436 0 l 1
 322 261 l 1
 122 0 l 1
 -15 0 l 1
EndSplineSet
Validated: 1
EndChar

StartChar: X.rightS
Encoding: 65691 -1 310
Width: 600
GlyphClass: 1
Flags: W
LayerCount: 2
Fore
SplineSet
-27 0 m 1
 254 365 l 1
 106 700 l 1
 245 700 l 1
 346 470 l 1
 525 700 l 1
 662 700 l 1
 403 367 l 1
 563 0 l 1
 424 0 l 1
 310 261 l 1
 110 0 l 1
 -27 0 l 1
EndSplineSet
Validated: 1
EndChar

StartChar: Xi
Encoding: 926 926 311
Width: 600
GlyphClass: 1
Flags: W
LayerCount: 2
Fore
SplineSet
24 0 m 1
 43 110 l 1
 495 110 l 1
 477 0 l 1
 24 0 l 1
112 308 m 1
 131 418 l 1
 510 418 l 1
 491 308 l 1
 112 308 l 1
123 590 m 1
 141 700 l 1
 594 700 l 1
 575 590 l 1
 123 590 l 1
EndSplineSet
Validated: 1
EndChar

StartChar: Y
Encoding: 89 89 312
Width: 600
GlyphClass: 1
Flags: W
LayerCount: 2
Fore
SplineSet
188 0 m 1
 237 294 l 1
 82 700 l 1
 217 700 l 1
 321 414 l 1
 521 700 l 1
 652 700 l 1
 361 294 l 1
 312 0 l 1
 188 0 l 1
EndSplineSet
Validated: 1
Substitution2: "+U1VOAGb/Y2IA +Z+VifgAA 72+Zv9O44ho" Y.rightS
Substitution2: "+U1VOAGb/Y2IA +Z+VifgAA 71+Zv9O44ho" Y.rightM
Substitution2: "+U1VOAGb/Y2IA +Z+VifgAA 70+Zv9O44ho" Y.rightL
Substitution2: "+U1VOAGb/Y2IA +Z+VifgAA 69+Zv9O44ho" Y.leftS
Substitution2: "+U1VOAGb/Y2IA +Z+VifgAA 68+Zv9O44ho" Y.leftM
Substitution2: "+U1VOAGb/Y2IA +Z+VifgAA 67+Zv9O44ho" Y.leftL
Substitution2: "+U1VOAGb/Y2IA +Z+VifgAA 66+Zv9O44ho" Y.rightS
Substitution2: "+U1VOAGb/Y2IA +Z+VifgAA 65+Zv9O44ho" Y.rightM
Substitution2: "+U1VOAGb/Y2IA +Z+VifgAA 64+Zv9O44ho" Y.rightS
Substitution2: "+U1VOAGb/Y2IA +Z+VifgAA 63+Zv9O44ho" Y.rightM
Substitution2: "+U1VOAGb/Y2IA +Z+VifgAA 62+Zv9O44ho" Y.rightL
Substitution2: "+U1VOAGb/Y2IA +Z+VifgAA 61+Zv9O44ho" Y.leftS
Substitution2: "+U1VOAGb/Y2IA +Z+VifgAA 60+Zv9O44ho" Y.leftM
Substitution2: "+U1VOAGb/Y2IA +Z+VifgAA 59+Zv9O44ho" Y.leftL
EndChar

StartChar: Y.leftL
Encoding: 65692 -1 313
Width: 600
GlyphClass: 1
Flags: W
LayerCount: 2
Fore
SplineSet
144 0 m 1
 193 294 l 1
 38 700 l 1
 173 700 l 1
 277 414 l 1
 477 700 l 1
 608 700 l 1
 317 294 l 1
 268 0 l 1
 144 0 l 1
EndSplineSet
Validated: 1
EndChar

StartChar: Y.leftM
Encoding: 65693 -1 314
Width: 600
GlyphClass: 1
Flags: W
LayerCount: 2
Fore
SplineSet
158 0 m 1
 207 294 l 1
 52 700 l 1
 187 700 l 1
 291 414 l 1
 491 700 l 1
 622 700 l 1
 331 294 l 1
 282 0 l 1
 158 0 l 1
EndSplineSet
Validated: 1
EndChar

StartChar: Y.leftS
Encoding: 65694 -1 315
Width: 600
GlyphClass: 1
Flags: W
LayerCount: 2
Fore
SplineSet
170 0 m 1
 219 294 l 1
 64 700 l 1
 199 700 l 1
 303 414 l 1
 503 700 l 1
 634 700 l 1
 343 294 l 1
 294 0 l 1
 170 0 l 1
EndSplineSet
Validated: 1
EndChar

StartChar: Y.rightL
Encoding: 65695 -1 316
Width: 600
GlyphClass: 1
Flags: W
LayerCount: 2
Fore
SplineSet
232 0 m 1
 281 294 l 1
 126 700 l 1
 261 700 l 1
 365 414 l 1
 565 700 l 1
 696 700 l 1
 405 294 l 1
 356 0 l 1
 232 0 l 1
EndSplineSet
Validated: 1
EndChar

StartChar: Y.rightM
Encoding: 65696 -1 317
Width: 600
GlyphClass: 1
Flags: W
LayerCount: 2
Fore
SplineSet
218 0 m 1
 267 294 l 1
 112 700 l 1
 247 700 l 1
 351 414 l 1
 551 700 l 1
 682 700 l 1
 391 294 l 1
 342 0 l 1
 218 0 l 1
EndSplineSet
Validated: 1
EndChar

StartChar: Y.rightS
Encoding: 65697 -1 318
Width: 600
GlyphClass: 1
Flags: W
LayerCount: 2
Fore
SplineSet
206 0 m 1
 255 294 l 1
 100 700 l 1
 235 700 l 1
 339 414 l 1
 539 700 l 1
 670 700 l 1
 379 294 l 1
 330 0 l 1
 206 0 l 1
EndSplineSet
Validated: 1
EndChar

StartChar: Yacute
Encoding: 221 221 319
Width: 600
GlyphClass: 1
Flags: W
LayerCount: 2
Fore
SplineSet
188 0 m 1
 237 294 l 1
 82 700 l 1
 217 700 l 1
 321 414 l 1
 521 700 l 1
 652 700 l 1
 361 294 l 1
 312 0 l 1
 188 0 l 1
568 980 m 1
 405 780 l 1
 305 780 l 1
 418 980 l 1
 568 980 l 1
EndSplineSet
Validated: 1
EndChar

StartChar: Ycircumflex
Encoding: 374 374 320
Width: 600
GlyphClass: 1
Flags: W
LayerCount: 2
Fore
SplineSet
188 0 m 1
 237 294 l 1
 82 700 l 1
 217 700 l 1
 321 414 l 1
 521 700 l 1
 652 700 l 1
 361 294 l 1
 312 0 l 1
 188 0 l 1
205 771 m 1
 357 971 l 1
 467 971 l 1
 553 771 l 1
 458 771 l 1
 396 873 l 1
 300 771 l 1
 205 771 l 1
EndSplineSet
Validated: 1
EndChar

StartChar: Ydieresis
Encoding: 376 376 321
Width: 600
GlyphClass: 1
Flags: W
LayerCount: 2
Fore
SplineSet
188 0 m 1
 237 294 l 1
 82 700 l 1
 217 700 l 1
 321 414 l 1
 521 700 l 1
 652 700 l 1
 361 294 l 1
 312 0 l 1
 188 0 l 1
200 859 m 0
 208 906 251 943 297 943 c 0
 344 943 375 906 367 859 c 0
 359 813 317 776 270 776 c 0
 224 776 192 813 200 859 c 0
420 859 m 0
 428 906 471 943 517 943 c 0
 564 943 595 906 587 859 c 0
 579 813 537 776 490 776 c 0
 444 776 412 813 420 859 c 0
EndSplineSet
Validated: 33
Substitution2: "'cv03' +W1d7JlPYT1MA-03 +Z+VifgAA 2+Zv9O44ho" Ydieresis.square
EndChar

StartChar: Ydieresis.square
Encoding: 65698 -1 322
Width: 600
GlyphClass: 1
Flags: W
LayerCount: 2
Fore
SplineSet
188 0 m 1
 237 294 l 1
 82 700 l 1
 217 700 l 1
 321 414 l 1
 521 700 l 1
 652 700 l 1
 361 294 l 1
 312 0 l 1
 188 0 l 1
197 775 m 1
 221 920 l 1
 366 920 l 1
 342 775 l 1
 197 775 l 1
417 775 m 1
 441 920 l 1
 586 920 l 1
 562 775 l 1
 417 775 l 1
EndSplineSet
Validated: 1
EndChar

StartChar: Ygrave
Encoding: 7922 7922 323
Width: 600
GlyphClass: 1
Flags: W
LayerCount: 2
Fore
SplineSet
188 0 m 1
 237 294 l 1
 82 700 l 1
 217 700 l 1
 321 414 l 1
 521 700 l 1
 652 700 l 1
 361 294 l 1
 312 0 l 1
 188 0 l 1
455 780 m 1
 355 780 l 1
 260 980 l 1
 410 980 l 1
 455 780 l 1
EndSplineSet
Validated: 1
EndChar

StartChar: Z
Encoding: 90 90 324
Width: 600
GlyphClass: 1
Flags: W
LayerCount: 2
Fore
SplineSet
0 0 m 1
 17 100 l 1
 429 590 l 1
 108 590 l 1
 127 700 l 1
 600 700 l 1
 583 600 l 1
 170 110 l 1
 518 110 l 1
 500 0 l 1
 0 0 l 1
EndSplineSet
Validated: 1
Substitution2: "+U1VOAGb/Y2IA +Z+VifgAA 72+Zv9O44ho" Z.rightS
Substitution2: "+U1VOAGb/Y2IA +Z+VifgAA 71+Zv9O44ho" Z.rightM
Substitution2: "+U1VOAGb/Y2IA +Z+VifgAA 70+Zv9O44ho" Z.rightL
Substitution2: "+U1VOAGb/Y2IA +Z+VifgAA 69+Zv9O44ho" Z.leftS
Substitution2: "+U1VOAGb/Y2IA +Z+VifgAA 68+Zv9O44ho" Z.leftM
Substitution2: "+U1VOAGb/Y2IA +Z+VifgAA 67+Zv9O44ho" Z.leftL
Substitution2: "+U1VOAGb/Y2IA +Z+VifgAA 66+Zv9O44ho" Z.rightS
Substitution2: "+U1VOAGb/Y2IA +Z+VifgAA 65+Zv9O44ho" Z.rightM
Substitution2: "+U1VOAGb/Y2IA +Z+VifgAA 64+Zv9O44ho" Z.rightS
Substitution2: "+U1VOAGb/Y2IA +Z+VifgAA 63+Zv9O44ho" Z.rightM
Substitution2: "+U1VOAGb/Y2IA +Z+VifgAA 62+Zv9O44ho" Z.rightL
Substitution2: "+U1VOAGb/Y2IA +Z+VifgAA 61+Zv9O44ho" Z.leftS
Substitution2: "+U1VOAGb/Y2IA +Z+VifgAA 60+Zv9O44ho" Z.leftM
Substitution2: "+U1VOAGb/Y2IA +Z+VifgAA 59+Zv9O44ho" Z.leftL
EndChar

StartChar: Z.leftL
Encoding: 65699 -1 325
Width: 600
GlyphClass: 1
Flags: W
LayerCount: 2
Fore
SplineSet
-44 0 m 1
 -27 100 l 1
 385 590 l 1
 64 590 l 1
 83 700 l 1
 556 700 l 1
 539 600 l 1
 126 110 l 1
 474 110 l 1
 456 0 l 1
 -44 0 l 1
EndSplineSet
Validated: 1
EndChar

StartChar: Z.leftM
Encoding: 65700 -1 326
Width: 600
GlyphClass: 1
Flags: W
LayerCount: 2
Fore
SplineSet
-30 0 m 1
 -13 100 l 1
 399 590 l 1
 78 590 l 1
 97 700 l 1
 570 700 l 1
 553 600 l 1
 140 110 l 1
 488 110 l 1
 470 0 l 1
 -30 0 l 1
EndSplineSet
Validated: 1
EndChar

StartChar: Z.leftS
Encoding: 65701 -1 327
Width: 600
GlyphClass: 1
Flags: W
LayerCount: 2
Fore
SplineSet
-18 0 m 1
 -1 100 l 1
 411 590 l 1
 90 590 l 1
 109 700 l 1
 582 700 l 1
 565 600 l 1
 152 110 l 1
 500 110 l 1
 482 0 l 1
 -18 0 l 1
EndSplineSet
Validated: 1
EndChar

StartChar: Z.rightL
Encoding: 65702 -1 328
Width: 600
GlyphClass: 1
Flags: W
LayerCount: 2
Fore
SplineSet
44 0 m 1
 61 100 l 1
 473 590 l 1
 152 590 l 1
 171 700 l 1
 644 700 l 1
 627 600 l 1
 214 110 l 1
 562 110 l 1
 544 0 l 1
 44 0 l 1
EndSplineSet
Validated: 1
EndChar

StartChar: Z.rightM
Encoding: 65703 -1 329
Width: 600
GlyphClass: 1
Flags: W
LayerCount: 2
Fore
SplineSet
30 0 m 1
 47 100 l 1
 459 590 l 1
 138 590 l 1
 157 700 l 1
 630 700 l 1
 613 600 l 1
 200 110 l 1
 548 110 l 1
 530 0 l 1
 30 0 l 1
EndSplineSet
Validated: 1
EndChar

StartChar: Z.rightS
Encoding: 65704 -1 330
Width: 600
GlyphClass: 1
Flags: W
LayerCount: 2
Fore
SplineSet
18 0 m 1
 35 100 l 1
 447 590 l 1
 126 590 l 1
 145 700 l 1
 618 700 l 1
 601 600 l 1
 188 110 l 1
 536 110 l 1
 518 0 l 1
 18 0 l 1
EndSplineSet
Validated: 1
EndChar

StartChar: Zacute
Encoding: 377 377 331
Width: 600
GlyphClass: 1
Flags: W
LayerCount: 2
Fore
SplineSet
0 0 m 1
 17 100 l 1
 429 590 l 1
 108 590 l 1
 127 700 l 1
 600 700 l 1
 583 600 l 1
 170 110 l 1
 518 110 l 1
 500 0 l 1
 0 0 l 1
568 980 m 1
 405 780 l 1
 305 780 l 1
 418 980 l 1
 568 980 l 1
EndSplineSet
Validated: 1
EndChar

StartChar: Zcaron
Encoding: 381 381 332
Width: 600
GlyphClass: 1
Flags: W
LayerCount: 2
Fore
SplineSet
0 0 m 1
 17 100 l 1
 429 590 l 1
 108 590 l 1
 127 700 l 1
 600 700 l 1
 583 600 l 1
 170 110 l 1
 518 110 l 1
 500 0 l 1
 0 0 l 1
324 771 m 1
 238 971 l 1
 333 971 l 1
 395 869 l 1
 491 971 l 1
 586 971 l 1
 434 771 l 1
 324 771 l 1
EndSplineSet
Validated: 1
EndChar

StartChar: Zdotaccent
Encoding: 379 379 333
Width: 600
GlyphClass: 1
Flags: W
LayerCount: 2
Fore
SplineSet
0 0 m 1
 17 100 l 1
 429 590 l 1
 108 590 l 1
 127 700 l 1
 600 700 l 1
 583 600 l 1
 170 110 l 1
 518 110 l 1
 500 0 l 1
 0 0 l 1
303 861 m 0
 312 912 359 952 409 952 c 0
 460 952 494 912 485 861 c 0
 477 811 430 770 379 770 c 0
 329 770 295 811 303 861 c 0
EndSplineSet
Validated: 33
Substitution2: "'cv03' +W1d7JlPYT1MA-03 +Z+VifgAA 2+Zv9O44ho" Zdotaccent.square
EndChar

StartChar: Zdotaccent.square
Encoding: 65705 -1 334
Width: 600
GlyphClass: 1
Flags: W
LayerCount: 2
Fore
SplineSet
0 0 m 1
 17 100 l 1
 429 590 l 1
 108 590 l 1
 127 700 l 1
 600 700 l 1
 583 600 l 1
 170 110 l 1
 518 110 l 1
 500 0 l 1
 0 0 l 1
302 782 m 1
 328 940 l 1
 486 940 l 1
 460 782 l 1
 302 782 l 1
EndSplineSet
Validated: 1
EndChar

StartChar: Zeta
Encoding: 918 918 335
Width: 600
GlyphClass: 1
Flags: W
LayerCount: 2
Fore
SplineSet
0 0 m 1
 17 100 l 1
 429 590 l 1
 108 590 l 1
 127 700 l 1
 600 700 l 1
 583 600 l 1
 170 110 l 1
 518 110 l 1
 500 0 l 1
 0 0 l 1
EndSplineSet
Validated: 1
EndChar

StartChar: a
Encoding: 97 97 336
Width: 600
GlyphClass: 1
Flags: W
LayerCount: 2
Fore
SplineSet
399 374 m 0
 407 421 379 450 323 450 c 0
 273 450 231 426 221 390 c 1
 104 390 l 1
 120 483 220 550 341 550 c 0
 464 550 536 480 519 376 c 2
 489 193 l 2
 476 120 472 55 476 0 c 1
 360 0 l 1
 358 20 357 44 356 70 c 1
 352 70 l 1
 315 19 260 -10 193 -10 c 0
 91 -10 29 58 46 156 c 0
 63 256 148 310 310 325 c 2
 343 328 l 2
 378 331 393 345 399 374 c 0
234 85 m 0
 299 85 359 137 370 204 c 2
 379 260 l 1
 368 254 354 250 338 248 c 2
 306 244 l 2
 216 233 174 207 166 158 c 0
 159 114 185 85 234 85 c 0
EndSplineSet
Validated: 33
Substitution2: "+U1VOAGb/Y2IA +Z+VifgAA 72+Zv9O44ho" a.rightS
Substitution2: "+U1VOAGb/Y2IA +Z+VifgAA 71+Zv9O44ho" a.rightM
Substitution2: "+U1VOAGb/Y2IA +Z+VifgAA 70+Zv9O44ho" a.rightL
Substitution2: "+U1VOAGb/Y2IA +Z+VifgAA 69+Zv9O44ho" a.leftS
Substitution2: "+U1VOAGb/Y2IA +Z+VifgAA 68+Zv9O44ho" a.leftM
Substitution2: "+U1VOAGb/Y2IA +Z+VifgAA 67+Zv9O44ho" a.leftL
Substitution2: "+U1VOAGb/Y2IA +Z+VifgAA 66+Zv9O44ho" a.rightS
Substitution2: "+U1VOAGb/Y2IA +Z+VifgAA 65+Zv9O44ho" a.rightM
Substitution2: "+U1VOAGb/Y2IA +Z+VifgAA 64+Zv9O44ho" a.rightS
Substitution2: "+U1VOAGb/Y2IA +Z+VifgAA 63+Zv9O44ho" a.rightM
Substitution2: "+U1VOAGb/Y2IA +Z+VifgAA 62+Zv9O44ho" a.rightL
Substitution2: "+U1VOAGb/Y2IA +Z+VifgAA 61+Zv9O44ho" a.leftS
Substitution2: "+U1VOAGb/Y2IA +Z+VifgAA 60+Zv9O44ho" a.leftM
Substitution2: "+U1VOAGb/Y2IA +Z+VifgAA 59+Zv9O44ho" a.leftL
Substitution2: "'cv08' +W1d7JlPYT1MA-08 +Z+VifgAA 7+Zv9O44ho" a.cv08
Substitution2: "'cv01' +W1d7JlPYT1MA-01 +Z+VifgAA 0+Zv9O44ho" a.cv01
EndChar

StartChar: a.cv01
Encoding: 65706 -1 337
Width: 600
GlyphClass: 1
Flags: W
LayerCount: 2
Fore
SplineSet
370 89 m 1
 328 25 272 -10 204 -10 c 0
 80 -10 7 109 34 270 c 0
 61 430 174 550 298 550 c 0
 366 550 410 514 430 449 c 1
 435 449 l 1
 450 540 l 1
 565 540 l 1
 505 180 l 2
 497 129 489 63 482 0 c 1
 367 0 l 1
 369 32 371 60 374 89 c 1
 370 89 l 1
402 270 m 0
 418 367 377 440 306 440 c 0
 235 440 170 367 154 270 c 0
 138 173 179 100 250 100 c 0
 321 100 386 173 402 270 c 0
EndSplineSet
Validated: 33
Substitution2: "+U1VOAGb/Y2IA +Z+VifgAA 72+Zv9O44ho" a.cv01.rightS
Substitution2: "+U1VOAGb/Y2IA +Z+VifgAA 71+Zv9O44ho" a.cv01.rightM
Substitution2: "+U1VOAGb/Y2IA +Z+VifgAA 70+Zv9O44ho" a.cv01.rightL
Substitution2: "+U1VOAGb/Y2IA +Z+VifgAA 69+Zv9O44ho" a.cv01.leftS
Substitution2: "+U1VOAGb/Y2IA +Z+VifgAA 68+Zv9O44ho" a.cv01.leftM
Substitution2: "+U1VOAGb/Y2IA +Z+VifgAA 67+Zv9O44ho" a.cv01.leftL
Substitution2: "+U1VOAGb/Y2IA +Z+VifgAA 66+Zv9O44ho" a.cv01.rightS
Substitution2: "+U1VOAGb/Y2IA +Z+VifgAA 65+Zv9O44ho" a.cv01.rightM
Substitution2: "+U1VOAGb/Y2IA +Z+VifgAA 64+Zv9O44ho" a.cv01.rightS
Substitution2: "+U1VOAGb/Y2IA +Z+VifgAA 63+Zv9O44ho" a.cv01.rightM
Substitution2: "+U1VOAGb/Y2IA +Z+VifgAA 62+Zv9O44ho" a.cv01.rightL
Substitution2: "+U1VOAGb/Y2IA +Z+VifgAA 61+Zv9O44ho" a.cv01.leftS
Substitution2: "+U1VOAGb/Y2IA +Z+VifgAA 60+Zv9O44ho" a.cv01.leftM
Substitution2: "+U1VOAGb/Y2IA +Z+VifgAA 59+Zv9O44ho" a.cv01.leftL
EndChar

StartChar: a.cv01.leftL
Encoding: 65707 -1 338
Width: 600
GlyphClass: 1
Flags: W
LayerCount: 2
Fore
SplineSet
326 89 m 1
 284 25 228 -10 160 -10 c 0
 36 -10 -37 109 -10 270 c 0
 17 430 130 550 254 550 c 0
 322 550 366 514 386 449 c 1
 391 449 l 1
 406 540 l 1
 521 540 l 1
 461 180 l 2
 453 129 445 63 438 0 c 1
 323 0 l 1
 325 32 327 60 330 89 c 1
 326 89 l 1
358 270 m 0
 374 367 333 440 262 440 c 0
 191 440 126 367 110 270 c 0
 94 173 135 100 206 100 c 0
 277 100 342 173 358 270 c 0
EndSplineSet
Validated: 33
EndChar

StartChar: a.cv01.leftM
Encoding: 65708 -1 339
Width: 600
GlyphClass: 1
Flags: W
LayerCount: 2
Fore
SplineSet
340 89 m 1
 298 25 242 -10 174 -10 c 0
 50 -10 -23 109 4 270 c 0
 31 430 144 550 268 550 c 0
 336 550 380 514 400 449 c 1
 405 449 l 1
 420 540 l 1
 535 540 l 1
 475 180 l 2
 467 129 459 63 452 0 c 1
 337 0 l 1
 339 32 341 60 344 89 c 1
 340 89 l 1
372 270 m 0
 388 367 347 440 276 440 c 0
 205 440 140 367 124 270 c 0
 108 173 149 100 220 100 c 0
 291 100 356 173 372 270 c 0
EndSplineSet
Validated: 33
EndChar

StartChar: a.cv01.leftS
Encoding: 65709 -1 340
Width: 600
GlyphClass: 1
Flags: W
LayerCount: 2
Fore
SplineSet
352 89 m 1
 310 25 254 -10 186 -10 c 0
 62 -10 -11 109 16 270 c 0
 43 430 156 550 280 550 c 0
 348 550 392 514 412 449 c 1
 417 449 l 1
 432 540 l 1
 547 540 l 1
 487 180 l 2
 479 129 471 63 464 0 c 1
 349 0 l 1
 351 32 353 60 356 89 c 1
 352 89 l 1
384 270 m 0
 400 367 359 440 288 440 c 0
 217 440 152 367 136 270 c 0
 120 173 161 100 232 100 c 0
 303 100 368 173 384 270 c 0
EndSplineSet
Validated: 33
EndChar

StartChar: a.cv01.rightL
Encoding: 65710 -1 341
Width: 600
GlyphClass: 1
Flags: W
LayerCount: 2
Fore
SplineSet
414 89 m 1
 372 25 316 -10 248 -10 c 0
 124 -10 51 109 78 270 c 0
 105 430 218 550 342 550 c 0
 410 550 454 514 474 449 c 1
 479 449 l 1
 494 540 l 1
 609 540 l 1
 549 180 l 2
 541 129 533 63 526 0 c 1
 411 0 l 1
 413 32 415 60 418 89 c 1
 414 89 l 1
446 270 m 0
 462 367 421 440 350 440 c 0
 279 440 214 367 198 270 c 0
 182 173 223 100 294 100 c 0
 365 100 430 173 446 270 c 0
EndSplineSet
Validated: 33
EndChar

StartChar: a.cv01.rightM
Encoding: 65711 -1 342
Width: 600
GlyphClass: 1
Flags: W
LayerCount: 2
Fore
SplineSet
400 89 m 1
 358 25 302 -10 234 -10 c 0
 110 -10 37 109 64 270 c 0
 91 430 204 550 328 550 c 0
 396 550 440 514 460 449 c 1
 465 449 l 1
 480 540 l 1
 595 540 l 1
 535 180 l 2
 527 129 519 63 512 0 c 1
 397 0 l 1
 399 32 401 60 404 89 c 1
 400 89 l 1
432 270 m 0
 448 367 407 440 336 440 c 0
 265 440 200 367 184 270 c 0
 168 173 209 100 280 100 c 0
 351 100 416 173 432 270 c 0
EndSplineSet
Validated: 33
EndChar

StartChar: a.cv01.rightS
Encoding: 65712 -1 343
Width: 600
GlyphClass: 1
Flags: W
LayerCount: 2
Fore
SplineSet
388 89 m 1
 346 25 290 -10 222 -10 c 0
 98 -10 25 109 52 270 c 0
 79 430 192 550 316 550 c 0
 384 550 428 514 448 449 c 1
 453 449 l 1
 468 540 l 1
 583 540 l 1
 523 180 l 2
 515 129 507 63 500 0 c 1
 385 0 l 1
 387 32 389 60 392 89 c 1
 388 89 l 1
420 270 m 0
 436 367 395 440 324 440 c 0
 253 440 188 367 172 270 c 0
 156 173 197 100 268 100 c 0
 339 100 404 173 420 270 c 0
EndSplineSet
Validated: 33
EndChar

StartChar: a.cv08
Encoding: 65713 -1 344
Width: 600
GlyphClass: 1
Flags: W
LayerCount: 2
Fore
SplineSet
367 0 m 1
 368 32 371 60 374 89 c 1
 369 89 l 1
 328 25 271 -10 203 -10 c 0
 79 -10 7 109 34 269 c 0
 61 430 174 550 298 550 c 0
 366 550 411 514 430 449 c 1
 435 449 l 1
 450 540 l 1
 565 540 l 1
 559 504 510 210 505 180 c 0
 497 129 489 63 482 0 c 1
 367 0 l 1
402 270 m 0
 418 367 377 440 306 440 c 0
 235 440 170 367 154 270 c 0
 138 173 179 100 250 100 c 0
 321 100 386 173 402 270 c 0
EndSplineSet
Validated: 33
Substitution2: "+U1VOAGb/Y2IA +Z+VifgAA 72+Zv9O44ho" a.cv08.rightS
Substitution2: "+U1VOAGb/Y2IA +Z+VifgAA 71+Zv9O44ho" a.cv08.rightM
Substitution2: "+U1VOAGb/Y2IA +Z+VifgAA 70+Zv9O44ho" a.cv08.rightL
Substitution2: "+U1VOAGb/Y2IA +Z+VifgAA 69+Zv9O44ho" a.cv08.leftS
Substitution2: "+U1VOAGb/Y2IA +Z+VifgAA 68+Zv9O44ho" a.cv08.leftM
Substitution2: "+U1VOAGb/Y2IA +Z+VifgAA 67+Zv9O44ho" a.cv08.leftL
Substitution2: "+U1VOAGb/Y2IA +Z+VifgAA 66+Zv9O44ho" a.cv08.rightS
Substitution2: "+U1VOAGb/Y2IA +Z+VifgAA 65+Zv9O44ho" a.cv08.rightM
Substitution2: "+U1VOAGb/Y2IA +Z+VifgAA 64+Zv9O44ho" a.cv08.rightS
Substitution2: "+U1VOAGb/Y2IA +Z+VifgAA 63+Zv9O44ho" a.cv08.rightM
Substitution2: "+U1VOAGb/Y2IA +Z+VifgAA 62+Zv9O44ho" a.cv08.rightL
Substitution2: "+U1VOAGb/Y2IA +Z+VifgAA 61+Zv9O44ho" a.cv08.leftS
Substitution2: "+U1VOAGb/Y2IA +Z+VifgAA 60+Zv9O44ho" a.cv08.leftM
Substitution2: "+U1VOAGb/Y2IA +Z+VifgAA 59+Zv9O44ho" a.cv08.leftL
EndChar

StartChar: a.cv08.leftL
Encoding: 65714 -1 345
Width: 600
GlyphClass: 1
Flags: W
LayerCount: 2
Fore
SplineSet
325 0 m 1
 326 32 329 60 332 89 c 1
 327 89 l 1
 286 25 229 -10 161 -10 c 0
 37 -10 -35 109 -8 269 c 0
 19 430 132 550 256 550 c 0
 324 550 369 514 388 449 c 1
 393 449 l 1
 408 540 l 1
 523 540 l 1
 517 504 468 210 463 180 c 0
 455 129 447 63 440 0 c 1
 325 0 l 1
360 270 m 0
 376 367 335 440 264 440 c 0
 193 440 128 367 112 270 c 0
 96 173 137 100 208 100 c 0
 279 100 344 173 360 270 c 0
EndSplineSet
Validated: 33
EndChar

StartChar: a.cv08.leftM
Encoding: 65715 -1 346
Width: 600
GlyphClass: 1
Flags: W
LayerCount: 2
Fore
SplineSet
340 0 m 1
 341 32 344 60 347 89 c 1
 342 89 l 1
 301 25 244 -10 176 -10 c 0
 52 -10 -20 109 7 269 c 0
 34 430 147 550 271 550 c 0
 339 550 384 514 403 449 c 1
 408 449 l 1
 423 540 l 1
 538 540 l 1
 532 504 483 210 478 180 c 0
 470 129 462 63 455 0 c 1
 340 0 l 1
375 270 m 0
 391 367 350 440 279 440 c 0
 208 440 143 367 127 270 c 0
 111 173 152 100 223 100 c 0
 294 100 359 173 375 270 c 0
EndSplineSet
Validated: 33
EndChar

StartChar: a.cv08.leftS
Encoding: 65716 -1 347
Width: 600
GlyphClass: 1
Flags: W
LayerCount: 2
Fore
SplineSet
355 0 m 1
 356 32 359 60 362 89 c 1
 357 89 l 1
 316 25 259 -10 191 -10 c 0
 67 -10 -5 109 22 269 c 0
 49 430 162 550 286 550 c 0
 354 550 399 514 418 449 c 1
 423 449 l 1
 438 540 l 1
 553 540 l 1
 547 504 498 210 493 180 c 0
 485 129 477 63 470 0 c 1
 355 0 l 1
390 270 m 0
 406 367 365 440 294 440 c 0
 223 440 158 367 142 270 c 0
 126 173 167 100 238 100 c 0
 309 100 374 173 390 270 c 0
EndSplineSet
Validated: 33
EndChar

StartChar: a.cv08.rightL
Encoding: 65717 -1 348
Width: 600
GlyphClass: 1
Flags: W
LayerCount: 2
Fore
SplineSet
409 0 m 1
 410 32 413 60 416 89 c 1
 411 89 l 1
 370 25 313 -10 245 -10 c 0
 121 -10 49 109 76 269 c 0
 103 430 216 550 340 550 c 0
 408 550 453 514 472 449 c 1
 477 449 l 1
 492 540 l 1
 607 540 l 1
 601 504 552 210 547 180 c 0
 539 129 531 63 524 0 c 1
 409 0 l 1
444 270 m 0
 460 367 419 440 348 440 c 0
 277 440 212 367 196 270 c 0
 180 173 221 100 292 100 c 0
 363 100 428 173 444 270 c 0
EndSplineSet
Validated: 33
EndChar

StartChar: a.cv08.rightM
Encoding: 65718 -1 349
Width: 600
GlyphClass: 1
Flags: W
LayerCount: 2
Fore
SplineSet
394 0 m 1
 395 32 398 60 401 89 c 1
 396 89 l 1
 355 25 298 -10 230 -10 c 0
 106 -10 34 109 61 269 c 0
 88 430 201 550 325 550 c 0
 393 550 438 514 457 449 c 1
 462 449 l 1
 477 540 l 1
 592 540 l 1
 586 504 537 210 532 180 c 0
 524 129 516 63 509 0 c 1
 394 0 l 1
429 270 m 0
 445 367 404 440 333 440 c 0
 262 440 197 367 181 270 c 0
 165 173 206 100 277 100 c 0
 348 100 413 173 429 270 c 0
EndSplineSet
Validated: 33
EndChar

StartChar: a.cv08.rightS
Encoding: 65719 -1 350
Width: 600
GlyphClass: 1
Flags: W
LayerCount: 2
Fore
SplineSet
379 0 m 1
 380 32 383 60 386 89 c 1
 381 89 l 1
 340 25 283 -10 215 -10 c 0
 91 -10 19 109 46 269 c 0
 73 430 186 550 310 550 c 0
 378 550 423 514 442 449 c 1
 447 449 l 1
 462 540 l 1
 577 540 l 1
 571 504 522 210 517 180 c 0
 509 129 501 63 494 0 c 1
 379 0 l 1
414 270 m 0
 430 367 389 440 318 440 c 0
 247 440 182 367 166 270 c 0
 150 173 191 100 262 100 c 0
 333 100 398 173 414 270 c 0
EndSplineSet
Validated: 33
EndChar

StartChar: a.leftL
Encoding: 65720 -1 351
Width: 600
GlyphClass: 1
Flags: W
LayerCount: 2
Fore
SplineSet
355 374 m 0
 363 421 335 450 279 450 c 0
 229 450 187 426 177 390 c 1
 60 390 l 1
 76 483 176 550 297 550 c 0
 420 550 492 480 475 376 c 2
 445 193 l 2
 432 120 428 55 432 0 c 1
 316 0 l 1
 314 20 313 44 312 70 c 1
 308 70 l 1
 271 19 216 -10 149 -10 c 0
 47 -10 -15 58 2 156 c 0
 19 256 104 310 266 325 c 2
 299 328 l 2
 334 331 349 345 355 374 c 0
190 85 m 0
 255 85 315 137 326 204 c 2
 335 260 l 1
 324 254 310 250 294 248 c 2
 262 244 l 2
 172 233 130 207 122 158 c 0
 115 114 141 85 190 85 c 0
EndSplineSet
Validated: 33
Substitution2: "'cv08' +W1d7JlPYT1MA-08 +Z+VifgAA 7+Zv9O44ho" a.cv08.leftL
Substitution2: "'cv01' +W1d7JlPYT1MA-01 +Z+VifgAA 0+Zv9O44ho" a.cv01.leftL
EndChar

StartChar: a.leftM
Encoding: 65721 -1 352
Width: 600
GlyphClass: 1
Flags: W
LayerCount: 2
Fore
SplineSet
369 374 m 0
 377 421 349 450 293 450 c 0
 243 450 201 426 191 390 c 1
 74 390 l 1
 90 483 190 550 311 550 c 0
 434 550 506 480 489 376 c 2
 459 193 l 2
 446 120 442 55 446 0 c 1
 330 0 l 1
 328 20 327 44 326 70 c 1
 322 70 l 1
 285 19 230 -10 163 -10 c 0
 61 -10 -1 58 16 156 c 0
 33 256 118 310 280 325 c 2
 313 328 l 2
 348 331 363 345 369 374 c 0
204 85 m 0
 269 85 329 137 340 204 c 2
 349 260 l 1
 338 254 324 250 308 248 c 2
 276 244 l 2
 186 233 144 207 136 158 c 0
 129 114 155 85 204 85 c 0
EndSplineSet
Validated: 33
Substitution2: "'cv08' +W1d7JlPYT1MA-08 +Z+VifgAA 7+Zv9O44ho" a.cv08.leftM
Substitution2: "'cv01' +W1d7JlPYT1MA-01 +Z+VifgAA 0+Zv9O44ho" a.cv01.leftM
EndChar

StartChar: a.leftS
Encoding: 65722 -1 353
Width: 600
GlyphClass: 1
Flags: W
LayerCount: 2
Fore
SplineSet
387 374 m 0
 395 421 367 450 311 450 c 0
 261 450 219 426 209 390 c 1
 92 390 l 1
 108 483 208 550 329 550 c 0
 452 550 524 480 507 376 c 2
 477 193 l 2
 464 120 460 55 464 0 c 1
 348 0 l 1
 346 20 345 44 344 70 c 1
 340 70 l 1
 303 19 248 -10 181 -10 c 0
 79 -10 17 58 34 156 c 0
 51 256 136 310 298 325 c 2
 331 328 l 2
 366 331 381 345 387 374 c 0
222 85 m 0
 287 85 347 137 358 204 c 2
 367 260 l 1
 356 254 342 250 326 248 c 2
 294 244 l 2
 204 233 162 207 154 158 c 0
 147 114 173 85 222 85 c 0
EndSplineSet
Validated: 33
Substitution2: "'cv08' +W1d7JlPYT1MA-08 +Z+VifgAA 7+Zv9O44ho" a.cv08.leftS
Substitution2: "'cv01' +W1d7JlPYT1MA-01 +Z+VifgAA 0+Zv9O44ho" a.cv01.leftS
EndChar

StartChar: a.rightL
Encoding: 65723 -1 354
Width: 600
GlyphClass: 1
Flags: W
LayerCount: 2
Fore
SplineSet
443 374 m 0
 451 421 423 450 367 450 c 0
 317 450 275 426 265 390 c 1
 148 390 l 1
 164 483 264 550 385 550 c 0
 508 550 580 480 563 376 c 2
 533 193 l 2
 520 120 516 55 520 0 c 1
 404 0 l 1
 402 20 401 44 400 70 c 1
 396 70 l 1
 359 19 304 -10 237 -10 c 0
 135 -10 73 58 90 156 c 0
 107 256 192 310 354 325 c 2
 387 328 l 2
 422 331 437 345 443 374 c 0
278 85 m 0
 343 85 403 137 414 204 c 2
 423 260 l 1
 412 254 398 250 382 248 c 2
 350 244 l 2
 260 233 218 207 210 158 c 0
 203 114 229 85 278 85 c 0
EndSplineSet
Validated: 33
Substitution2: "'cv08' +W1d7JlPYT1MA-08 +Z+VifgAA 7+Zv9O44ho" a.cv08.rightL
Substitution2: "'cv01' +W1d7JlPYT1MA-01 +Z+VifgAA 0+Zv9O44ho" a.cv01.rightL
EndChar

StartChar: a.rightM
Encoding: 65724 -1 355
Width: 600
GlyphClass: 1
Flags: W
LayerCount: 2
Fore
SplineSet
426 374 m 0
 434 421 406 450 350 450 c 0
 300 450 258 426 248 390 c 1
 131 390 l 1
 147 483 247 550 368 550 c 0
 491 550 563 480 546 376 c 2
 516 193 l 2
 503 120 499 55 503 0 c 1
 387 0 l 1
 385 20 384 44 383 70 c 1
 379 70 l 1
 342 19 287 -10 220 -10 c 0
 118 -10 56 58 73 156 c 0
 90 256 175 310 337 325 c 2
 370 328 l 2
 405 331 420 345 426 374 c 0
261 85 m 0
 326 85 386 137 397 204 c 2
 406 260 l 1
 395 254 381 250 365 248 c 2
 333 244 l 2
 243 233 201 207 193 158 c 0
 186 114 212 85 261 85 c 0
EndSplineSet
Validated: 33
Substitution2: "'cv08' +W1d7JlPYT1MA-08 +Z+VifgAA 7+Zv9O44ho" a.cv08.rightM
Substitution2: "'cv01' +W1d7JlPYT1MA-01 +Z+VifgAA 0+Zv9O44ho" a.cv01.rightM
EndChar

StartChar: a.rightS
Encoding: 65725 -1 356
Width: 600
GlyphClass: 1
Flags: W
LayerCount: 2
Fore
SplineSet
411 374 m 0
 419 421 391 450 335 450 c 0
 285 450 243 426 233 390 c 1
 116 390 l 1
 132 483 232 550 353 550 c 0
 476 550 548 480 531 376 c 2
 501 193 l 2
 488 120 484 55 488 0 c 1
 372 0 l 1
 370 20 369 44 368 70 c 1
 364 70 l 1
 327 19 272 -10 205 -10 c 0
 103 -10 41 58 58 156 c 0
 75 256 160 310 322 325 c 2
 355 328 l 2
 390 331 405 345 411 374 c 0
246 85 m 0
 311 85 371 137 382 204 c 2
 391 260 l 1
 380 254 366 250 350 248 c 2
 318 244 l 2
 228 233 186 207 178 158 c 0
 171 114 197 85 246 85 c 0
EndSplineSet
Validated: 33
Substitution2: "'cv08' +W1d7JlPYT1MA-08 +Z+VifgAA 7+Zv9O44ho" a.cv08.rightS
Substitution2: "'cv01' +W1d7JlPYT1MA-01 +Z+VifgAA 0+Zv9O44ho" a.cv01.rightS
EndChar

StartChar: aacute
Encoding: 225 225 357
Width: 600
GlyphClass: 1
Flags: W
LayerCount: 2
Fore
SplineSet
399 374 m 0
 407 421 379 450 323 450 c 0
 273 450 231 426 221 390 c 1
 104 390 l 1
 120 483 220 550 341 550 c 0
 464 550 536 480 519 376 c 2
 489 193 l 2
 476 120 472 55 476 0 c 1
 360 0 l 1
 358 20 357 44 356 70 c 1
 352 70 l 1
 315 19 260 -10 193 -10 c 0
 91 -10 29 58 46 156 c 0
 63 256 148 310 310 325 c 2
 343 328 l 2
 378 331 393 345 399 374 c 0
234 85 m 0
 299 85 359 137 370 204 c 2
 379 260 l 1
 368 254 354 250 338 248 c 2
 306 244 l 2
 216 233 174 207 166 158 c 0
 159 114 185 85 234 85 c 0
537 820 m 1
 374 620 l 1
 274 620 l 1
 387 820 l 1
 537 820 l 1
EndSplineSet
Validated: 33
Substitution2: "'cv08' +W1d7JlPYT1MA-08 +Z+VifgAA 7+Zv9O44ho" aacute.cv08
Substitution2: "'cv01' +W1d7JlPYT1MA-01 +Z+VifgAA 0+Zv9O44ho" aacute.cv01
EndChar

StartChar: aacute.cv01
Encoding: 65726 -1 358
Width: 600
GlyphClass: 1
Flags: W
LayerCount: 2
Fore
SplineSet
370 89 m 1
 328 25 272 -10 204 -10 c 0
 80 -10 7 109 34 270 c 0
 61 430 174 550 298 550 c 0
 366 550 410 514 430 449 c 1
 435 449 l 1
 450 540 l 1
 565 540 l 1
 505 180 l 2
 497 129 489 63 482 0 c 1
 367 0 l 1
 369 32 371 60 374 89 c 1
 370 89 l 1
402 270 m 0
 418 367 377 440 306 440 c 0
 235 440 170 367 154 270 c 0
 138 173 179 100 250 100 c 0
 321 100 386 173 402 270 c 0
541 820 m 1
 378 620 l 1
 278 620 l 1
 391 820 l 1
 541 820 l 1
EndSplineSet
Validated: 33
EndChar

StartChar: aacute.cv08
Encoding: 65727 -1 359
Width: 600
GlyphClass: 1
Flags: W
LayerCount: 2
Fore
SplineSet
367 0 m 1
 368 32 371 60 374 89 c 1
 369 89 l 1
 328 25 271 -10 203 -10 c 0
 79 -10 7 109 34 269 c 0
 61 430 174 550 298 550 c 0
 366 550 411 514 430 449 c 1
 435 449 l 1
 450 540 l 1
 565 540 l 1
 559 504 510 210 505 180 c 0
 497 129 489 63 482 0 c 1
 367 0 l 1
402 270 m 0
 418 367 377 440 306 440 c 0
 235 440 170 367 154 270 c 0
 138 173 179 100 250 100 c 0
 321 100 386 173 402 270 c 0
541 820 m 1
 378 620 l 1
 278 620 l 1
 391 820 l 1
 541 820 l 1
EndSplineSet
Validated: 33
EndChar

StartChar: abreve
Encoding: 259 259 360
Width: 600
GlyphClass: 1
Flags: W
LayerCount: 2
Fore
SplineSet
399 374 m 0
 407 421 379 450 323 450 c 0
 273 450 231 426 221 390 c 1
 104 390 l 1
 120 483 220 550 341 550 c 0
 464 550 536 480 519 376 c 2
 489 193 l 2
 476 120 472 55 476 0 c 1
 360 0 l 1
 358 20 357 44 356 70 c 1
 352 70 l 1
 315 19 260 -10 193 -10 c 0
 91 -10 29 58 46 156 c 0
 63 256 148 310 310 325 c 2
 343 328 l 2
 378 331 393 345 399 374 c 0
234 85 m 0
 299 85 359 137 370 204 c 2
 379 260 l 1
 368 254 354 250 338 248 c 2
 306 244 l 2
 216 233 174 207 166 158 c 0
 159 114 185 85 234 85 c 0
319 772 m 1
 316 732 334 706 364 706 c 0
 394 706 420 732 431 772 c 1
 526 772 l 1
 511 681 437 616 349 616 c 0
 261 616 209 681 224 772 c 1
 319 772 l 1
EndSplineSet
Validated: 33
Substitution2: "'cv08' +W1d7JlPYT1MA-08 +Z+VifgAA 7+Zv9O44ho" abreve.cv08
Substitution2: "'cv01' +W1d7JlPYT1MA-01 +Z+VifgAA 0+Zv9O44ho" abreve.cv01
EndChar

StartChar: abreve.cv01
Encoding: 65728 -1 361
Width: 600
GlyphClass: 1
Flags: W
LayerCount: 2
Fore
SplineSet
370 89 m 1
 328 25 272 -10 204 -10 c 0
 80 -10 7 109 34 270 c 0
 61 430 174 550 298 550 c 0
 366 550 410 514 430 449 c 1
 435 449 l 1
 450 540 l 1
 565 540 l 1
 505 180 l 2
 497 129 489 63 482 0 c 1
 367 0 l 1
 369 32 371 60 374 89 c 1
 370 89 l 1
402 270 m 0
 418 367 377 440 306 440 c 0
 235 440 170 367 154 270 c 0
 138 173 179 100 250 100 c 0
 321 100 386 173 402 270 c 0
323 772 m 1
 320 732 338 706 368 706 c 0
 398 706 424 732 435 772 c 1
 530 772 l 1
 515 681 441 616 353 616 c 0
 265 616 213 681 228 772 c 1
 323 772 l 1
EndSplineSet
Validated: 33
EndChar

StartChar: abreve.cv08
Encoding: 65729 -1 362
Width: 600
GlyphClass: 1
Flags: W
LayerCount: 2
Fore
SplineSet
367 0 m 1
 368 32 371 60 374 89 c 1
 369 89 l 1
 328 25 271 -10 203 -10 c 0
 79 -10 7 109 34 269 c 0
 61 430 174 550 298 550 c 0
 366 550 411 514 430 449 c 1
 435 449 l 1
 450 540 l 1
 565 540 l 1
 559 504 510 210 505 180 c 0
 497 129 489 63 482 0 c 1
 367 0 l 1
402 270 m 0
 418 367 377 440 306 440 c 0
 235 440 170 367 154 270 c 0
 138 173 179 100 250 100 c 0
 321 100 386 173 402 270 c 0
323 772 m 1
 320 732 338 706 368 706 c 0
 398 706 424 732 435 772 c 1
 530 772 l 1
 515 681 441 616 353 616 c 0
 265 616 213 681 228 772 c 1
 323 772 l 1
EndSplineSet
Validated: 33
EndChar

StartChar: acircumflex
Encoding: 226 226 363
Width: 600
GlyphClass: 1
Flags: W
LayerCount: 2
Fore
SplineSet
399 374 m 0
 407 421 379 450 323 450 c 0
 273 450 231 426 221 390 c 1
 104 390 l 1
 120 483 220 550 341 550 c 0
 464 550 536 480 519 376 c 2
 489 193 l 2
 476 120 472 55 476 0 c 1
 360 0 l 1
 358 20 357 44 356 70 c 1
 352 70 l 1
 315 19 260 -10 193 -10 c 0
 91 -10 29 58 46 156 c 0
 63 256 148 310 310 325 c 2
 343 328 l 2
 378 331 393 345 399 374 c 0
234 85 m 0
 299 85 359 137 370 204 c 2
 379 260 l 1
 368 254 354 250 338 248 c 2
 306 244 l 2
 216 233 174 207 166 158 c 0
 159 114 185 85 234 85 c 0
174 611 m 1
 326 811 l 1
 436 811 l 1
 522 611 l 1
 427 611 l 1
 365 713 l 1
 269 611 l 1
 174 611 l 1
EndSplineSet
Validated: 33
Substitution2: "'cv08' +W1d7JlPYT1MA-08 +Z+VifgAA 7+Zv9O44ho" acircumflex.cv08
Substitution2: "'cv01' +W1d7JlPYT1MA-01 +Z+VifgAA 0+Zv9O44ho" acircumflex.cv01
EndChar

StartChar: acircumflex.cv01
Encoding: 65730 -1 364
Width: 600
GlyphClass: 1
Flags: W
LayerCount: 2
Fore
SplineSet
370 89 m 1
 328 25 272 -10 204 -10 c 0
 80 -10 7 109 34 270 c 0
 61 430 174 550 298 550 c 0
 366 550 410 514 430 449 c 1
 435 449 l 1
 450 540 l 1
 565 540 l 1
 505 180 l 2
 497 129 489 63 482 0 c 1
 367 0 l 1
 369 32 371 60 374 89 c 1
 370 89 l 1
402 270 m 0
 418 367 377 440 306 440 c 0
 235 440 170 367 154 270 c 0
 138 173 179 100 250 100 c 0
 321 100 386 173 402 270 c 0
178 611 m 1
 330 811 l 1
 440 811 l 1
 526 611 l 1
 431 611 l 1
 369 713 l 1
 273 611 l 1
 178 611 l 1
EndSplineSet
Validated: 33
EndChar

StartChar: acircumflex.cv08
Encoding: 65731 -1 365
Width: 600
GlyphClass: 1
Flags: W
LayerCount: 2
Fore
SplineSet
367 0 m 1
 368 32 371 60 374 89 c 1
 369 89 l 1
 328 25 271 -10 203 -10 c 0
 79 -10 7 109 34 269 c 0
 61 430 174 550 298 550 c 0
 366 550 411 514 430 449 c 1
 435 449 l 1
 450 540 l 1
 565 540 l 1
 559 504 510 210 505 180 c 0
 497 129 489 63 482 0 c 1
 367 0 l 1
402 270 m 0
 418 367 377 440 306 440 c 0
 235 440 170 367 154 270 c 0
 138 173 179 100 250 100 c 0
 321 100 386 173 402 270 c 0
178 611 m 1
 330 811 l 1
 440 811 l 1
 526 611 l 1
 431 611 l 1
 369 713 l 1
 273 611 l 1
 178 611 l 1
EndSplineSet
Validated: 33
EndChar

StartChar: uni2406
Encoding: 9222 9222 366
Width: 600
GlyphClass: 1
Flags: W
LayerCount: 2
Fore
SplineSet
136 625 m 1
 64 625 l 1
 210 975 l 1
 315 975 l 1
 344 625 l 1
 272 625 l 1
 266 709 l 1
 169 709 l 1
 136 625 l 1
197 774 m 1
 260 774 l 1
 251 902 l 1
 249 902 l 1
 197 774 l 1
351 274 m 1
 426 274 l 1
 411 213 355 170 292 170 c 0
 210 170 165 244 183 350 c 0
 201 456 270 530 351 530 c 0
 411 530 451 489 450 431 c 1
 375 431 l 1
 372 450 359 461 340 461 c 0
 301 461 268 418 257 350 c 0
 246 281 264 239 304 239 c 0
 326 239 343 252 351 274 c 1
363 75 m 1
 340 -64 l 1
 472 75 l 1
 560 75 l 1
 423 -68 l 1
 506 -275 l 1
 422 -275 l 1
 365 -128 l 1
 322 -173 l 1
 305 -275 l 1
 230 -275 l 1
 289 75 l 1
 363 75 l 1
EndSplineSet
Validated: 33
EndChar

StartChar: acute
Encoding: 180 180 367
Width: 600
GlyphClass: 1
Flags: W
LayerCount: 2
Fore
SplineSet
557 780 m 1
 281 500 l 1
 156 500 l 1
 387 780 l 1
 557 780 l 1
EndSplineSet
Validated: 1
EndChar

StartChar: acutecomb
Encoding: 769 769 368
Width: 600
GlyphClass: 1
Flags: W
LayerCount: 2
Fore
SplineSet
502 820 m 1
 339 620 l 1
 239 620 l 1
 352 820 l 1
 502 820 l 1
EndSplineSet
Validated: 1
EndChar

StartChar: adieresis
Encoding: 228 228 369
Width: 600
GlyphClass: 1
Flags: W
LayerCount: 2
Fore
SplineSet
399 374 m 0
 407 421 379 450 323 450 c 0
 273 450 231 426 221 390 c 1
 104 390 l 1
 120 483 220 550 341 550 c 0
 464 550 536 480 519 376 c 2
 489 193 l 2
 476 120 472 55 476 0 c 1
 360 0 l 1
 358 20 357 44 356 70 c 1
 352 70 l 1
 315 19 260 -10 193 -10 c 0
 91 -10 29 58 46 156 c 0
 63 256 148 310 310 325 c 2
 343 328 l 2
 378 331 393 345 399 374 c 0
234 85 m 0
 299 85 359 137 370 204 c 2
 379 260 l 1
 368 254 354 250 338 248 c 2
 306 244 l 2
 216 233 174 207 166 158 c 0
 159 114 185 85 234 85 c 0
169 699 m 0
 177 746 220 783 266 783 c 0
 313 783 344 746 336 699 c 0
 328 653 286 616 239 616 c 0
 193 616 161 653 169 699 c 0
389 699 m 0
 397 746 440 783 486 783 c 0
 533 783 564 746 556 699 c 0
 548 653 506 616 459 616 c 0
 413 616 381 653 389 699 c 0
EndSplineSet
Validated: 33
Substitution2: "'cv08' +W1d7JlPYT1MA-08 +Z+VifgAA 7+Zv9O44ho" adieresis.cv08
Substitution2: "'cv03' +W1d7JlPYT1MA-03 +Z+VifgAA 2+Zv9O44ho" adieresis.square
Substitution2: "'cv01' +W1d7JlPYT1MA-01 +Z+VifgAA 0+Zv9O44ho" adieresis.cv01
EndChar

StartChar: adieresis.cv01
Encoding: 65732 -1 370
Width: 600
GlyphClass: 1
Flags: W
LayerCount: 2
Fore
SplineSet
370 89 m 1
 328 25 272 -10 204 -10 c 0
 80 -10 7 109 34 270 c 0
 61 430 174 550 298 550 c 0
 366 550 410 514 430 449 c 1
 435 449 l 1
 450 540 l 1
 565 540 l 1
 505 180 l 2
 497 129 489 63 482 0 c 1
 367 0 l 1
 369 32 371 60 374 89 c 1
 370 89 l 1
402 270 m 0
 418 367 377 440 306 440 c 0
 235 440 170 367 154 270 c 0
 138 173 179 100 250 100 c 0
 321 100 386 173 402 270 c 0
173 699 m 0
 181 746 224 783 270 783 c 0
 317 783 348 746 340 699 c 0
 332 653 290 616 243 616 c 0
 197 616 165 653 173 699 c 0
393 699 m 0
 401 746 444 783 490 783 c 0
 537 783 568 746 560 699 c 0
 552 653 510 616 463 616 c 0
 417 616 385 653 393 699 c 0
EndSplineSet
Validated: 33
EndChar

StartChar: adieresis.cv08
Encoding: 65733 -1 371
Width: 600
GlyphClass: 1
Flags: W
LayerCount: 2
Fore
SplineSet
367 0 m 1
 368 32 371 60 374 89 c 1
 369 89 l 1
 328 25 271 -10 203 -10 c 0
 79 -10 7 109 34 269 c 0
 61 430 174 550 298 550 c 0
 366 550 411 514 430 449 c 1
 435 449 l 1
 450 540 l 1
 565 540 l 1
 559 504 510 210 505 180 c 0
 497 129 489 63 482 0 c 1
 367 0 l 1
402 270 m 0
 418 367 377 440 306 440 c 0
 235 440 170 367 154 270 c 0
 138 173 179 100 250 100 c 0
 321 100 386 173 402 270 c 0
173 699 m 0
 181 746 224 783 270 783 c 0
 317 783 348 746 340 699 c 0
 332 653 290 616 243 616 c 0
 197 616 165 653 173 699 c 0
393 699 m 0
 401 746 444 783 490 783 c 0
 537 783 568 746 560 699 c 0
 552 653 510 616 463 616 c 0
 417 616 385 653 393 699 c 0
EndSplineSet
Validated: 33
Substitution2: "'cv03' +W1d7JlPYT1MA-03 +Z+VifgAA 2+Zv9O44ho" adieresis.square.cv08
EndChar

StartChar: adieresis.square
Encoding: 65734 -1 372
Width: 600
GlyphClass: 1
Flags: W
LayerCount: 2
Fore
SplineSet
399 374 m 0
 407 421 379 450 323 450 c 0
 273 450 231 426 221 390 c 1
 104 390 l 1
 120 483 220 550 341 550 c 0
 464 550 536 480 519 376 c 2
 489 193 l 2
 476 120 472 55 476 0 c 1
 360 0 l 1
 358 20 357 44 356 70 c 1
 352 70 l 1
 315 19 260 -10 193 -10 c 0
 91 -10 29 58 46 156 c 0
 63 256 148 310 310 325 c 2
 343 328 l 2
 378 331 393 345 399 374 c 0
234 85 m 0
 299 85 359 137 370 204 c 2
 379 260 l 1
 368 254 354 250 338 248 c 2
 306 244 l 2
 216 233 174 207 166 158 c 0
 159 114 185 85 234 85 c 0
166 615 m 1
 190 760 l 1
 335 760 l 1
 311 615 l 1
 166 615 l 1
386 615 m 1
 410 760 l 1
 555 760 l 1
 531 615 l 1
 386 615 l 1
EndSplineSet
Validated: 33
Substitution2: "'cv08' +W1d7JlPYT1MA-08 +Z+VifgAA 7+Zv9O44ho" adieresis.square.cv08
Substitution2: "'cv01' +W1d7JlPYT1MA-01 +Z+VifgAA 0+Zv9O44ho" adieresis.square.cv01
EndChar

StartChar: adieresis.square.cv01
Encoding: 65735 -1 373
Width: 600
GlyphClass: 1
Flags: W
LayerCount: 2
Fore
SplineSet
370 89 m 1
 328 25 272 -10 204 -10 c 0
 80 -10 7 109 34 270 c 0
 61 430 174 550 298 550 c 0
 366 550 410 514 430 449 c 1
 435 449 l 1
 450 540 l 1
 565 540 l 1
 505 180 l 2
 497 129 489 63 482 0 c 1
 367 0 l 1
 369 32 371 60 374 89 c 1
 370 89 l 1
402 270 m 0
 418 367 377 440 306 440 c 0
 235 440 170 367 154 270 c 0
 138 173 179 100 250 100 c 0
 321 100 386 173 402 270 c 0
170 615 m 1
 194 760 l 1
 339 760 l 1
 315 615 l 1
 170 615 l 1
390 615 m 1
 414 760 l 1
 559 760 l 1
 535 615 l 1
 390 615 l 1
EndSplineSet
Validated: 33
EndChar

StartChar: adieresis.square.cv08
Encoding: 65736 -1 374
Width: 600
GlyphClass: 1
Flags: W
LayerCount: 2
Fore
SplineSet
367 0 m 1
 368 32 371 60 374 89 c 1
 369 89 l 1
 328 25 271 -10 203 -10 c 0
 79 -10 7 109 34 269 c 0
 61 430 174 550 298 550 c 0
 366 550 411 514 430 449 c 1
 435 449 l 1
 450 540 l 1
 565 540 l 1
 559 504 510 210 505 180 c 0
 497 129 489 63 482 0 c 1
 367 0 l 1
402 270 m 0
 418 367 377 440 306 440 c 0
 235 440 170 367 154 270 c 0
 138 173 179 100 250 100 c 0
 321 100 386 173 402 270 c 0
170 615 m 1
 194 760 l 1
 339 760 l 1
 315 615 l 1
 170 615 l 1
390 615 m 1
 414 760 l 1
 559 760 l 1
 535 615 l 1
 390 615 l 1
EndSplineSet
Validated: 33
EndChar

StartChar: ae
Encoding: 230 230 375
Width: 600
GlyphClass: 1
Flags: W
LayerCount: 2
Fore
SplineSet
102 -10 m 0
 16 -10 -31 55 -15 151 c 0
 3 258 88 327 202 327 c 2
 241 327 l 1
 244 350 l 2
 254 409 237 451 201 451 c 0
 174 451 143 426 134 390 c 1
 33 390 l 1
 51 482 128 550 211 550 c 0
 269 550 307 518 321 461 c 1
 325 461 l 1
 362 518 411 550 465 550 c 0
 564 550 613 440 587 282 c 2
 579 235 l 1
 336 235 l 1
 326 141 345 88 390 88 c 0
 420 88 452 112 465 150 c 1
 561 150 l 1
 533 57 456 -10 374 -10 c 0
 315 -10 277 25 261 89 c 1
 257 89 l 1
 220 26 166 -10 102 -10 c 0
353 327 m 1
 489 327 l 1
 500 406 483 453 444 453 c 0
 405 453 373 408 353 327 c 1
225 235 m 1
 187 235 l 2
 135 235 100 206 91 155 c 0
 84 115 99 88 129 88 c 0
 171 88 210 141 222 214 c 2
 225 235 l 1
EndSplineSet
Validated: 33
EndChar

StartChar: aeacute
Encoding: 509 509 376
Width: 600
GlyphClass: 1
Flags: W
LayerCount: 2
Fore
SplineSet
102 -10 m 0
 16 -10 -31 55 -15 151 c 0
 3 258 88 327 202 327 c 2
 241 327 l 1
 244 350 l 2
 254 409 237 451 201 451 c 0
 174 451 143 426 134 390 c 1
 33 390 l 1
 51 482 128 550 211 550 c 0
 269 550 307 518 321 461 c 1
 325 461 l 1
 362 518 411 550 465 550 c 0
 564 550 613 440 587 282 c 2
 579 235 l 1
 336 235 l 1
 326 141 345 88 390 88 c 0
 420 88 452 112 465 150 c 1
 561 150 l 1
 533 57 456 -10 374 -10 c 0
 315 -10 277 25 261 89 c 1
 257 89 l 1
 220 26 166 -10 102 -10 c 0
353 327 m 1
 489 327 l 1
 500 406 483 453 444 453 c 0
 405 453 373 408 353 327 c 1
225 235 m 1
 187 235 l 2
 135 235 100 206 91 155 c 0
 84 115 99 88 129 88 c 0
 171 88 210 141 222 214 c 2
 225 235 l 1
542 825 m 1
 379 625 l 1
 279 625 l 1
 392 825 l 1
 542 825 l 1
EndSplineSet
Validated: 33
EndChar

StartChar: agrave
Encoding: 224 224 377
Width: 600
GlyphClass: 1
Flags: W
LayerCount: 2
Fore
SplineSet
399 374 m 0
 407 421 379 450 323 450 c 0
 273 450 231 426 221 390 c 1
 104 390 l 1
 120 483 220 550 341 550 c 0
 464 550 536 480 519 376 c 2
 489 193 l 2
 476 120 472 55 476 0 c 1
 360 0 l 1
 358 20 357 44 356 70 c 1
 352 70 l 1
 315 19 260 -10 193 -10 c 0
 91 -10 29 58 46 156 c 0
 63 256 148 310 310 325 c 2
 343 328 l 2
 378 331 393 345 399 374 c 0
234 85 m 0
 299 85 359 137 370 204 c 2
 379 260 l 1
 368 254 354 250 338 248 c 2
 306 244 l 2
 216 233 174 207 166 158 c 0
 159 114 185 85 234 85 c 0
424 620 m 1
 324 620 l 1
 229 820 l 1
 379 820 l 1
 424 620 l 1
EndSplineSet
Validated: 33
Substitution2: "'cv08' +W1d7JlPYT1MA-08 +Z+VifgAA 7+Zv9O44ho" agrave.cv08
Substitution2: "'cv01' +W1d7JlPYT1MA-01 +Z+VifgAA 0+Zv9O44ho" agrave.cv01
EndChar

StartChar: agrave.cv01
Encoding: 65737 -1 378
Width: 600
GlyphClass: 1
Flags: W
LayerCount: 2
Fore
SplineSet
370 89 m 1
 328 25 272 -10 204 -10 c 0
 80 -10 7 109 34 270 c 0
 61 430 174 550 298 550 c 0
 366 550 410 514 430 449 c 1
 435 449 l 1
 450 540 l 1
 565 540 l 1
 505 180 l 2
 497 129 489 63 482 0 c 1
 367 0 l 1
 369 32 371 60 374 89 c 1
 370 89 l 1
402 270 m 0
 418 367 377 440 306 440 c 0
 235 440 170 367 154 270 c 0
 138 173 179 100 250 100 c 0
 321 100 386 173 402 270 c 0
428 620 m 1
 328 620 l 1
 233 820 l 1
 383 820 l 1
 428 620 l 1
EndSplineSet
Validated: 33
EndChar

StartChar: agrave.cv08
Encoding: 65738 -1 379
Width: 600
GlyphClass: 1
Flags: W
LayerCount: 2
Fore
SplineSet
367 0 m 1
 368 32 371 60 374 89 c 1
 369 89 l 1
 328 25 271 -10 203 -10 c 0
 79 -10 7 109 34 269 c 0
 61 430 174 550 298 550 c 0
 366 550 411 514 430 449 c 1
 435 449 l 1
 450 540 l 1
 565 540 l 1
 559 504 510 210 505 180 c 0
 497 129 489 63 482 0 c 1
 367 0 l 1
402 270 m 0
 418 367 377 440 306 440 c 0
 235 440 170 367 154 270 c 0
 138 173 179 100 250 100 c 0
 321 100 386 173 402 270 c 0
428 620 m 1
 328 620 l 1
 233 820 l 1
 383 820 l 1
 428 620 l 1
EndSplineSet
Validated: 33
EndChar

StartChar: alpha
Encoding: 945 945 380
Width: 600
GlyphClass: 1
Flags: W
LayerCount: 2
Fore
SplineSet
303 550 m 0
 370 550 415 516 438 447 c 1
 442 447 l 1
 477 540 l 1
 598 540 l 1
 496 270 l 1
 508 0 l 1
 387 0 l 1
 383 93 l 1
 378 93 l 1
 331 24 275 -10 208 -10 c 0
 82 -10 7 110 34 270 c 0
 61 431 177 550 303 550 c 0
366 220 m 2
 385 270 l 1
 383 320 l 2
 379 399 349 440 299 440 c 0
 232 440 171 368 154 270 c 0
 138 172 175 100 242 100 c 0
 293 100 336 141 366 220 c 2
EndSplineSet
Validated: 33
EndChar

StartChar: alphatonos
Encoding: 940 940 381
Width: 600
GlyphClass: 1
Flags: W
LayerCount: 2
Fore
SplineSet
303 550 m 0
 370 550 415 516 438 447 c 1
 442 447 l 1
 477 540 l 1
 598 540 l 1
 496 270 l 1
 508 0 l 1
 387 0 l 1
 383 93 l 1
 378 93 l 1
 331 24 275 -10 208 -10 c 0
 82 -10 7 110 34 270 c 0
 61 431 177 550 303 550 c 0
366 220 m 2
 385 270 l 1
 383 320 l 2
 379 399 349 440 299 440 c 0
 232 440 171 368 154 270 c 0
 138 172 175 100 242 100 c 0
 293 100 336 141 366 220 c 2
600 830 m 1
 484 610 l 1
 394 610 l 1
 460 830 l 1
 600 830 l 1
EndSplineSet
Validated: 33
EndChar

StartChar: uni2387
Encoding: 9095 9095 382
Width: 600
GlyphClass: 1
Flags: W
LayerCount: 2
Fore
SplineSet
483 604 m 1
 122 2 l 1
 -50 2 l 1
 -33 102 l 1
 73 102 l 1
 433 704 l 1
 667 704 l 1
 651 604 l 1
 483 604 l 1
550 2 m 1
 293 2 l 1
 310 102 l 1
 567 102 l 1
 550 2 l 1
EndSplineSet
Validated: 1
EndChar

StartChar: amacron
Encoding: 257 257 383
Width: 600
GlyphClass: 1
Flags: W
LayerCount: 2
Fore
SplineSet
399 374 m 0
 407 421 379 450 323 450 c 0
 273 450 231 426 221 390 c 1
 104 390 l 1
 120 483 220 550 341 550 c 0
 464 550 536 480 519 376 c 2
 489 193 l 2
 476 120 472 55 476 0 c 1
 360 0 l 1
 358 20 357 44 356 70 c 1
 352 70 l 1
 315 19 260 -10 193 -10 c 0
 91 -10 29 58 46 156 c 0
 63 256 148 310 310 325 c 2
 343 328 l 2
 378 331 393 345 399 374 c 0
234 85 m 0
 299 85 359 137 370 204 c 2
 379 260 l 1
 368 254 354 250 338 248 c 2
 306 244 l 2
 216 233 174 207 166 158 c 0
 159 114 185 85 234 85 c 0
192 640 m 1
 209 740 l 1
 529 740 l 1
 512 640 l 1
 192 640 l 1
EndSplineSet
Validated: 33
Substitution2: "'cv08' +W1d7JlPYT1MA-08 +Z+VifgAA 7+Zv9O44ho" amacron.cv08
Substitution2: "'cv01' +W1d7JlPYT1MA-01 +Z+VifgAA 0+Zv9O44ho" amacron.cv01
EndChar

StartChar: amacron.cv01
Encoding: 65739 -1 384
Width: 600
GlyphClass: 1
Flags: W
LayerCount: 2
Fore
SplineSet
370 89 m 1
 328 25 272 -10 204 -10 c 0
 80 -10 7 109 34 270 c 0
 61 430 174 550 298 550 c 0
 366 550 410 514 430 449 c 1
 435 449 l 1
 450 540 l 1
 565 540 l 1
 505 180 l 2
 497 129 489 63 482 0 c 1
 367 0 l 1
 369 32 371 60 374 89 c 1
 370 89 l 1
402 270 m 0
 418 367 377 440 306 440 c 0
 235 440 170 367 154 270 c 0
 138 173 179 100 250 100 c 0
 321 100 386 173 402 270 c 0
196 640 m 1
 213 740 l 1
 533 740 l 1
 516 640 l 1
 196 640 l 1
EndSplineSet
Validated: 33
EndChar

StartChar: amacron.cv08
Encoding: 65740 -1 385
Width: 600
GlyphClass: 1
Flags: W
LayerCount: 2
Fore
SplineSet
367 0 m 1
 368 32 371 60 374 89 c 1
 369 89 l 1
 328 25 271 -10 203 -10 c 0
 79 -10 7 109 34 269 c 0
 61 430 174 550 298 550 c 0
 366 550 411 514 430 449 c 1
 435 449 l 1
 450 540 l 1
 565 540 l 1
 559 504 510 210 505 180 c 0
 497 129 489 63 482 0 c 1
 367 0 l 1
402 270 m 0
 418 367 377 440 306 440 c 0
 235 440 170 367 154 270 c 0
 138 173 179 100 250 100 c 0
 321 100 386 173 402 270 c 0
196 640 m 1
 213 740 l 1
 533 740 l 1
 516 640 l 1
 196 640 l 1
EndSplineSet
Validated: 33
EndChar

StartChar: ampersand
Encoding: 38 38 386
Width: 600
GlyphClass: 1
Flags: W
LayerCount: 2
Fore
SplineSet
389 0 m 1
 346 62 l 1
 283 13 216 -14 151 -14 c 0
 42 -14 -25 64 -7 170 c 0
 5 242 54 308 135 367 c 1
 130 375 l 2
 95 427 81 483 90 537 c 0
 106 637 195 710 300 710 c 0
 405 710 468 638 452 542 c 0
 440 471 389 407 304 355 c 2
 298 351 l 1
 375 239 l 1
 401 275 424 315 443 358 c 1
 564 358 l 1
 529 278 486 207 437 150 c 1
 540 0 l 1
 389 0 l 1
178 96 m 0
 211 96 250 114 289 145 c 1
 193 284 l 1
 147 250 121 214 114 176 c 0
 106 129 133 96 178 96 c 0
209 535 m 0
 204 505 215 472 240 436 c 1
 241 434 l 1
 255 443 l 2
 302 472 330 504 336 538 c 0
 342 574 321 600 284 600 c 0
 246 600 215 573 209 535 c 0
EndSplineSet
Validated: 33
EndChar

StartChar: aogonek
Encoding: 261 261 387
Width: 600
GlyphClass: 1
Flags: W
LayerCount: 2
Fore
SplineSet
443 -200 m 1
 430 -203 414 -205 397 -205 c 0
 318 -205 271 -161 282 -97 c 0
 288 -58 315 -23 360 5 c 1
 358 24 357 46 356 70 c 1
 352 70 l 1
 315 19 260 -10 193 -10 c 0
 91 -10 29 58 46 156 c 0
 63 256 148 310 310 325 c 2
 343 328 l 2
 378 331 393 345 399 374 c 0
 407 421 379 450 323 450 c 0
 273 450 231 426 221 390 c 1
 104 390 l 1
 120 483 220 550 341 550 c 0
 464 550 536 480 519 376 c 2
 489 193 l 2
 476 120 472 55 476 0 c 1
 418 -24 390 -48 385 -76 c 0
 381 -103 400 -120 432 -120 c 0
 440 -120 450 -119 457 -117 c 1
 443 -200 l 1
234 85 m 0
 299 85 359 137 370 204 c 2
 379 260 l 1
 368 254 354 250 338 248 c 2
 306 244 l 2
 216 233 174 207 166 158 c 0
 159 114 185 85 234 85 c 0
EndSplineSet
Validated: 33
Substitution2: "'cv08' +W1d7JlPYT1MA-08 +Z+VifgAA 7+Zv9O44ho" aogonek.cv08
Substitution2: "'cv01' +W1d7JlPYT1MA-01 +Z+VifgAA 0+Zv9O44ho" aogonek.cv01
EndChar

StartChar: aogonek.cv01
Encoding: 65741 -1 388
Width: 600
GlyphClass: 1
Flags: W
LayerCount: 2
Fore
SplineSet
370 89 m 1
 328 25 272 -10 204 -10 c 0
 80 -10 7 109 34 270 c 0
 61 430 174 550 298 550 c 0
 366 550 410 514 430 449 c 1
 435 449 l 1
 450 540 l 1
 565 540 l 1
 505 180 l 2
 497 129 489 63 482 0 c 1
 424 -24 396 -48 391 -76 c 0
 387 -103 406 -120 438 -120 c 0
 446 -120 456 -119 463 -117 c 1
 449 -200 l 1
 436 -203 420 -205 403 -205 c 0
 324 -205 277 -161 288 -97 c 0
 294 -57 322 -22 367 6 c 1
 369 36 371 62 374 89 c 1
 370 89 l 1
402 270 m 0
 418 367 377 440 306 440 c 0
 235 440 170 367 154 270 c 0
 138 173 179 100 250 100 c 0
 321 100 386 173 402 270 c 0
EndSplineSet
Validated: 33
EndChar

StartChar: aogonek.cv08
Encoding: 65742 -1 389
Width: 600
GlyphClass: 1
Flags: W
LayerCount: 2
Fore
SplineSet
449 -200 m 1
 436 -203 420 -205 403 -205 c 0
 324 -205 277 -161 288 -97 c 0
 294 -57 322 -22 367 6 c 1
 368 36 371 62 374 89 c 1
 369 89 l 1
 328 25 271 -10 203 -10 c 0
 79 -10 7 109 34 269 c 0
 61 430 174 550 298 550 c 0
 366 550 411 514 430 449 c 1
 435 449 l 1
 450 540 l 1
 565 540 l 1
 505 180 l 2
 497 129 489 63 482 0 c 1
 424 -24 396 -48 391 -76 c 0
 387 -103 406 -120 438 -120 c 0
 446 -120 456 -119 463 -117 c 1
 449 -200 l 1
402 270 m 0
 418 367 377 440 306 440 c 0
 235 440 170 367 154 270 c 0
 138 173 179 100 250 100 c 0
 321 100 386 173 402 270 c 0
EndSplineSet
Validated: 33
EndChar

StartChar: uniF8FF
Encoding: 63743 63743 390
Width: 600
GlyphClass: 1
Flags: W
LayerCount: 2
Fore
SplineSet
0 0 m 1
 0 700 l 1
 600 700 l 1
 600 0 l 1
 0 0 l 1
360 175 m 1
 360 471 l 1
 362 471 l 1
 425 250 l 1
 467 250 l 1
 531 471 l 1
 533 471 l 1
 533 175 l 1
 576 175 l 1
 576 525 l 1
 510 525 l 1
 447 306 l 1
 445 306 l 1
 383 525 l 1
 316 525 l 1
 316 175 l 1
 360 175 l 1
278 265 m 1
 233 265 l 1
 226 234 200 213 166 213 c 0
 113 213 78 267 78 350 c 0
 78 433 112 488 165 488 c 0
 197 488 223 469 229 440 c 1
 274 440 l 1
 266 493 221 530 165 530 c 0
 86 530 31 457 31 350 c 0
 31 244 86 170 165 170 c 0
 223 170 270 210 278 265 c 1
EndSplineSet
Validated: 1
EndChar

StartChar: approxequal
Encoding: 8776 8776 391
Width: 600
GlyphClass: 1
Flags: W
LayerCount: 2
Fore
SplineSet
53 335 m 1
 60 375 l 2
 77 479 146 545 239 545 c 0
 369 545 363 415 423 415 c 0
 449 415 466 440 477 495 c 2
 483 525 l 1
 589 525 l 1
 582 485 l 2
 565 381 496 315 403 315 c 0
 273 315 280 445 221 445 c 0
 195 445 176 419 165 365 c 2
 159 335 l 1
 53 335 l 1
14 95 m 1
 20 135 l 2
 37 239 106 305 199 305 c 0
 329 305 323 175 383 175 c 0
 409 175 426 200 437 255 c 2
 443 285 l 1
 549 285 l 1
 543 245 l 2
 526 141 456 75 363 75 c 0
 233 75 240 205 181 205 c 0
 155 205 137 179 126 125 c 2
 120 95 l 1
 14 95 l 1
EndSplineSet
Validated: 1
Substitution2: "+U1VOAGb/Y2IA +Z+VifgAA 54+Zv9O44ho" approxequal.case
EndChar

StartChar: approxequal.case
Encoding: 65743 -1 392
Width: 600
GlyphClass: 1
Flags: W
LayerCount: 2
Fore
SplineSet
60 375 m 1
 67 415 l 2
 84 519 153 585 246 585 c 0
 376 585 370 455 430 455 c 0
 456 455 473 480 484 535 c 2
 490 565 l 1
 596 565 l 1
 589 525 l 2
 572 421 503 355 410 355 c 0
 280 355 287 485 228 485 c 0
 202 485 183 459 172 405 c 2
 166 375 l 1
 60 375 l 1
21 135 m 1
 27 175 l 2
 44 279 113 345 206 345 c 0
 336 345 330 215 390 215 c 0
 416 215 433 240 444 295 c 2
 450 325 l 1
 556 325 l 1
 550 285 l 2
 533 181 463 115 370 115 c 0
 240 115 247 245 188 245 c 0
 162 245 144 219 133 165 c 2
 127 135 l 1
 21 135 l 1
EndSplineSet
Validated: 1
Substitution2: "+U1VOAGb/Y2IA +Z+VifgAA 54+Zv9O44ho" approxequal
EndChar

StartChar: aring
Encoding: 229 229 393
Width: 600
GlyphClass: 1
Flags: W
LayerCount: 2
Fore
SplineSet
399 374 m 0
 407 421 379 450 323 450 c 0
 273 450 231 426 221 390 c 1
 104 390 l 1
 120 483 220 550 341 550 c 0
 464 550 536 480 519 376 c 2
 489 193 l 2
 476 120 472 55 476 0 c 1
 360 0 l 1
 358 20 357 44 356 70 c 1
 352 70 l 1
 315 19 260 -10 193 -10 c 0
 91 -10 29 58 46 156 c 0
 63 256 148 310 310 325 c 2
 343 328 l 2
 378 331 393 345 399 374 c 0
234 85 m 0
 299 85 359 137 370 204 c 2
 379 260 l 1
 368 254 354 250 338 248 c 2
 306 244 l 2
 216 233 174 207 166 158 c 0
 159 114 185 85 234 85 c 0
234 727 m 0
 246 800 312 854 388 854 c 0
 464 854 512 800 500 728 c 0
 488 654 419 596 345 596 c 0
 271 596 222 654 234 727 c 0
358 672 m 0
 388 672 414 695 419 725 c 0
 424 755 406 778 376 778 c 0
 346 778 320 755 315 725 c 0
 310 695 328 672 358 672 c 0
EndSplineSet
Validated: 33
Substitution2: "'cv08' +W1d7JlPYT1MA-08 +Z+VifgAA 7+Zv9O44ho" aring.cv08
Substitution2: "'cv01' +W1d7JlPYT1MA-01 +Z+VifgAA 0+Zv9O44ho" aring.cv01
EndChar

StartChar: aring.cv01
Encoding: 65744 -1 394
Width: 600
GlyphClass: 1
Flags: W
LayerCount: 2
Fore
SplineSet
370 89 m 1
 328 25 272 -10 204 -10 c 0
 80 -10 7 109 34 270 c 0
 61 430 174 550 298 550 c 0
 366 550 410 514 430 449 c 1
 435 449 l 1
 450 540 l 1
 565 540 l 1
 505 180 l 2
 497 129 489 63 482 0 c 1
 367 0 l 1
 369 32 371 60 374 89 c 1
 370 89 l 1
402 270 m 0
 418 367 377 440 306 440 c 0
 235 440 170 367 154 270 c 0
 138 173 179 100 250 100 c 0
 321 100 386 173 402 270 c 0
238 727 m 0
 250 800 316 854 392 854 c 0
 468 854 516 800 504 728 c 0
 492 654 423 596 349 596 c 0
 275 596 226 654 238 727 c 0
362 672 m 0
 392 672 418 695 423 725 c 0
 428 755 410 778 380 778 c 0
 350 778 324 755 319 725 c 0
 314 695 332 672 362 672 c 0
EndSplineSet
Validated: 33
EndChar

StartChar: aring.cv08
Encoding: 65745 -1 395
Width: 600
GlyphClass: 1
Flags: W
LayerCount: 2
Fore
SplineSet
367 0 m 1
 368 32 371 60 374 89 c 1
 369 89 l 1
 328 25 271 -10 203 -10 c 0
 79 -10 7 109 34 269 c 0
 61 430 174 550 298 550 c 0
 366 550 411 514 430 449 c 1
 435 449 l 1
 450 540 l 1
 565 540 l 1
 559 504 510 210 505 180 c 0
 497 129 489 63 482 0 c 1
 367 0 l 1
402 270 m 0
 418 367 377 440 306 440 c 0
 235 440 170 367 154 270 c 0
 138 173 179 100 250 100 c 0
 321 100 386 173 402 270 c 0
238 727 m 0
 250 800 316 854 392 854 c 0
 468 854 516 800 504 728 c 0
 492 654 423 596 349 596 c 0
 275 596 226 654 238 727 c 0
362 672 m 0
 392 672 418 695 423 725 c 0
 428 755 410 778 380 778 c 0
 350 778 324 755 319 725 c 0
 314 695 332 672 362 672 c 0
EndSplineSet
Validated: 33
EndChar

